<svg width="2220" height="2200" viewBox="0 0 2220 2200" fill="none" xmlns="http://www.w3.org/2000/svg">
<path d="M2220 2200H0V0H2220V2200Z" fill="#CAA1FD"/>
<path d="M166.945 1771.98C3.46355 1531.14 38.4299 1167.47 232.44 1038.13C497.54 861.394 163.887 583.289 621.731 393.292C812.301 314.212 1034.54 480.349 1227.78 487.553C1400.94 494.019 1580.07 347.68 1755.88 415.468C1873.45 454.492 2010.92 589.547 2002.16 720.489C1997.63 788.155 1897.07 952.157 2042.76 1095.45C2241.59 1291.01 2138.29 1570.72 2045.15 1768.95C2045.16 1768.93 166.945 1771.98 166.945 1771.98Z" fill="#BE6AFF"/>
<path d="M459.652 900.678C458.183 900.678 456.832 899.706 456.413 898.23C455.908 896.434 456.949 894.576 458.74 894.073C463.722 892.667 468.776 891.877 473.764 891.721C475.621 891.66 477.176 893.127 477.233 894.984C477.29 896.842 475.829 898.395 473.97 898.456C469.531 898.586 465.022 899.298 460.569 900.557C460.263 900.635 459.955 900.678 459.652 900.678ZM625.524 903.525C624.724 903.525 623.922 903.239 623.279 902.666C621.893 901.425 621.774 899.298 623.015 897.909C625.583 895.036 627.692 891.712 629.285 888.032C630.023 886.322 632.005 885.532 633.712 886.27C635.42 887.008 636.205 888.995 635.467 890.696C633.587 895.054 631.087 898.986 628.035 902.397C627.37 903.143 626.448 903.525 625.524 903.525ZM501.856 904.462C501.467 904.462 501.072 904.393 500.686 904.245C498.969 903.612 497.285 902.97 495.636 902.319C492.933 901.26 490.174 900.4 487.438 899.775C485.625 899.359 484.492 897.553 484.907 895.739C485.321 893.925 487.128 892.797 488.941 893.214C492.003 893.908 495.084 894.863 498.099 896.052C499.708 896.685 501.352 897.31 503.027 897.935C504.771 898.578 505.66 900.513 505.014 902.258C504.51 903.62 503.224 904.462 501.856 904.462ZM529.39 913.107C529.111 913.107 528.827 913.073 528.544 913.003C523.905 911.805 519.182 910.451 514.504 908.976C512.73 908.42 511.744 906.528 512.302 904.758C512.86 902.978 514.751 901.997 516.525 902.553C521.092 903.985 525.704 905.313 530.232 906.485C532.032 906.945 533.114 908.785 532.648 910.582C532.256 912.101 530.889 913.107 529.39 913.107ZM434.151 913.828C433.137 913.828 432.133 913.376 431.471 912.508C430.343 911.024 430.628 908.915 432.107 907.787C436.207 904.662 440.453 901.937 444.728 899.697C446.376 898.838 448.411 899.472 449.274 901.121C450.137 902.77 449.501 904.801 447.854 905.669C443.913 907.735 439.989 910.243 436.19 913.142C435.581 913.602 434.863 913.828 434.151 913.828ZM600.752 917.456C599.244 917.456 597.87 916.432 597.488 914.904C597.036 913.099 598.133 911.267 599.936 910.816C604.635 909.644 608.898 908.03 612.607 906.016C614.242 905.131 616.286 905.738 617.172 907.379C618.058 909.011 617.45 911.059 615.815 911.944C611.61 914.218 606.818 916.041 601.572 917.352C601.298 917.421 601.023 917.456 600.752 917.456ZM557.712 918.671C557.57 918.671 557.426 918.662 557.281 918.636C552.613 918.046 547.742 917.248 542.805 916.267C540.981 915.902 539.795 914.132 540.156 912.309C540.518 910.486 542.29 909.297 544.114 909.662C548.902 910.608 553.619 911.38 558.135 911.962C559.98 912.196 561.285 913.88 561.049 915.729C560.832 917.43 559.382 918.671 557.712 918.671ZM577.62 920.016C575.773 920.016 573.866 919.973 571.951 919.904C570.092 919.825 568.646 918.254 568.722 916.397C568.797 914.54 570.364 913.099 572.223 913.168C577.14 913.368 581.871 913.298 586.254 912.96C588.109 912.821 589.727 914.21 589.87 916.058C590.013 917.916 588.625 919.539 586.77 919.678C583.844 919.904 580.765 920.016 577.62 920.016ZM413.863 934.268C413.148 934.268 412.428 934.043 411.816 933.574C410.341 932.437 410.061 930.328 411.193 928.852C414.227 924.894 417.506 921.119 420.938 917.647C422.245 916.319 424.376 916.31 425.7 917.612C427.024 918.923 427.037 921.058 425.73 922.377C422.495 925.658 419.402 929.208 416.538 932.949C415.876 933.808 414.875 934.268 413.863 934.268ZM399.461 959.196C399.05 959.196 398.633 959.127 398.229 958.962C396.498 958.285 395.647 956.332 396.326 954.596C398.047 950.222 400.26 945.708 402.903 941.177C403.841 939.572 405.903 939.025 407.509 939.962C409.116 940.9 409.658 942.965 408.721 944.571C406.251 948.807 404.189 953.008 402.596 957.061C402.074 958.389 400.804 959.196 399.461 959.196Z" fill="white"/>
<path d="M393.82 946.663L402.246 960.351L330.327 1009.81L393.82 946.663Z" fill="#BDCDFF"/>
<path d="M409.739 976.79L405.432 992.535L333.526 1007.52L409.739 976.79Z" fill="#BDCDFF"/>
<path d="M330.327 1009.81L451.761 967.919L409.655 953.286L330.327 1009.81Z" fill="white"/>
<path d="M393.82 946.663L330.327 1009.81L367.353 935.605L393.82 946.663Z" fill="white"/>
<path d="M1587.92 537.626C1586.08 537.626 1584.51 536.229 1584.33 534.363C1584.15 532.375 1585.59 530.613 1587.58 530.422C1592.74 529.927 1598.03 529.632 1603.32 529.537C1605.33 529.502 1606.96 531.09 1607 533.087C1607.03 535.083 1605.45 536.723 1603.45 536.767C1598.35 536.854 1593.24 537.14 1588.27 537.609C1588.16 537.626 1588.04 537.626 1587.92 537.626ZM1634.29 538.442C1634.14 538.442 1633.99 538.433 1633.85 538.416C1628.78 537.782 1623.67 537.331 1618.66 537.053C1616.68 536.94 1615.15 535.239 1615.25 533.243C1615.37 531.255 1617.08 529.728 1619.06 529.832C1624.23 530.118 1629.51 530.596 1634.73 531.238C1636.71 531.49 1638.12 533.295 1637.87 535.274C1637.65 537.097 1636.08 538.442 1634.29 538.442ZM1557.49 543.129C1555.89 543.129 1554.44 542.07 1554 540.464C1553.48 538.537 1554.62 536.55 1556.54 536.029C1561.54 534.666 1566.73 533.495 1571.95 532.557C1573.91 532.201 1575.8 533.512 1576.14 535.474C1576.5 537.435 1575.19 539.319 1573.23 539.666C1568.22 540.568 1563.24 541.688 1558.44 542.999C1558.12 543.086 1557.8 543.129 1557.49 543.129ZM1664.69 544.231C1664.4 544.231 1664.09 544.197 1663.79 544.118C1658.86 542.851 1653.85 541.732 1648.9 540.785C1646.94 540.412 1645.66 538.52 1646.03 536.558C1646.4 534.597 1648.3 533.312 1650.26 533.685C1655.35 534.658 1660.51 535.812 1665.59 537.123C1667.52 537.617 1668.69 539.588 1668.19 541.523C1667.77 543.146 1666.31 544.231 1664.69 544.231ZM1694.14 553.744C1693.71 553.744 1693.27 553.666 1692.83 553.492C1688.1 551.652 1683.26 549.925 1678.45 548.371C1676.55 547.755 1675.51 545.716 1676.12 543.823C1676.74 541.923 1678.77 540.881 1680.67 541.497C1685.62 543.094 1690.59 544.865 1695.46 546.766C1697.32 547.495 1698.24 549.587 1697.51 551.444C1696.95 552.868 1695.59 553.744 1694.14 553.744ZM1528.56 554.039C1527.22 554.039 1525.92 553.284 1525.3 551.982C1524.44 550.186 1525.19 548.024 1526.99 547.165C1528.62 546.384 1530.26 545.62 1531.89 544.882C1535.01 543.459 1538.24 542.122 1541.48 540.898C1543.35 540.195 1545.44 541.133 1546.15 543.007C1546.85 544.874 1545.9 546.957 1544.04 547.66C1540.94 548.831 1537.86 550.107 1534.88 551.461C1533.29 552.182 1531.7 552.92 1530.11 553.683C1529.61 553.918 1529.08 554.039 1528.56 554.039ZM1722.26 566.686C1721.68 566.686 1721.1 566.555 1720.56 566.26C1716.09 563.873 1711.49 561.591 1706.88 559.473C1705.07 558.631 1704.28 556.487 1705.11 554.673C1705.95 552.868 1708.1 552.069 1709.9 552.902C1714.64 555.09 1719.37 557.433 1723.97 559.889C1725.73 560.827 1726.39 563.023 1725.45 564.776C1724.8 566 1723.55 566.686 1722.26 566.686ZM1501.38 568.855C1500.15 568.855 1498.95 568.231 1498.28 567.111C1497.24 565.401 1497.79 563.179 1499.5 562.146C1504.12 559.36 1508.68 556.73 1513.05 554.334C1514.8 553.38 1517 554.022 1517.95 555.767C1518.91 557.52 1518.27 559.716 1516.52 560.671C1512.23 563.023 1507.76 565.592 1503.23 568.335C1502.65 568.682 1502.01 568.855 1501.38 568.855ZM1748.63 582.89C1747.92 582.89 1747.19 582.673 1746.57 582.231C1742.44 579.34 1738.14 576.52 1733.81 573.855C1732.11 572.813 1731.57 570.591 1732.62 568.89C1733.66 567.189 1735.88 566.651 1737.58 567.701C1742.05 570.435 1746.46 573.334 1750.72 576.32C1752.35 577.466 1752.74 579.714 1751.59 581.345C1750.89 582.352 1749.77 582.89 1748.63 582.89ZM1475.38 585.703C1474.23 585.703 1473.1 585.156 1472.39 584.132C1471.27 582.491 1471.68 580.243 1473.33 579.115C1477.81 576.042 1482.16 573.126 1486.28 570.444C1487.96 569.359 1490.19 569.836 1491.28 571.511C1492.37 573.178 1491.89 575.417 1490.22 576.502C1486.15 579.15 1481.85 582.031 1477.42 585.069C1476.8 585.503 1476.08 585.703 1475.38 585.703ZM1772.81 602.22C1771.94 602.22 1771.06 601.908 1770.38 601.274C1766.65 597.889 1762.76 594.556 1758.77 591.379C1757.22 590.129 1756.97 587.855 1758.21 586.302C1759.46 584.739 1761.73 584.487 1763.28 585.737C1767.39 589.01 1771.41 592.447 1775.24 595.936C1776.71 597.281 1776.82 599.564 1775.47 601.04C1774.76 601.821 1773.79 602.22 1772.81 602.22ZM1450.15 603.661C1449.03 603.661 1447.94 603.14 1447.22 602.177C1446.05 600.562 1446.4 598.305 1448.01 597.125C1452.6 593.775 1456.71 590.798 1460.59 588.037C1462.21 586.883 1464.47 587.256 1465.62 588.879C1466.79 590.502 1466.41 592.759 1464.78 593.922C1460.93 596.665 1456.84 599.625 1452.28 602.958C1451.63 603.426 1450.89 603.661 1450.15 603.661ZM1425.21 622.044C1424.1 622.044 1423.01 621.541 1422.3 620.577C1421.12 618.972 1421.45 616.715 1423.06 615.526L1435.52 606.317C1437.12 605.128 1439.39 605.466 1440.58 607.072C1441.76 608.678 1441.42 610.934 1439.81 612.123L1427.36 621.341C1426.71 621.819 1425.96 622.044 1425.21 622.044ZM1794.2 624.579C1793.17 624.579 1792.14 624.127 1791.42 623.268C1788.21 619.414 1784.8 615.595 1781.28 611.915C1779.9 610.474 1779.95 608.183 1781.39 606.812C1782.83 605.423 1785.11 605.475 1786.49 606.916C1790.14 610.717 1793.66 614.667 1796.98 618.651C1798.25 620.187 1798.05 622.461 1796.51 623.737C1795.83 624.301 1795.02 624.579 1794.2 624.579ZM1400.15 640.289C1399.02 640.289 1397.91 639.759 1397.2 638.77C1396.05 637.147 1396.43 634.89 1398.05 633.736C1401.92 630.976 1406.03 628.025 1410.59 624.7C1412.2 623.52 1414.46 623.876 1415.63 625.481C1416.81 627.096 1416.45 629.361 1414.84 630.533C1410.27 633.875 1406.14 636.852 1402.25 639.621C1401.6 640.072 1400.87 640.289 1400.15 640.289ZM1812.14 649.776C1810.92 649.776 1809.72 649.151 1809.04 648.023C1806.47 643.735 1803.66 639.456 1800.7 635.316C1799.55 633.692 1799.93 631.436 1801.55 630.281C1803.18 629.118 1805.43 629.5 1806.59 631.123C1809.65 635.42 1812.56 639.846 1815.23 644.299C1816.27 646.009 1815.71 648.231 1814 649.255C1813.42 649.611 1812.78 649.776 1812.14 649.776ZM1374.56 657.744C1373.37 657.744 1372.21 657.162 1371.52 656.086C1370.44 654.419 1370.91 652.18 1372.59 651.095C1376.67 648.456 1380.98 645.592 1385.41 642.563C1387.06 641.435 1389.3 641.86 1390.42 643.509C1391.55 645.15 1391.14 647.398 1389.49 648.526C1385.01 651.59 1380.64 654.498 1376.51 657.162C1375.9 657.553 1375.23 657.744 1374.56 657.744ZM984.017 660.894C982.177 660.894 980.597 659.497 980.424 657.631C980.233 655.643 981.691 653.873 983.678 653.69C988.765 653.204 994.042 652.883 999.371 652.744C1001.37 652.692 1003.03 654.263 1003.09 656.259C1003.14 658.247 1001.57 659.914 999.571 659.966C994.398 660.105 989.286 660.417 984.364 660.886C984.243 660.894 984.13 660.894 984.017 660.894ZM1030.42 660.903C1030.32 660.903 1030.22 660.894 1030.12 660.894C1024.9 660.469 1019.76 660.174 1014.85 660.018C1012.85 659.948 1011.29 658.282 1011.35 656.286C1011.41 654.298 1013.08 652.727 1015.07 652.796C1020.11 652.953 1025.37 653.256 1030.71 653.69C1032.7 653.855 1034.18 655.591 1034.02 657.587C1033.86 659.471 1032.28 660.903 1030.42 660.903ZM1061.15 664.618C1060.97 664.618 1060.79 664.601 1060.6 664.575C1055.35 663.759 1050.23 663.047 1045.38 662.457C1043.39 662.214 1041.99 660.408 1042.23 658.429C1042.47 656.45 1044.28 655.044 1046.26 655.279C1051.18 655.886 1056.38 656.607 1061.71 657.431C1063.68 657.735 1065.02 659.584 1064.72 661.554C1064.44 663.342 1062.91 664.618 1061.15 664.618ZM953.569 666.198C951.963 666.198 950.496 665.121 950.071 663.49C949.567 661.563 950.731 659.593 952.657 659.089C957.674 657.787 962.856 656.667 968.064 655.765C970.034 655.426 971.9 656.746 972.247 658.716C972.586 660.677 971.267 662.544 969.296 662.891C964.279 663.759 959.297 664.826 954.48 666.085C954.176 666.163 953.864 666.198 953.569 666.198ZM1091.64 670.069C1091.41 670.069 1091.17 670.043 1090.93 669.999C1085.51 668.923 1080.55 667.986 1075.78 667.126C1073.82 666.771 1072.51 664.896 1072.86 662.925C1073.22 660.964 1075.1 659.662 1077.06 660.009C1081.88 660.877 1086.87 661.823 1092.34 662.908C1094.29 663.299 1095.57 665.191 1095.18 667.152C1094.84 668.871 1093.33 670.069 1091.64 670.069ZM1347.96 673.619C1346.68 673.619 1345.44 672.933 1344.79 671.727C1343.83 669.973 1344.48 667.777 1346.24 666.831C1350.53 664.505 1355.01 661.945 1359.55 659.228C1361.26 658.204 1363.48 658.759 1364.51 660.469C1365.53 662.179 1364.98 664.401 1363.27 665.425C1358.64 668.194 1354.07 670.807 1349.68 673.185C1349.14 673.48 1348.54 673.619 1347.96 673.619ZM1121.95 676.379C1121.7 676.379 1121.45 676.353 1121.2 676.301C1116.13 675.207 1111.09 674.131 1106.07 673.081C1104.12 672.673 1102.86 670.763 1103.27 668.81C1103.67 666.857 1105.59 665.599 1107.55 666.015C1112.57 667.066 1117.63 668.142 1122.71 669.236C1124.66 669.652 1125.9 671.57 1125.49 673.523C1125.12 675.216 1123.62 676.379 1121.95 676.379ZM924.44 676.552C923.068 676.552 921.767 675.771 921.159 674.435C920.326 672.629 921.124 670.477 922.938 669.652C927.712 667.465 932.633 665.469 937.564 663.715C939.447 663.047 941.513 664.028 942.181 665.911C942.849 667.786 941.869 669.852 939.985 670.52C935.246 672.204 930.524 674.122 925.941 676.223C925.455 676.44 924.943 676.552 924.44 676.552ZM1152.25 682.828C1152.01 682.828 1151.76 682.802 1151.52 682.758C1146.43 681.7 1141.37 680.623 1136.34 679.547C1134.39 679.13 1133.14 677.212 1133.56 675.259C1133.98 673.306 1135.9 672.065 1137.85 672.482C1142.87 673.558 1147.91 674.626 1152.98 675.676C1154.94 676.084 1156.2 678.002 1155.79 679.955C1155.43 681.656 1153.93 682.828 1152.25 682.828ZM1319.95 686.777C1318.5 686.777 1317.14 685.901 1316.59 684.477C1315.86 682.62 1316.78 680.519 1318.63 679.799C1323.17 678.019 1327.88 675.98 1332.61 673.749C1334.41 672.898 1336.57 673.671 1337.43 675.468C1338.28 677.273 1337.5 679.425 1335.7 680.285C1330.81 682.585 1325.96 684.685 1321.26 686.525C1320.83 686.69 1320.39 686.777 1319.95 686.777ZM1182.65 688.782C1182.44 688.782 1182.23 688.765 1182.01 688.73C1177.12 687.845 1172.12 686.899 1166.73 685.84C1164.78 685.458 1163.5 683.557 1163.89 681.595C1164.27 679.643 1166.17 678.367 1168.13 678.749C1173.48 679.799 1178.44 680.736 1183.29 681.613C1185.25 681.969 1186.56 683.852 1186.21 685.814C1185.89 687.558 1184.37 688.782 1182.65 688.782ZM897.533 691.768C896.379 691.768 895.242 691.212 894.538 690.188C893.419 688.53 893.853 686.291 895.502 685.163C899.876 682.194 904.381 679.391 908.886 676.839C910.622 675.85 912.826 676.466 913.807 678.202C914.797 679.938 914.18 682.142 912.445 683.123C908.113 685.579 903.774 688.279 899.564 691.143C898.939 691.568 898.236 691.768 897.533 691.768ZM1213.25 693.66C1213.08 693.66 1212.92 693.651 1212.75 693.625C1207.79 692.957 1202.61 692.185 1197.35 691.343C1195.38 691.03 1194.04 689.181 1194.35 687.211C1194.66 685.241 1196.52 683.895 1198.49 684.208C1203.68 685.041 1208.81 685.805 1213.72 686.465C1215.7 686.734 1217.08 688.548 1216.82 690.527C1216.57 692.341 1215.03 693.66 1213.25 693.66ZM1290.3 695.518C1288.61 695.518 1287.09 694.311 1286.76 692.584C1286.39 690.622 1287.67 688.73 1289.63 688.357C1294.42 687.437 1299.35 686.222 1304.3 684.746C1306.21 684.182 1308.22 685.267 1308.79 687.185C1309.36 689.095 1308.27 691.108 1306.36 691.672C1301.19 693.217 1296.02 694.485 1290.99 695.448C1290.76 695.492 1290.53 695.518 1290.3 695.518ZM1244.04 696.906C1243.96 696.906 1243.87 696.898 1243.78 696.898C1238.71 696.524 1233.49 696.056 1228.24 695.5C1226.25 695.283 1224.81 693.504 1225.02 691.525C1225.23 689.537 1227.01 688.105 1229 688.313C1234.17 688.86 1239.32 689.32 1244.3 689.685C1246.3 689.832 1247.79 691.568 1247.64 693.556C1247.51 695.457 1245.93 696.906 1244.04 696.906ZM1265.95 697.904C1264.77 697.904 1263.58 697.887 1262.4 697.852C1261.39 697.826 1260.39 697.792 1259.38 697.757C1257.38 697.679 1255.82 696.004 1255.9 694.007C1255.97 692.02 1257.65 690.457 1259.64 690.535C1260.63 690.57 1261.62 690.605 1262.61 690.631C1263.73 690.666 1264.84 690.674 1265.95 690.674C1268.84 690.674 1271.79 690.57 1274.72 690.353C1276.71 690.206 1278.44 691.699 1278.59 693.686C1278.73 695.674 1277.24 697.41 1275.25 697.557C1272.15 697.783 1269.01 697.904 1265.95 697.904ZM873.308 710.993C872.327 710.993 871.355 710.603 870.643 709.822C869.298 708.346 869.393 706.063 870.869 704.718C874.792 701.133 878.811 697.696 882.821 694.511C884.383 693.261 886.657 693.521 887.899 695.084C889.14 696.646 888.888 698.92 887.326 700.161C883.437 703.251 879.54 706.584 875.747 710.047C875.053 710.681 874.176 710.993 873.308 710.993ZM851.757 733.196C850.918 733.196 850.074 732.901 849.39 732.311C847.884 731 847.723 728.717 849.032 727.216C852.512 723.206 856.07 719.317 859.62 715.654C861.009 714.222 863.292 714.188 864.724 715.576C866.165 716.965 866.199 719.256 864.811 720.689C861.356 724.256 857.876 728.04 854.491 731.946C853.77 732.771 852.772 733.196 851.757 733.196ZM834.285 755.147C833.544 755.147 832.797 754.921 832.153 754.452C830.543 753.272 830.194 751.015 831.373 749.401C833.907 745.946 836.494 742.535 839.063 739.272C840.297 737.709 842.568 737.44 844.136 738.673C845.703 739.905 845.973 742.179 844.739 743.742C842.223 746.945 839.687 750.277 837.203 753.671C836.495 754.635 835.398 755.147 834.285 755.147Z" fill="white"/>
<path d="M1815.22 624.9L1803.52 644.064L1904.24 712.772L1815.22 624.9Z" fill="#BDCDFF"/>
<path d="M1793.14 667.057L1799.24 689.034L1899.76 709.613L1793.14 667.057Z" fill="#BDCDFF"/>
<path d="M1904.24 712.772L1734.39 654.888L1793.14 634.222L1904.24 712.772Z" fill="white"/>
<path d="M1815.22 624.9L1904.24 712.772L1852.14 609.311L1815.22 624.9Z" fill="white"/>
<path d="M2059.48 1774.92C2059.48 1804.59 1633.91 1828.65 1108.94 1828.65C583.974 1828.65 158.403 1804.59 158.403 1774.92C158.403 1745.24 583.974 1721.18 1108.94 1721.18C1633.91 1721.18 2059.48 1745.24 2059.48 1774.92Z" fill="#95A6DB"/>
<path d="M1554.9 1215.07C1554.9 1336.94 1456.11 1435.74 1334.24 1435.74C1212.37 1435.74 1113.58 1336.94 1113.58 1215.07C1113.58 1093.21 1212.37 994.41 1334.24 994.41C1456.11 994.41 1554.9 1093.21 1554.9 1215.07Z" fill="#F5A3B7"/>
<path d="M1493.71 1202.99L1342.58 1104.48C1333.93 1098.83 1322.47 1105.04 1322.47 1115.37V1314.8C1322.47 1325.13 1333.93 1331.34 1342.58 1325.69L1493.71 1227.18C1502.44 1221.49 1502.44 1208.68 1493.71 1202.99Z" fill="white"/>
<path d="M1244.61 1102.32H1278.84C1284.01 1102.32 1288.2 1106.52 1288.2 1111.69V1317.82C1288.2 1323 1284.01 1327.19 1278.84 1327.19H1244.61C1239.43 1327.19 1235.24 1323 1235.24 1317.82V1111.69C1235.24 1106.52 1239.43 1102.32 1244.61 1102.32Z" fill="white"/>
<path d="M868.126 1767.28H597.462C588.306 1767.28 583.112 1756.8 588.657 1749.51L601.14 1733.12C610.532 1720.78 627.825 1713.19 646.531 1713.19H816.63C833.915 1713.19 850.092 1719.68 859.881 1730.54L876.346 1748.81C882.769 1755.93 877.717 1767.28 868.126 1767.28Z" fill="#4D6AC4"/>
<path d="M763.312 1745.35H704.818V1575.97H763.312V1745.35Z" fill="#4D6AC4"/>
<path d="M885.216 658.681V1108.17H585.67V666.267C585.54 663.706 585.475 661.129 585.475 658.551C585.475 575.79 652.571 508.705 735.326 508.705C818.081 508.705 885.164 575.79 885.164 658.551V658.681H885.216Z" fill="#3C3F75"/>
<path d="M885.104 1098.69H585.667V1078.4H885.104V1098.69Z" fill="#323461"/>
<path d="M912.384 1077.49V1383.96H912.219C912.219 1384.11 912.219 1384.27 912.184 1384.45C908.99 1480.64 829.976 1557.63 733.007 1557.63C636.039 1557.63 557.057 1480.64 553.858 1384.45C553.829 1384.27 553.829 1384.11 553.829 1383.96H553.339V1293.96V1077.49H532.267V1373.79C532.094 1377.22 532.009 1380.67 532.009 1384.13C532.009 1495.14 622.001 1585.13 733.007 1585.13C844.014 1585.13 934.005 1495.14 934.005 1384.13V1383.96H934.066V1077.49H912.384Z" fill="#627CCC"/>
<path d="M900.692 1098.32V1375.22H900.64V1375.37C900.64 1438.83 865.384 1494.04 813.389 1522.5C789.528 1535.57 762.138 1543 733.008 1543C640.431 1543 565.384 1467.95 565.384 1375.37C565.384 1372.48 565.45 1369.6 565.599 1366.73V1098.32H900.692Z" fill="#627CCC"/>
<path d="M913.512 1090.88H942.858V1010.09H913.512C897.542 1010.09 884.6 1023.03 884.6 1039V1061.96C884.6 1077.93 897.542 1090.88 913.512 1090.88Z" fill="#627CCC"/>
<path d="M556.741 1090.88H527.4V1010.09H556.741C572.711 1010.09 585.657 1023.03 585.657 1039V1061.96C585.657 1077.93 572.711 1090.88 556.741 1090.88Z" fill="#627CCC"/>
<path d="M450.653 1000.3V1093.85C450.653 1094.07 450.653 1094.29 450.672 1094.49C450.773 1098.32 451.851 1101.9 453.667 1105C457.501 1111.57 464.616 1115.97 472.763 1115.97H532.301V978.187H472.763C464.616 978.187 457.501 982.597 453.667 989.167C451.851 992.257 450.773 995.842 450.672 999.67C450.653 999.878 450.653 1000.09 450.653 1000.3Z" fill="#3C3F75"/>
<path d="M450.672 999.669H532.338V989.167H453.667C451.851 992.257 450.773 995.842 450.672 999.669Z" fill="#323461"/>
<path d="M450.859 1020.74H532.343V1010.22H450.859V1020.74Z" fill="#323461"/>
<path d="M450.859 1041.8H532.343V1031.29H450.859V1041.8Z" fill="#323461"/>
<path d="M450.859 1062.87H532.343V1052.36H450.859V1062.87Z" fill="#323461"/>
<path d="M450.859 1083.93H532.343V1073.43H450.859V1083.93Z" fill="#323461"/>
<path d="M450.672 1094.49C450.773 1098.32 451.851 1101.9 453.667 1105H532.338V1094.49H450.672Z" fill="#323461"/>
<path d="M760.933 1156.39C760.933 1171.8 748.443 1184.29 733.036 1184.29C717.63 1184.29 705.141 1171.8 705.141 1156.39C705.141 1140.98 717.63 1128.49 733.036 1128.49C748.443 1128.49 760.933 1140.98 760.933 1156.39Z" fill="#323461"/>
<path d="M815.148 1366.25H565.579V1354.62H815.148V1366.25Z" fill="#7991DB"/>
<path d="M885.216 893.795V1098.32H817.252C817.579 970.61 882.691 895.297 882.691 895.297L885.216 893.795Z" fill="#323461"/>
<path d="M900.692 1098.32V1375.22H900.64V1375.37C900.64 1438.82 865.383 1494.04 813.389 1522.5C814.86 1399.74 817.103 1199.57 817.243 1108.17C817.252 1105.08 817.252 1102.12 817.252 1099.29V1098.32H900.692Z" fill="#4D6AC4"/>
<path d="M900.545 1366.25H815.297V1354.62H900.545V1366.25Z" fill="#627CCC"/>
<path d="M649.38 646.251L638.992 635.784L723.599 551.817L733.987 562.284L649.38 646.251Z" fill="#323461"/>
<path d="M645.588 713.849L635.161 703.416L786.451 552.129L796.878 562.554L645.588 713.849Z" fill="#323461"/>
<path d="M763.734 638.848L680.527 561.443L690.571 550.645L773.778 628.05L763.734 638.848Z" fill="#323461"/>
<path d="M746.279 703.633L642.754 605.909L652.876 595.189L756.402 692.913L746.279 703.633Z" fill="#323461"/>
<path d="M722.004 764.503L625.179 670.051L635.476 659.497L732.301 753.949L722.004 764.503Z" fill="#323461"/>
<path d="M990.674 490.704L898.878 569.983C893.141 574.939 884.461 574.306 879.505 568.569C874.549 562.823 875.183 554.152 880.929 549.196L972.725 469.916C978.462 464.96 987.133 465.593 992.089 471.33C997.045 477.076 996.412 485.747 990.674 490.704Z" fill="#F5A3B7"/>
<path d="M1018.28 581.805L926.254 620.1C919.978 622.704 912.783 619.735 910.179 613.469L909.502 611.854C906.898 605.588 909.866 598.392 916.133 595.78L1008.15 557.485C1014.42 554.881 1021.62 557.85 1024.23 564.116L1024.9 565.731C1027.51 571.997 1024.54 579.193 1018.28 581.805Z" fill="#F5A3B7"/>
<path d="M515.9 739.584L413.799 731.651C406.844 731.113 401.645 725.037 402.184 718.085L402.323 716.288C402.864 709.336 408.94 704.136 415.895 704.674L517.995 712.608C524.95 713.146 530.15 719.222 529.61 726.174L529.471 727.971C528.932 734.923 522.855 740.122 515.9 739.584Z" fill="#F5A3B7"/>
<path d="M527.461 801.331L447.995 834.478C442.71 836.683 440.212 842.75 442.417 848.036L442.749 848.826C444.952 854.112 451.023 856.612 456.308 854.407L535.775 821.259C541.059 819.055 543.557 812.988 541.352 807.702L541.021 806.903C538.816 801.626 532.745 799.126 527.461 801.331Z" fill="#F5A3B7"/>
<path d="M523.065 781.845L391.35 802.937C383.973 804.126 377.033 799.1 375.851 791.723C374.67 784.345 379.693 777.401 387.07 776.221L518.786 755.121C526.164 753.94 533.103 758.966 534.285 766.343C535.466 773.721 530.444 780.665 523.065 781.845Z" fill="#F5A3B7"/>
<path d="M1823.43 1122.33H1739.28C1717.55 600.241 960.729 599.572 938.709 1122.33H854.551C879.974 488.499 1798.23 488.959 1823.43 1122.33Z" fill="#95A6DB"/>
<path d="M1739.4 1121.54C1614.19 1121.65 1634.33 887.034 1468.37 809.177C1338.03 740.139 1163.23 792.278 1092.02 921.448C1060.7 994.141 1011.3 1120.43 938.822 1121.54C960.842 598.791 1717.67 599.451 1739.4 1121.54Z" fill="#494C7F"/>
<path d="M1823.43 1398.36H1739.28V1121.88H1823.43V1398.36Z" fill="#95A6DB"/>
<path d="M1739.1 1259.42V1410.89H1823.26V1349.24C1814.61 1344.09 1805.31 1340.3 1795.56 1338.05L1798.11 1325.55C1803.97 1296.89 1785.5 1268.92 1756.84 1263.05L1739.1 1259.42Z" fill="#8397D6"/>
<path d="M1714.68 1704.34L1717.8 1704.98C1748.31 1711.23 1780.71 1702.17 1808.15 1679.72L1830.88 1661.11L1871.62 1470.55L1857.71 1440.8C1841.64 1406.38 1814.17 1383.11 1781.82 1376.49L1714.68 1704.34Z" fill="#BBC8F0"/>
<path d="M1786.74 1364.52L1714.07 1719.34C1708.2 1747.99 1680.21 1766.47 1651.56 1760.61L1560.27 1741.91C1531.62 1736.04 1513.15 1708.05 1519.02 1679.4L1591.69 1324.57C1597.56 1295.92 1625.53 1277.46 1654.18 1283.33L1745.47 1302.03C1774.13 1307.89 1792.6 1335.87 1786.74 1364.52Z" fill="#494C7F"/>
<path d="M1700.65 1292.85L1606.74 1751.43L1560.27 1741.91C1531.62 1736.04 1513.15 1708.05 1519.02 1679.4L1591.69 1324.58C1597.56 1295.92 1625.53 1277.46 1654.18 1283.33L1700.65 1292.85Z" fill="#3C3F75"/>
<path d="M938.666 1121.63V1398.12H854.508V1121.63H938.666Z" fill="#95A6DB"/>
<path d="M938.666 1259.42V1410.89H854.508V1349.24C863.153 1344.09 872.449 1340.3 882.213 1338.05L879.653 1325.55C873.785 1296.89 892.273 1268.92 920.916 1263.05L938.666 1259.42Z" fill="#8397D6"/>
<path d="M963.255 1704.09L960.131 1704.73C929.622 1710.98 897.221 1701.92 869.793 1679.48L847.052 1660.87L806.322 1470.31L820.223 1440.55C836.303 1406.14 863.76 1382.87 896.118 1376.24L963.255 1704.09Z" fill="#BBC8F0"/>
<path d="M891.197 1364.27L963.863 1719.1C969.73 1747.75 997.722 1766.23 1026.37 1760.36L1117.67 1741.67C1146.33 1735.8 1164.78 1707.81 1158.91 1679.16L1086.25 1324.32C1080.38 1295.67 1052.41 1277.22 1023.76 1283.09L932.46 1301.78C903.808 1307.65 885.329 1335.62 891.197 1364.27Z" fill="#494C7F"/>
<path d="M977.281 1292.6L1071.2 1751.18L1117.67 1741.67C1146.33 1735.8 1164.78 1707.81 1158.91 1679.16L1086.25 1324.32C1080.38 1295.67 1052.41 1277.22 1023.76 1283.09L977.281 1292.6Z" fill="#3C3F75"/>
<path d="M1922.59 1743.61C1931.18 1779.65 1961.85 1759.82 1955.43 1782.61C1954.97 1784.29 1953.37 1785.41 1951.62 1785.47L1933.61 1786.17C1931.87 1786.24 1930.16 1785.73 1928.72 1784.75C1919.21 1778.24 1912.77 1769.08 1892.24 1767.97C1892.39 1759.2 1892 1746.69 1894.89 1742.21L1922.59 1743.61Z" fill="#8A284C"/>
<path d="M1875.11 1490.68C1875.11 1490.68 1927.5 1570.59 1934.74 1595.44C1941.97 1620.3 1926.84 1662.42 1929.58 1747.31C1913.2 1751.55 1891.37 1747.9 1891.37 1747.9C1891.37 1747.9 1878.23 1641.43 1893.69 1616.29C1870.52 1580.95 1812.35 1503.79 1812.35 1503.79L1875.11 1490.68Z" fill="#4364CC"/>
<path d="M1846.05 1755.22C1859.39 1773.37 1892.66 1762.65 1891.33 1787C1840.89 1786.19 1819.93 1786.31 1819.93 1786.31C1820.04 1780.71 1821.17 1767.44 1822.38 1762.25L1846.05 1755.22Z" fill="#8A284C"/>
<path d="M1861.69 1474.52C1861.69 1474.52 1878.39 1604.89 1874.53 1630.5C1870.68 1656.09 1858.73 1676.13 1858.31 1761.06C1841.78 1764.69 1816.53 1767.97 1816.53 1767.97C1816.53 1767.97 1805.88 1665.54 1827.78 1637.33C1821.58 1595.54 1792.01 1490.41 1792.01 1490.41L1861.69 1474.52Z" fill="#768FDB"/>
<path d="M1947.28 1417.13L1967.65 1394.29C1968.09 1393.8 1968.71 1393.51 1969.37 1393.5L1986.15 1393.4C1986.63 1393.39 1988.1 1396.04 1987.78 1396.39L1973.42 1409.17C1973.35 1409.24 1973.26 1409.29 1973.18 1409.32L1948.53 1418.46C1948 1418.62 1946.9 1417.54 1947.28 1417.13Z" fill="#C4204A"/>
<path d="M1948.83 1418.66L1968.24 1397.13C1968.68 1396.63 1969.3 1396.35 1969.97 1396.34L1987.26 1396.03C1987.74 1396.02 1987.99 1396.58 1987.67 1396.94L1974.01 1412.01C1973.94 1412.07 1973.86 1412.13 1973.77 1412.15L1949.39 1419.55C1948.86 1419.7 1948.46 1419.07 1948.83 1418.66Z" fill="#E62552"/>
<path d="M1910.49 1438.3L1924.53 1431.42C1924.53 1431.42 1938.36 1417.41 1940.42 1414.28C1943.5 1412.73 1949.32 1408.8 1950.64 1408.65C1951.95 1408.5 1954.63 1408.91 1954.63 1408.91L1948.14 1416.29C1948.14 1416.29 1951.22 1416.91 1955.16 1414.41C1959.09 1411.91 1966.05 1405.2 1969.45 1406.5C1970.66 1407.57 1970.66 1407.57 1970.66 1407.57C1970.66 1407.57 1972.81 1405.27 1974.84 1406.13C1976.86 1406.98 1972.84 1417.09 1961.39 1427.81C1960.63 1430.67 1956.87 1435.69 1956.87 1435.69L1933.73 1443.82L1910.49 1438.3Z" fill="#F37A50"/>
<path d="M1971.4 1400.37C1970.57 1401.2 1969.39 1401.35 1968.76 1400.71C1968.12 1400.08 1968.27 1398.9 1969.1 1398.07C1969.91 1397.25 1971.1 1397.1 1971.74 1397.74C1972.37 1398.37 1972.22 1399.55 1971.4 1400.37Z" fill="#C4204A"/>
<path d="M1845.14 1335.1C1849.31 1340.5 1816.69 1346.37 1812.32 1335.16C1807.95 1323.94 1815.46 1293.09 1815.46 1293.09L1845.19 1299.4C1845.19 1299.4 1839.73 1328.08 1845.14 1335.1Z" fill="#F37A50"/>
<path d="M1808.95 1267.91C1806.45 1291.77 1819.61 1312.7 1838.35 1314.67C1857.09 1316.63 1874.31 1298.89 1876.81 1275.03C1879.31 1251.17 1866.16 1230.24 1847.42 1228.27C1828.68 1226.3 1811.46 1244.05 1808.95 1267.91Z" fill="#F37A50"/>
<path d="M1865.74 1282.05C1866.4 1283.9 1868.44 1284.86 1870.28 1284.2C1872.13 1283.54 1873.09 1281.5 1872.42 1279.66C1871.76 1277.81 1869.73 1276.85 1867.88 1277.51C1866.03 1278.17 1865.08 1280.2 1865.74 1282.05Z" fill="black"/>
<path d="M1842.45 1276.97C1843.16 1278.96 1845.37 1280.01 1847.36 1279.28C1849.37 1278.57 1850.4 1276.37 1849.69 1274.37C1848.97 1272.38 1846.77 1271.33 1844.77 1272.05C1842.77 1272.77 1841.73 1274.97 1842.45 1276.97Z" fill="black"/>
<path d="M1858.96 1281.32C1859.71 1286.91 1860.76 1293.79 1860.76 1293.79C1860.76 1293.79 1857.09 1297.66 1850.99 1294.98C1854.04 1295.08 1857.35 1294.5 1857.86 1290.61C1858.36 1286.71 1858.96 1281.32 1858.96 1281.32Z" fill="#DE623C"/>
<path d="M1866.78 1273.95C1867.18 1274.18 1867.69 1274.22 1868.13 1273.97C1868.17 1273.96 1869.65 1273.2 1871.04 1273.73C1872.01 1274.1 1872.8 1275.06 1873.36 1276.59C1873.63 1277.29 1874.41 1277.64 1875.11 1277.38C1875.82 1277.12 1876.18 1276.33 1875.92 1275.63C1875.06 1273.33 1873.73 1271.83 1871.97 1271.17C1869.39 1270.21 1866.94 1271.52 1866.83 1271.59C1866.17 1271.94 1865.93 1272.77 1866.29 1273.43C1866.41 1273.65 1866.58 1273.83 1866.78 1273.95Z" fill="#201D40"/>
<path d="M1849.07 1270.07C1848.61 1270.15 1848.12 1270.01 1847.78 1269.65C1847.75 1269.62 1846.6 1268.42 1845.12 1268.46C1844.07 1268.49 1843.02 1269.14 1841.98 1270.39C1841.5 1270.96 1840.65 1271.05 1840.07 1270.57C1839.48 1270.08 1839.41 1269.22 1839.88 1268.65C1841.45 1266.75 1843.2 1265.77 1845.07 1265.74C1847.82 1265.67 1849.72 1267.72 1849.79 1267.82C1850.3 1268.37 1850.25 1269.23 1849.7 1269.74C1849.52 1269.91 1849.29 1270.01 1849.07 1270.07Z" fill="#201D40"/>
<path d="M1815.92 1283.06C1828.26 1272.73 1824.85 1256.93 1824.85 1256.93C1830.84 1257.33 1832.51 1259.89 1832.51 1259.89C1837.33 1254.37 1836.16 1249.16 1836.16 1249.16C1849.14 1247.74 1852.93 1256.92 1862.83 1262.33C1876.39 1269.75 1895.87 1268.79 1902.32 1251.54C1903.25 1249.04 1900.88 1246.62 1898.35 1247.47C1896.01 1248.26 1893.08 1248.63 1889.83 1247.66C1889.83 1247.66 1893.79 1245.04 1895.22 1240.35C1896.01 1237.75 1893.33 1235.51 1890.87 1236.65C1887.18 1238.34 1880.94 1239.21 1871.47 1234.65C1865.17 1231.62 1852.83 1216.9 1842.81 1216.43C1834.61 1216.04 1826.69 1220.97 1821.51 1229.68C1821.51 1229.68 1801.95 1226.53 1794.41 1246.95C1786.99 1267.02 1814.79 1298.02 1814.79 1298.02C1814.79 1298.02 1815.43 1288.26 1815.92 1283.06Z" fill="#201D40"/>
<path d="M1857.45 1304.11C1858.22 1303.6 1858.03 1302.43 1857.14 1302.21C1854.86 1301.65 1851.13 1300.66 1847.69 1299.38C1844.27 1298.08 1840.79 1296.38 1838.72 1295.31C1837.9 1294.89 1836.98 1295.65 1837.24 1296.53C1838.02 1299.25 1840.07 1303.71 1845.33 1305.68C1850.59 1307.65 1855.07 1305.64 1857.45 1304.11Z" fill="white"/>
<path d="M1824.71 1269.01C1828.72 1272.97 1829.35 1278.85 1826.11 1282.13C1822.86 1285.42 1816.98 1284.87 1812.97 1280.91C1808.95 1276.95 1808.32 1271.07 1811.56 1267.78C1814.81 1264.49 1820.69 1265.05 1824.71 1269.01Z" fill="#F37A50"/>
<path d="M1818.06 1280.54C1815.57 1280.54 1813.54 1278.58 1813.54 1276.15C1813.54 1273.73 1815.57 1271.77 1818.06 1271.77C1820.56 1271.77 1822.58 1273.73 1822.58 1276.15C1822.58 1278.58 1820.56 1280.54 1818.06 1280.54Z" fill="white"/>
<path d="M1823.18 1286.84L1822.98 1286.94C1822.08 1287.37 1821 1287 1820.56 1286.1L1817.1 1278.99C1816.66 1278.09 1817.04 1277 1817.94 1276.57L1818.14 1276.47C1819.03 1276.03 1820.12 1276.4 1820.56 1277.31L1824.02 1284.41C1824.46 1285.32 1824.09 1286.4 1823.18 1286.84Z" fill="white"/>
<path d="M1881.39 1500.25C1858.13 1505 1816.31 1513.19 1794.18 1504.56C1785.82 1492.54 1783.7 1424.59 1783.7 1424.59C1781.28 1354.64 1789.66 1344.26 1808.58 1320.83C1816.52 1324.48 1836.38 1327.59 1845.13 1327.66C1845.13 1327.66 1864.91 1355.14 1868.78 1375.09C1872.69 1395.32 1873.13 1431.3 1873.5 1451.91C1873.91 1474.79 1878.43 1485.83 1881.39 1500.25Z" fill="#E62552"/>
<path d="M1805.82 1342.06C1792.21 1368.55 1795.3 1397.88 1834.86 1455.63C1862.57 1453.22 1868 1430.12 1868 1430.12C1868 1430.12 1860.38 1401.45 1850.5 1365.39C1840.61 1329.31 1811.78 1330.47 1805.82 1342.06Z" fill="#8A284C"/>
<path d="M1926.78 1424.59L1867.46 1429.32C1867.46 1429.32 1842.02 1424.69 1834.86 1455.63C1847.6 1465.54 1880.46 1469.26 1934.38 1449.25C1928.68 1441.48 1926.78 1424.59 1926.78 1424.59Z" fill="#8A284C"/>
<path d="M540.407 1437.35C537.844 1437.35 534.862 1437.07 531.395 1436.41C511.23 1435.15 509.409 1412.63 507.651 1390.85C506.553 1377.26 505.418 1363.2 499.84 1354.95C486.249 1334.83 467.048 1347.21 466.238 1347.75L464.175 1344.64C464.403 1344.49 487.245 1329.65 502.925 1352.86C509.051 1361.93 510.226 1376.48 511.362 1390.55C513.072 1411.72 514.687 1431.72 531.734 1432.7L531.981 1432.73C548.4 1435.91 551.864 1429.65 551.897 1429.59L555.261 1431.19C555.121 1431.49 552.25 1437.35 540.407 1437.35Z" fill="#323461"/>
<path d="M513.169 1532.93H599.852C599.852 1524.62 593.117 1517.89 584.808 1517.89H528.215C519.906 1517.89 513.169 1524.62 513.169 1532.93Z" fill="#494C7F"/>
<path d="M546.699 1412.02H559.5V1517.89H546.699V1412.02Z" fill="#323461"/>
<path d="M430.814 1335.09L435.8 1330.42L572.638 1443.12L567.652 1447.8L430.814 1335.09Z" fill="#323461"/>
<path d="M472.955 1361.35L432.214 1409.5C429.012 1413.28 423.35 1413.76 419.564 1410.56L408.677 1401.35C404.892 1398.14 404.419 1392.48 407.621 1388.69L448.363 1340.55L472.955 1361.35Z" fill="#95A6DB"/>
<path d="M429.257 1360.21L445.56 1340.82C445.845 1340.42 446.158 1340.05 446.503 1339.7L446.657 1339.52L446.675 1339.54C448.388 1337.88 450.783 1336.82 453.729 1336.61C461.976 1336.02 471.391 1342.31 474.756 1350.64C476.987 1356.17 475.997 1361.21 472.675 1364.16L456.636 1383.23L429.257 1360.21Z" fill="#323461"/>
<path d="M411.668 1393.84L411.377 1393.6C410.535 1392.92 410.411 1391.68 411.099 1390.84L428.902 1369.07C429.59 1368.22 430.83 1368.1 431.671 1368.79L431.962 1369.03C432.803 1369.72 432.927 1370.96 432.239 1371.79L414.437 1393.56C413.748 1394.4 412.509 1394.53 411.668 1393.84Z" fill="#E3EAFF"/>
<path d="M722.264 1765.78C718.669 1765.78 715.755 1762.87 715.755 1759.27V1643.94H728.773V1759.27C728.773 1762.87 725.859 1765.78 722.264 1765.78Z" fill="#0E6A41"/>
<path d="M767.938 1765.78C764.343 1765.78 761.429 1762.87 761.429 1759.27V1643.94H774.447V1759.27C774.447 1762.87 771.533 1765.78 767.938 1765.78Z" fill="#0E6A41"/>
<path d="M827.87 1765.78C824.276 1765.78 821.361 1762.87 821.361 1759.27V1643.94H834.379V1759.27C834.379 1762.87 831.465 1765.78 827.87 1765.78Z" fill="#0E6A41"/>
<path d="M873.542 1765.78C869.949 1765.78 867.033 1762.87 867.033 1759.27V1643.94H880.052V1759.27C880.052 1762.87 877.136 1765.78 873.542 1765.78Z" fill="#0E6A41"/>
<path d="M801.525 1472.79V1610.03C801.525 1611.59 800.258 1612.85 798.697 1612.85H713.606C705.021 1612.85 698.062 1619.81 698.062 1628.4C698.062 1636.98 705.021 1643.94 713.606 1643.94H801.525H817.069C825.654 1643.94 832.614 1636.98 832.614 1628.4V1612.85V1472.79C832.614 1464.2 825.654 1457.24 817.069 1457.24C808.484 1457.24 801.525 1464.2 801.525 1472.79Z" fill="#3F964F"/>
<path d="M884.349 1615.38H817.069V1457.24H884.349V1615.38Z" fill="#3F964F"/>
<path d="M868.803 1472.79V1610.03C868.803 1611.59 867.536 1612.85 865.974 1612.85H780.882C772.297 1612.85 765.337 1619.81 765.337 1628.4C765.337 1636.98 772.297 1643.94 780.882 1643.94H868.803H884.348C892.933 1643.94 899.894 1636.98 899.894 1628.4V1612.85V1472.79C899.894 1464.2 892.933 1457.24 884.348 1457.24C875.764 1457.24 868.803 1464.2 868.803 1472.79Z" fill="#0E6A41"/>
<path d="M734.066 1506.3C740.529 1509.9 740.599 1532.3 738.372 1533.61C663.847 1538.79 645.048 1536.07 645.048 1536.07L645.986 1523.39C645.986 1523.39 688.973 1509.84 734.066 1506.3Z" fill="#F37A50"/>
<path d="M804.252 1465.34C792.806 1483.65 745.221 1533.17 737.446 1533.88L728.658 1506.87C728.658 1506.87 773.281 1447.83 781.205 1438.73C794.888 1422.93 822.996 1435.49 804.252 1465.34Z" fill="#F37A50"/>
<path d="M632.297 1521.59C636.445 1521.7 640.849 1522.04 646.763 1523.06L651.08 1525.31L650.622 1532.65C644.412 1541.18 625.819 1542.56 624.117 1542.56C619.695 1542.56 617.618 1542.82 617.326 1542.21C617.035 1541.59 616.304 1537.59 622.738 1537.38C630.813 1537.13 626.069 1530.27 609.323 1534.94C605.131 1536.1 597.666 1533.45 600.689 1530.73C604.02 1527.72 613.418 1521.08 632.297 1521.59Z" fill="#F37A50"/>
<path d="M776.871 1367.54C775.494 1348.79 780.913 1332.24 795.856 1323.8C811.002 1315.26 829.976 1323.64 829.976 1323.64C829.977 1323.64 846.037 1317.93 860.592 1333.96C875.148 1350 864.134 1364.1 870.088 1375.79C873.62 1382.72 891.544 1384.14 886.918 1406.7C885.581 1413.2 877.752 1417.59 871.129 1418.02C859.49 1418.78 848.646 1414.29 843.927 1418.78C828.375 1433.62 793.912 1428.25 789.089 1414.69C787.593 1410.48 756.593 1418.62 759.686 1389.97C761.253 1375.46 778.101 1384.28 776.871 1367.54Z" fill="#0D0C1A"/>
<path d="M805.279 1428.11L829.892 1423.58L839.121 1435.86L819.506 1476.07L790.655 1451.58L805.279 1428.11Z" fill="#F37A50"/>
<path d="M782.72 1395.84L778.305 1394.38C778.132 1394.89 778.197 1395.31 778.212 1395.39L778.163 1395.17C777.861 1393.84 776.941 1389.77 779.262 1386.14C780.897 1383.57 783.729 1381.84 787.676 1380.99L788.655 1385.55C785.967 1386.12 784.127 1387.16 783.186 1388.64C781.91 1390.64 782.466 1393.09 782.704 1394.14C782.819 1394.65 782.94 1395.19 782.72 1395.84Z" fill="#3F964F"/>
<path d="M788.524 1397.84C788.524 1400.9 785.986 1403.38 782.855 1403.38C779.724 1403.38 777.185 1400.9 777.185 1397.84C777.185 1394.78 779.724 1392.31 782.855 1392.31C785.986 1392.31 788.524 1394.78 788.524 1397.84Z" fill="#95A6DB"/>
<path d="M773.374 1525.08C773.795 1517.43 761.429 1486.01 767.938 1470.19C772.679 1457.47 780.599 1436.11 790.298 1432.55C794.873 1430.87 799.576 1429.69 805.279 1428.11C805.279 1428.11 802.061 1444.15 808.764 1444.68C821.666 1445.73 829.891 1423.58 829.891 1423.58C836.847 1422.91 868.76 1433.39 868.742 1436.01C868.664 1456.54 851.991 1486.48 846.539 1508.67C844.394 1532.63 852.754 1561.31 852.789 1564.04C852.789 1564.04 801.453 1578.46 771.025 1561.71C770.389 1559.39 772.793 1535.65 773.374 1525.08Z" fill="#F5A3B7"/>
<path d="M845.064 1539.41C845.064 1539.41 856.4 1568 859.16 1586C861.92 1604 846.327 1615.54 846.327 1615.54H716.633C716.633 1615.54 702.747 1593.03 706.747 1577.48C710.746 1561.93 719.945 1559.45 719.945 1559.45L845.064 1539.41Z" fill="#F5A3B7"/>
<path d="M714.895 1558.66C731.453 1556.33 779.51 1574.99 800.001 1615.54H742.675L714.895 1558.66Z" fill="#DE623C"/>
<path d="M733.053 1573.59C730.914 1571.25 728.971 1568.36 727.261 1565.35C722.428 1556.83 710.779 1555.39 704.202 1562.65C680.299 1589 629.344 1649.07 617.984 1656.55C614.774 1658.66 596.046 1669.44 578.243 1667.32C578.243 1667.32 569.455 1670.66 575.31 1677.64C578.322 1681.23 623.567 1684.95 623.567 1684.95L627.093 1671.66C653.431 1652.16 686.217 1653.57 714.017 1617.93C729.327 1598.31 733.053 1573.59 733.053 1573.59Z" fill="#DE623C"/>
<path d="M614.404 1692.61L596.196 1704.42L593.694 1701.44L608.462 1687.67C600.073 1681.05 580.642 1686.58 580.642 1686.58C574.278 1682.46 561.872 1669.13 560.592 1661.99C564.668 1656.91 578.24 1667.35 578.24 1667.35C577.742 1669.62 582.029 1677.45 585.44 1678.79C600.264 1681.99 615.039 1677.78 627.093 1671.66C627.093 1671.66 637.168 1686.92 614.404 1692.61Z" fill="#201D40"/>
<path d="M733.319 1577.17C736.635 1578.06 739.108 1580.84 739.588 1584.24C740.884 1593.44 747.581 1612.06 738.521 1631.57C716.279 1679.46 703.147 1711.01 700.814 1723.37C706.624 1734.25 683.456 1763.97 683.112 1765.92L666.437 1760.7C666.437 1760.7 676.005 1746.47 679.45 1740.89C687.653 1727.62 688.995 1711.34 690.328 1698.72C696.02 1644.83 686.234 1610.8 725.225 1579.19C727.532 1577.32 730.451 1576.4 733.319 1577.17Z" fill="#F37A50"/>
<path d="M709.12 1746.16L707.477 1767.81L703.588 1767.99L701.591 1747.9C691.241 1750.55 683.85 1769.35 683.85 1769.35C676.723 1771.92 658.598 1773.7 652.141 1770.39C650.574 1764.07 667.11 1759.61 667.11 1759.61C668.607 1761.38 677.44 1762.72 680.573 1760.82C692.105 1750.97 698.371 1736.67 700.814 1723.37C700.814 1723.37 718.405 1724.62 709.12 1746.16Z" fill="#201D40"/>
<path d="M811.498 1408.02L831.483 1405.03L829.891 1423.58C829.891 1423.58 826.066 1431.98 821.628 1432.55L805.279 1428.11L811.498 1408.02Z" fill="#F37A50"/>
<path d="M849.975 1381.19C844.815 1402.74 826.914 1416.93 809.991 1412.87C793.067 1408.82 783.531 1388.07 788.69 1366.52C793.849 1344.97 811.751 1330.79 828.674 1334.84C845.597 1338.9 855.133 1359.65 849.975 1381.19Z" fill="#F37A50"/>
<path d="M796.621 1372.18C795.875 1373.68 794.058 1374.28 792.563 1373.54C791.067 1372.8 790.458 1370.98 791.203 1369.48C791.948 1367.98 793.765 1367.37 795.261 1368.12C796.758 1368.87 797.366 1370.68 796.621 1372.18Z" fill="black"/>
<path d="M820.391 1378.04C819.583 1379.66 817.617 1380.32 815.998 1379.52C814.378 1378.71 813.719 1376.74 814.526 1375.13C815.332 1373.5 817.299 1372.84 818.919 1373.65C820.538 1374.46 821.197 1376.43 820.391 1378.04Z" fill="black"/>
<path d="M824.012 1375.33C823.789 1375.22 823.6 1375.04 823.488 1374.79C821.845 1371.25 817.409 1370.56 817.365 1370.55C816.744 1370.46 816.312 1369.88 816.402 1369.26C816.491 1368.64 817.065 1368.21 817.687 1368.29C817.919 1368.33 823.385 1369.15 825.554 1373.83C825.819 1374.4 825.571 1375.08 825 1375.34C824.673 1375.5 824.311 1375.48 824.012 1375.33Z" fill="#0D0C1A"/>
<path d="M790.021 1367.79C789.911 1367.74 789.809 1367.67 789.719 1367.57C789.276 1367.12 789.28 1366.4 789.727 1365.96C793.203 1362.53 797.486 1363.95 797.667 1364.02C798.26 1364.22 798.577 1364.87 798.372 1365.46C798.167 1366.06 797.523 1366.38 796.929 1366.17C796.788 1366.12 793.774 1365.17 791.33 1367.58C790.973 1367.94 790.444 1368.01 790.021 1367.79Z" fill="#0D0C1A"/>
<path d="M798.567 1378.76C796.906 1380.47 795.45 1382.23 793.865 1383.23C793.33 1383.56 793.159 1384.27 793.469 1384.83C794.75 1387.09 798.489 1388.97 800.782 1389.94C801.117 1390.08 801.391 1389.65 801.118 1389.4C798.804 1387.37 797.81 1385.88 797.392 1385.06C797.185 1384.66 797.19 1384.17 797.397 1383.76C797.871 1382.82 798.816 1380.91 799.455 1379.33C799.676 1378.79 798.978 1378.34 798.567 1378.76Z" fill="#DE623C"/>
<path d="M841.831 1381.33C837.719 1384.53 836.508 1389.85 839.126 1393.21C841.744 1396.58 847.2 1396.72 851.313 1393.52C855.428 1390.31 856.634 1384.99 854.013 1381.64C851.4 1378.27 845.943 1378.13 841.831 1381.33Z" fill="#F37A50"/>
<path d="M844.172 1392.24C844.018 1392.16 843.88 1392.05 843.77 1391.9C842.191 1389.8 842.043 1387.44 843.374 1385.59C844.735 1383.69 847.265 1382.82 849.387 1383.53C849.985 1383.73 850.309 1384.37 850.112 1384.97C849.914 1385.57 849.27 1385.89 848.673 1385.69C847.509 1385.31 845.995 1385.84 845.224 1386.92C844.484 1387.95 844.614 1389.24 845.591 1390.54C845.97 1391.04 845.868 1391.76 845.365 1392.13C845.009 1392.4 844.546 1392.42 844.172 1392.24Z" fill="#DE623C"/>
<path d="M817.275 1395.94C817.752 1395.3 817.237 1394.4 816.442 1394.5C814.42 1394.73 811.079 1395.06 807.89 1395.06C804.7 1395.06 801.358 1394.73 799.337 1394.5C798.542 1394.4 798.027 1395.3 798.503 1395.94C799.97 1397.92 803 1400.92 807.89 1400.92C812.778 1400.92 815.809 1397.92 817.275 1395.94Z" fill="white"/>
<path d="M850.392 1379.29C830.193 1376.58 801.929 1356 799.611 1345.44C803.518 1332.76 824.336 1326.38 836.09 1332.26C847.845 1338.13 858.952 1363.32 850.392 1379.29Z" fill="#0D0C1A"/>
<path d="M966.285 1435.73C957.709 1427.07 963.334 1418.2 963.334 1418.2C958.629 1417.2 933.805 1454.8 923.103 1478.69C904.425 1459.87 871.529 1434.46 862.632 1432.98C862.632 1432.98 850.633 1429.75 846.32 1444.27C842.471 1457.22 857.485 1466.39 857.485 1466.39C857.485 1466.39 921.697 1511.73 931.193 1507.7C945.974 1501.42 959.35 1447.47 966.285 1435.73Z" fill="#F37A50"/>
<path d="M979.686 1434.65C974.452 1434.97 967.968 1432.38 965.946 1437.08L955.608 1432.04L954.984 1425.81C963.871 1411.56 985.527 1407.53 987.671 1407.34C993.243 1406.84 995.83 1406.27 996.273 1407.01C996.707 1407.76 998.069 1412.72 989.98 1413.69C979.842 1414.91 986.577 1423.02 1007.16 1415.3C1012.31 1413.37 1022.01 1415.88 1018.5 1419.64C1014.64 1423.79 1003.53 1433.2 979.686 1434.65Z" fill="#F37A50"/>
<path d="M838.987 1381.01C837.939 1389.98 842.033 1397.82 848.131 1398.53C854.23 1399.25 860.019 1392.55 861.07 1383.6C862.111 1374.63 858.023 1366.79 851.921 1366.08C845.827 1365.36 840.035 1372.05 838.987 1381.01Z" fill="#0E6A41"/>
<path d="M843.776 1381.57C842.728 1390.54 846.822 1398.38 852.919 1399.09C859.013 1399.81 864.811 1393.12 865.852 1384.16C866.902 1375.19 862.814 1367.35 856.713 1366.64C850.616 1365.93 844.823 1372.61 843.776 1381.57Z" fill="#3F964F"/>
<path d="M850.982 1369.13C850.982 1369.13 842.78 1322.04 799.671 1339.05C802.351 1331.84 845.838 1316.23 858.396 1367.58C855.862 1370.66 850.982 1369.13 850.982 1369.13Z" fill="#3F964F"/>
<path d="M403.686 1769.95H404.206C408.417 1769.95 411.832 1766.53 411.832 1762.32V1631.92H396.06V1762.32C396.06 1766.53 399.475 1769.95 403.686 1769.95Z" fill="#0E6A41"/>
<path d="M348.352 1769.95H348.871C353.083 1769.95 356.497 1766.53 356.497 1762.32V1631.92H340.726V1762.32C340.726 1766.53 344.14 1769.95 348.352 1769.95Z" fill="#0E6A41"/>
<path d="M268.118 1762.58C268.118 1766.65 271.649 1769.95 276.004 1769.95C280.359 1769.95 283.89 1766.65 283.89 1762.58V1631.92H268.118V1762.58Z" fill="#0E6A41"/>
<path d="M220.41 1769.95H220.931C225.142 1769.95 228.556 1766.53 228.556 1762.32V1631.92H212.784V1762.32C212.784 1766.53 216.199 1769.95 220.41 1769.95Z" fill="#0E6A41"/>
<path d="M307.922 1424.57V1590.83C307.922 1592.72 309.455 1594.26 311.348 1594.26H414.435C424.836 1594.26 433.267 1602.7 433.267 1613.1C433.267 1623.49 424.836 1631.92 414.435 1631.92H307.922H289.089C278.689 1631.92 270.257 1623.49 270.257 1613.1V1594.26V1424.57C270.257 1414.17 278.689 1405.74 289.089 1405.74C299.49 1405.74 307.922 1414.17 307.922 1424.57Z" fill="#3F964F"/>
<path d="M207.585 1597.32H289.089V1405.74H207.585V1597.32Z" fill="#3F964F"/>
<path d="M226.417 1424.57V1590.83C226.417 1592.72 227.951 1594.26 229.843 1594.26H332.93C343.331 1594.26 351.763 1602.7 351.763 1613.1C351.763 1623.49 343.331 1631.92 332.93 1631.92H226.417H207.585C197.184 1631.92 188.753 1623.49 188.753 1613.1V1594.26V1424.57C188.753 1414.17 197.184 1405.74 207.585 1405.74C217.986 1405.74 226.417 1414.17 226.417 1424.57Z" fill="#0E6A41"/>
<path d="M355.006 1398.72C375.778 1405.03 386.117 1448.75 394.962 1494.53C406.911 1510.22 419.727 1518.83 438.457 1537.32C425.765 1540.2 412.333 1536.84 412.333 1536.84C412.333 1536.84 377.826 1537.13 362.855 1504.5C359.429 1497.04 358.262 1482.02 356.32 1475.33C355.468 1454.41 355.006 1398.72 355.006 1398.72Z" fill="#C4204A"/>
<path d="M476.52 1747.4L495.229 1752.14L502.872 1735.48C502.077 1734.89 500.85 1723.81 500.1 1715.38L469.9 1719.54C471.381 1728.06 473.876 1739.18 476.52 1747.4Z" fill="#F37A50"/>
<path d="M509.537 1757.23C509.537 1757.23 516.007 1746.35 524.205 1745.67C524.205 1745.67 539.675 1746.55 545.101 1753.05C546.805 1755.1 546.151 1759.46 545.477 1762.26C545.056 1764 543.578 1765.89 539.006 1767.32C532.251 1769.45 523.144 1770.75 506.364 1766.4C486.233 1761.19 483.02 1763.33 475.58 1760.94C467.869 1758.45 470.347 1749.03 472.45 1739.84C472.45 1739.84 478.063 1751.08 509.537 1757.23Z" fill="#201D40"/>
<path d="M503.378 1733.85C503.378 1733.85 512.362 1739.29 524.111 1741.99C530.683 1743.5 548.203 1746.89 545.382 1758.57C544.961 1760.32 543.484 1762.21 538.911 1763.65C532.158 1765.77 523.049 1767.07 506.269 1762.72C486.138 1757.51 482.926 1759.65 475.486 1757.26C467.776 1754.77 471.333 1744.08 473.437 1734.9C473.628 1737.22 474.706 1743.34 488.692 1748.82C492.868 1750.45 489.456 1732.04 503.378 1733.85Z" fill="#2C2858"/>
<path d="M500.764 1747.92C501.434 1747.87 502.028 1747.4 502.199 1746.72C503.62 1741.01 509.524 1740.6 509.774 1740.58C510.647 1740.53 511.32 1739.78 511.273 1738.92C511.226 1738.04 510.486 1737.37 509.612 1737.41C506.678 1737.55 500.713 1739.52 499.115 1745.95C498.903 1746.81 499.422 1747.66 500.273 1747.87C500.438 1747.92 500.602 1747.93 500.764 1747.92Z" fill="#494C7F"/>
<path d="M508.141 1750.88C508.811 1750.83 509.406 1750.36 509.577 1749.68C510.998 1743.96 516.901 1743.56 517.152 1743.54C518.025 1743.49 518.697 1742.74 518.65 1741.87C518.604 1741 517.863 1740.32 516.989 1740.37C514.055 1740.5 508.091 1742.48 506.493 1748.91C506.28 1749.76 506.799 1750.62 507.652 1750.83C507.816 1750.88 507.981 1750.88 508.141 1750.88Z" fill="#494C7F"/>
<path d="M403.433 1754.45L421.763 1760.49L430.558 1744.41C429.807 1743.77 427.173 1732.07 427.018 1723.6L398.79 1726.2C399.669 1734.78 401.375 1746.06 403.433 1754.45Z" fill="#F37A50"/>
<path d="M373.01 1545.79C414.801 1553.42 474.155 1580.49 480.01 1586.66C492.103 1599.37 498.025 1643.13 503.728 1721.04L467.154 1723.48C453.654 1662.61 440.953 1636.07 438.88 1611.35C438.88 1611.35 406.829 1613.57 358.602 1594.95C334.829 1585.79 310.054 1575.08 317.185 1553.6C322.866 1536.49 333.163 1538.51 373.01 1545.79Z" fill="#201D40"/>
<path d="M326.269 1549.43C360.99 1553.01 407.302 1592.75 413.156 1598.9C425.25 1611.63 426.772 1655.07 432.475 1732.99L396.077 1736.35C390.184 1695.98 372.958 1649.72 373.009 1620.08C373.009 1620.08 340.427 1613.02 289.994 1601.67C262.406 1595.48 254.128 1591.2 248.851 1573.19C247.056 1567.05 244.623 1552.85 247.375 1549.68C259.557 1535.66 293.404 1546.04 326.269 1549.43Z" fill="#2C2858"/>
<path d="M435.677 1766.57C435.677 1766.57 442.896 1756.18 451.123 1756.07C451.123 1756.07 466.492 1758.05 471.447 1764.91C473.003 1767.07 472.043 1771.38 471.174 1774.11C470.631 1775.82 469.025 1777.61 464.363 1778.72C457.475 1780.36 448.298 1781.02 431.866 1775.5C412.153 1768.88 408.796 1770.8 401.544 1767.88C394.027 1764.86 397.162 1755.63 399.906 1746.62C399.906 1746.62 404.713 1758.23 435.677 1766.57Z" fill="#201D40"/>
<path d="M431.179 1742.82C431.179 1742.82 439.758 1748.88 451.288 1752.39C457.738 1754.37 474.974 1758.98 471.339 1770.44C470.796 1772.15 469.189 1773.93 464.527 1775.04C457.64 1776.69 448.463 1777.35 432.031 1771.83C412.318 1765.21 408.961 1767.12 401.709 1764.21C394.192 1761.19 398.494 1750.76 401.238 1741.76C401.263 1744.1 401.909 1750.27 415.475 1756.72C419.526 1758.64 417.418 1740.04 431.179 1742.82Z" fill="#2C2858"/>
<path d="M424.507 1757.28C425.178 1757.24 425.771 1756.77 425.942 1756.08C427.363 1750.36 433.268 1749.96 433.518 1749.95C434.391 1749.9 435.063 1749.15 435.016 1748.27C434.97 1747.4 434.23 1746.73 433.356 1746.77C430.422 1746.91 424.456 1748.89 422.858 1755.31C422.647 1756.16 423.166 1757.02 424.017 1757.24C424.181 1757.28 424.347 1757.29 424.507 1757.28Z" fill="#494C7F"/>
<path d="M431.884 1760.24C432.555 1760.2 433.15 1759.72 433.32 1759.03C434.742 1753.32 440.646 1752.92 440.896 1752.9C441.769 1752.86 442.441 1752.11 442.395 1751.23C442.348 1750.36 441.607 1749.69 440.733 1749.73C437.8 1749.87 431.834 1751.84 430.236 1758.27C430.024 1759.12 430.543 1759.98 431.395 1760.2C431.559 1760.23 431.725 1760.25 431.884 1760.24Z" fill="#494C7F"/>
<path d="M303.342 1363.72H303.359L317.211 1363.76L320.349 1396.49L304.177 1405.03L286.932 1396.58L289.72 1363.76L303.342 1363.72Z" fill="#DE623C"/>
<path d="M301.53 1359.89C289.587 1364.09 279.661 1349.87 279.661 1349.87C271.866 1350.31 271.457 1342.54 271.457 1342.54C267.645 1342.25 262.038 1339.48 262.042 1332.33C262.045 1326.28 267.756 1325.29 266.972 1318.38C266.342 1312.83 259.483 1300.44 276.533 1295.54C276.533 1295.54 274.704 1285.38 284.545 1280.65C296.609 1274.85 301.469 1281.79 307.355 1281.91C313.928 1282.05 326.041 1273.32 331.018 1287.36C331.018 1287.36 339.96 1285.57 345.499 1291.13C350.659 1296.31 350.152 1304.52 348.226 1307.92C348.226 1307.92 355.903 1308.75 359.054 1315.15C361.168 1319.43 360.714 1325.68 356.838 1329.53C354.373 1331.98 351.684 1332.76 351.684 1332.76C348.876 1333.89 350.441 1341.73 348.212 1343.81C344.634 1347.15 340.541 1349.87 336.294 1352.24L301.53 1359.89Z" fill="#2C2858"/>
<path d="M277.612 1342.09C279.896 1364.93 299.111 1383.48 317.045 1381.7C334.98 1379.9 344.841 1358.43 342.559 1335.6C340.275 1312.76 323.884 1295.71 305.95 1297.5C288.017 1299.29 275.329 1319.25 277.612 1342.09Z" fill="#F37A50"/>
<path d="M333.262 1343.89C333.817 1345.53 335.598 1346.4 337.237 1345.85C338.876 1345.29 339.755 1343.51 339.199 1341.87C338.643 1340.24 336.864 1339.36 335.224 1339.91C333.585 1340.47 332.706 1342.25 333.262 1343.89Z" fill="black"/>
<path d="M309.075 1344.36C309.677 1346.14 311.603 1347.09 313.378 1346.49C315.153 1345.89 316.104 1343.97 315.502 1342.19C314.9 1340.42 312.974 1339.46 311.2 1340.07C309.425 1340.67 308.474 1342.59 309.075 1344.36Z" fill="black"/>
<path d="M323.401 1344.51C326.546 1348.9 330.519 1354.24 330.519 1354.24C330.519 1354.24 329.155 1359.16 322.805 1359.64C325.424 1358.36 327.968 1356.38 326.644 1352.85C325.318 1349.35 323.401 1344.51 323.401 1344.51Z" fill="#DE623C"/>
<path d="M304.856 1340.41C304.74 1340.38 304.627 1340.33 304.517 1340.27C303.766 1339.84 303.501 1338.89 303.927 1338.13C305.089 1336.08 308.5 1332.54 313.089 1333.84C313.922 1334.1 314.402 1334.95 314.167 1335.78C313.931 1336.61 313.066 1337.09 312.235 1336.86C308.837 1335.89 306.67 1339.64 306.649 1339.68C306.285 1340.32 305.535 1340.61 304.856 1340.41Z" fill="#2C2858"/>
<path d="M333.036 1337.62C332.821 1337.56 332.62 1337.44 332.454 1337.26C331.958 1336.74 331.98 1335.92 332.501 1335.42C332.583 1335.35 334.536 1333.52 337.156 1333.78C338.945 1333.96 340.541 1335.02 341.897 1336.93C342.313 1337.52 342.173 1338.34 341.585 1338.76C340.997 1339.17 340.184 1339.03 339.768 1338.44C338.868 1337.17 337.903 1336.47 336.9 1336.37C335.477 1336.23 334.308 1337.3 334.296 1337.31C333.949 1337.64 333.466 1337.74 333.036 1337.62Z" fill="#2C2858"/>
<path d="M346.734 1312.4L306.64 1289.67L268.664 1320.76L280.65 1350.41C278.637 1335.95 288.359 1338.64 291.957 1333.5C295.606 1328.28 296.159 1321.26 308.172 1324.75C308.172 1324.75 315.588 1316.84 321.904 1324.33C326.789 1330.12 331.215 1327.84 335.973 1327.16C341.583 1326.37 341.436 1332.02 344.773 1331.11L346.734 1312.4Z" fill="#2C2858"/>
<path d="M282.557 1339.96C286.344 1343.81 286.865 1349.43 283.718 1352.53C280.573 1355.63 274.953 1355.03 271.165 1351.19C267.377 1347.34 266.857 1341.72 270.003 1338.62C273.148 1335.51 278.769 1336.12 282.557 1339.96Z" fill="#F37A50"/>
<path d="M278.67 1350.85C278.838 1350.79 278.996 1350.69 279.129 1350.55C281.036 1348.62 281.509 1346.21 280.394 1344.13C279.253 1341.99 276.775 1340.76 274.5 1341.19C273.859 1341.31 273.439 1341.93 273.561 1342.57C273.682 1343.21 274.299 1343.63 274.94 1343.51C276.185 1343.27 277.668 1344.03 278.313 1345.24C278.933 1346.4 278.625 1347.7 277.444 1348.9C276.988 1349.37 276.995 1350.12 277.46 1350.57C277.789 1350.89 278.262 1350.99 278.67 1350.85Z" fill="#DE623C"/>
<path d="M330.785 1366.85C331.364 1366.14 330.825 1365.09 329.912 1365.15C327.591 1365.32 323.758 1365.51 320.116 1365.33C316.474 1365.16 312.677 1364.6 310.383 1364.21C309.48 1364.06 308.842 1365.06 309.352 1365.82C310.917 1368.16 314.213 1371.76 319.794 1372.02C325.376 1372.29 329.001 1369.03 330.785 1366.85Z" fill="white"/>
<path d="M290.797 1345.27C290.797 1354.29 285.821 1361.6 279.682 1361.6C273.543 1361.6 268.566 1354.29 268.566 1345.27C268.566 1336.24 273.543 1328.92 279.682 1328.92C285.821 1328.92 290.797 1336.24 290.797 1345.27Z" fill="black"/>
<path d="M285.976 1345.27C285.976 1354.29 280.999 1361.6 274.86 1361.6C268.722 1361.6 263.745 1354.29 263.745 1345.27C263.745 1336.24 268.722 1328.92 274.86 1328.92C280.999 1328.92 285.976 1336.24 285.976 1345.27Z" fill="#3F964F"/>
<path d="M280.264 1332.07C280.264 1332.07 285.906 1291.83 340.486 1310.74C338.662 1303.26 291.515 1280.12 273.082 1329.67C275.237 1333.02 280.264 1332.07 280.264 1332.07Z" fill="#3F964F"/>
<path d="M274.252 1404.66C284.312 1401.27 294.896 1399.69 305.51 1400C341.455 1400 346.958 1409.08 346.958 1408.87L320.282 1482.12L305.51 1489.41L289.34 1484.62C289.34 1484.62 268.379 1406.84 274.252 1404.66Z" fill="#FFD0B7"/>
<path d="M247.381 1550.32C247.381 1550.32 276.372 1553.3 303.538 1553.48C330.706 1553.28 359.697 1548.02 359.697 1548.02C359.697 1548.02 356.046 1498.12 356.417 1478.96C356.946 1456.97 355.007 1427.79 355.007 1398.72C355.007 1398.72 335.738 1395.62 324.867 1394.27C323.101 1394.06 321.557 1393.88 320.35 1393.78C320.35 1393.78 314.157 1406.77 287.17 1393.78C285.752 1393.64 283.997 1393.65 282.035 1393.76C270.698 1394.44 252.439 1398.72 252.439 1398.72C252.439 1427.72 251.267 1456.13 251.659 1478.14C250.453 1497.76 247.381 1550.32 247.381 1550.32Z" fill="#E62552"/>
<path d="M318.855 1461.57L325.432 1457.76C325.432 1457.76 327.253 1448.42 337.814 1448.21C340.718 1451.5 331.907 1454.21 334.862 1457.76C334.862 1457.76 337.349 1461.99 351.214 1456.68C356.657 1454.47 361.427 1454.87 364.043 1461.08C366.357 1466.58 359.362 1476.81 347.327 1478.58C331.755 1480.87 320.727 1478.07 320.727 1478.07L318.855 1461.57Z" fill="#F37A50"/>
<path d="M257.993 1471.54C279.976 1470 317.477 1459.14 317.477 1459.14C323.478 1468.34 321.819 1480.57 321.819 1480.57C287.679 1510.5 236.3 1520.18 220.536 1512.98C206.143 1506.4 216.304 1418.78 252.439 1398.72L253.692 1398.84C266.08 1419.8 257.993 1471.54 257.993 1471.54Z" fill="#C4204A"/>
<path d="M282.035 1393.76V1393.77C283.911 1396.89 286.568 1399.27 290.313 1401.16C296.244 1404.15 304.305 1405.42 309.268 1405.03C313.197 1404.71 317.556 1403.12 320.349 1400.9C323.315 1398.54 324.605 1395.55 324.867 1394.27C323.101 1394.06 321.286 1393.78 320.079 1393.67C320.079 1393.67 314.157 1406.77 287.17 1393.78C285.752 1393.64 283.997 1393.65 282.035 1393.76Z" fill="#C4204A"/>
<path d="M175.646 1553.41H894.365C899.937 1553.41 904.459 1548.88 904.459 1543.31C904.459 1537.74 899.937 1533.23 894.365 1533.23H175.646C170.073 1533.23 165.555 1537.74 165.555 1543.31C165.555 1548.88 170.073 1553.41 175.646 1553.41Z" fill="white"/>
<path d="M370.982 1533.49H487.183L510.12 1460.56C511.18 1457.19 508.665 1453.76 505.134 1453.76H399.893C397.609 1453.76 395.591 1455.24 394.906 1457.42L370.982 1533.49Z" fill="#0E6A41"/>
<path d="M379.796 1533.49H495.998L518.934 1460.56C519.994 1457.19 517.478 1453.76 513.947 1453.76H408.706C406.424 1453.76 404.405 1455.24 403.72 1457.42L379.796 1533.49Z" fill="#3F964F"/>
<path d="M448.207 1495.06C446.927 1499.57 449.206 1504.16 453.296 1505.32C457.387 1506.48 461.742 1503.77 463.021 1499.27C464.301 1494.77 462.022 1490.17 457.931 1489.01C453.84 1487.85 449.487 1490.56 448.207 1495.06Z" fill="#55AB65"/>
<path d="M304.965 1525.87H379.796V1533.3H297.533C297.533 1529.2 300.861 1525.87 304.965 1525.87Z" fill="#0E6A41"/>
<path d="M582.197 1202.32H687.351C695.645 1202.32 702.369 1195.6 702.369 1187.31V1142.43C702.369 1134.13 695.645 1127.41 687.351 1127.41H582.197C573.902 1127.41 567.178 1134.13 567.178 1142.43V1187.31C567.178 1195.6 573.902 1202.32 582.197 1202.32Z" fill="white"/>
<path d="M756.306 1332.06H619.794C609.025 1332.06 600.295 1323.33 600.295 1312.56V1254.31C600.295 1243.54 609.025 1234.81 619.794 1234.81H756.306C767.074 1234.81 775.804 1243.54 775.804 1254.31V1312.56C775.804 1323.33 767.074 1332.06 756.306 1332.06Z" fill="white"/>
<path d="M662.382 1202.32V1241.27L686.636 1202.32H662.382Z" fill="white"/>
<path d="M750.95 1327.7V1363.91C750.95 1366.81 747.04 1367.75 745.723 1365.16L726.696 1327.7H750.95Z" fill="white"/>
<path d="M589.069 1157.81H680.478C684.907 1157.81 688.496 1154.23 688.496 1149.79C688.496 1145.37 684.907 1141.78 680.478 1141.78H589.069C584.641 1141.78 581.05 1145.37 581.05 1149.79C581.05 1154.23 584.641 1157.81 589.069 1157.81Z" fill="#E3EAFF"/>
<path d="M589.069 1183.71H680.478C684.907 1183.71 688.496 1180.12 688.496 1175.69C688.496 1171.27 684.907 1167.67 680.478 1167.67H589.069C584.641 1167.67 581.05 1171.27 581.05 1175.69C581.05 1180.12 584.641 1183.71 589.069 1183.71Z" fill="#E3EAFF"/>
<path d="M752.919 1265.21H624.824C619.898 1265.21 615.905 1261.21 615.905 1256.28C615.905 1251.36 619.898 1247.37 624.824 1247.37H752.919C757.844 1247.37 761.839 1251.36 761.839 1256.28C761.839 1261.21 757.844 1265.21 752.919 1265.21Z" fill="#E3EAFF"/>
<path d="M752.919 1293.5H624.824C619.898 1293.5 615.905 1289.51 615.905 1284.58C615.905 1279.65 619.898 1275.66 624.824 1275.66H752.919C757.844 1275.66 761.839 1279.65 761.839 1284.58C761.839 1289.51 757.844 1293.5 752.919 1293.5Z" fill="#E3EAFF"/>
<path d="M754.228 1321.8H672.026C667.823 1321.8 664.416 1318.39 664.416 1314.19V1311.56C664.416 1307.36 667.823 1303.95 672.026 1303.95H754.228C758.431 1303.95 761.839 1307.36 761.839 1311.56V1314.19C761.839 1318.39 758.431 1321.8 754.228 1321.8Z" fill="#E3EAFF"/>
<path d="M353.303 1243.96H460.232C468.667 1243.96 475.504 1237.13 475.504 1228.69V1183.06C475.504 1174.63 468.667 1167.79 460.232 1167.79H353.303C344.869 1167.79 338.031 1174.63 338.031 1183.06V1228.69C338.031 1237.13 344.869 1243.96 353.303 1243.96Z" fill="white"/>
<path d="M357.499 1240.55V1268.9C357.499 1271.19 360.562 1271.92 361.593 1269.88L376.497 1240.55H357.499Z" fill="white"/>
<path d="M355.957 1191.59H456.291C460.15 1191.59 463.278 1188.47 463.278 1184.61C463.278 1180.75 460.15 1177.62 456.291 1177.62H355.957C352.098 1177.62 348.97 1180.75 348.97 1184.61C348.97 1188.47 352.098 1191.59 355.957 1191.59Z" fill="#E3EAFF"/>
<path d="M355.957 1213.75H456.291C460.15 1213.75 463.278 1210.63 463.278 1206.77C463.278 1202.91 460.15 1199.79 456.291 1199.79H355.957C352.098 1199.79 348.97 1202.91 348.97 1206.77C348.97 1210.63 352.098 1213.75 355.957 1213.75Z" fill="#E3EAFF"/>
<path d="M354.931 1235.92H419.319C422.611 1235.92 425.28 1233.26 425.28 1229.96V1227.91C425.28 1224.62 422.611 1221.95 419.319 1221.95H354.931C351.639 1221.95 348.97 1224.62 348.97 1227.91V1229.96C348.97 1233.26 351.639 1235.92 354.931 1235.92Z" fill="#E3EAFF"/>
<path d="M1437.08 512.107C1434.4 515.119 1429.46 519.607 1426.24 522.948L1416.67 520.266C1413.8 507.689 1419.74 494.739 1420.26 493.168C1421.61 489.089 1421.99 487.093 1422.65 487.014C1423.31 486.936 1427.23 487.483 1425.45 493.481C1423.21 501.006 1431.53 501.622 1438.56 486.259C1440.32 482.414 1445.54 482.562 1445.67 486.52C1445.81 490.877 1449.28 498.402 1437.08 512.107Z" fill="#F37A50"/>
<path d="M1362.55 561.555C1360.12 567.64 1372.59 583.064 1374.85 582.716C1400.16 569.471 1426.25 522.948 1426.25 522.948L1421.82 513.236C1421.82 513.236 1392.7 541.462 1362.55 561.555Z" fill="#F37A50"/>
<path d="M1317.58 520.431C1326.75 537.209 1368.56 581.658 1375.4 582.69L1382.66 559.316C1382.66 559.316 1345.88 506.57 1339.34 498.107C1328.08 483.439 1302.58 493.073 1317.58 520.431Z" fill="#F37A50"/>
<path d="M1446.95 485.339L1425.81 516.821C1424.97 518.079 1423.26 518.418 1421.99 517.576L1417.74 514.72C1416.48 513.869 1416.14 512.159 1416.99 510.901L1438.12 479.42C1438.97 478.161 1440.68 477.823 1441.94 478.673L1446.19 481.529C1447.46 482.371 1447.79 484.081 1446.95 485.339Z" fill="#201D40"/>
<path d="M1445.06 484.063L1423.94 515.544C1423.09 516.803 1421.38 517.141 1420.12 516.291L1415.86 513.435C1414.61 512.593 1414.27 510.883 1415.11 509.616L1436.24 478.135C1437.09 476.877 1438.8 476.538 1440.06 477.389L1444.32 480.244C1445.57 481.095 1445.91 482.805 1445.06 484.063Z" fill="#95A6DB"/>
<path d="M1436.33 501.51C1436.88 499.175 1436.35 489.419 1439.32 489.506C1440.03 489.775 1440.28 491.207 1440.28 491.207C1440.72 489.775 1441.7 483.439 1444.04 484.61C1446.01 486.407 1445.67 487.778 1445.67 487.778L1436.33 501.51Z" fill="#F37A50"/>
<path d="M1324.19 390.775C1313.02 371.228 1270.75 376.636 1267.85 400.392C1264.95 424.157 1267.49 439.667 1238.05 437.975C1214.61 436.629 1192.09 459.101 1194.28 491.919C1197.09 533.902 1225.09 515.623 1219.73 536.81C1214.37 557.997 1211.43 579.332 1241.49 578.004C1271.55 576.684 1297.28 549.881 1291.49 515.987C1285.7 482.085 1312.45 485.183 1317.68 467.876C1325.12 443.269 1324.19 390.775 1324.19 390.775Z" fill="#16142B"/>
<path d="M1321.99 461.002C1321.99 461.002 1325.51 488.369 1326.46 495.469L1299.99 494.011C1304.98 480.219 1293.63 446.802 1293.63 446.802L1321.99 461.002Z" fill="#DE623C"/>
<path d="M1293.54 437.003C1292.5 460.238 1306.44 479.741 1324.68 480.566C1342.93 481.382 1358.58 463.215 1359.63 439.988C1360.67 416.753 1346.73 397.25 1328.49 396.425C1310.24 395.601 1294.59 413.767 1293.54 437.003Z" fill="#F37A50"/>
<path d="M1348.48 447.288C1348.8 449.015 1350.45 450.161 1352.17 449.84C1353.9 449.518 1355.05 447.869 1354.72 446.142C1354.41 444.415 1352.75 443.278 1351.03 443.59C1349.3 443.911 1348.16 445.56 1348.48 447.288Z" fill="black"/>
<path d="M1325.21 441.958C1325.56 443.825 1327.36 445.057 1329.22 444.718C1331.09 444.371 1332.32 442.583 1331.98 440.709C1331.64 438.842 1329.85 437.61 1327.97 437.948C1326.11 438.296 1324.88 440.092 1325.21 441.958Z" fill="black"/>
<path d="M1322.39 438.669C1322.64 438.625 1322.89 438.487 1323.08 438.278C1325.76 435.18 1330.44 435.77 1330.48 435.778C1331.13 435.865 1331.74 435.414 1331.83 434.754C1331.92 434.103 1331.46 433.504 1330.81 433.409C1330.57 433.374 1324.81 432.619 1321.27 436.707C1320.84 437.211 1320.89 437.966 1321.39 438.4C1321.67 438.643 1322.05 438.73 1322.39 438.669Z" fill="#2C2858"/>
<path d="M1357.71 443.981C1357.84 443.963 1357.96 443.92 1358.08 443.851C1358.66 443.53 1358.86 442.801 1358.54 442.219C1356.03 437.749 1351.3 437.948 1351.1 437.957C1350.44 437.992 1349.93 438.556 1349.97 439.207C1350 439.867 1350.56 440.379 1351.22 440.344C1351.37 440.335 1354.69 440.249 1356.45 443.391C1356.71 443.851 1357.22 444.076 1357.71 443.981Z" fill="#2C2858"/>
<path d="M1342.76 448.79C1343.93 450.994 1344.89 453.19 1346.2 454.657C1346.64 455.152 1346.61 455.924 1346.13 456.384C1344.18 458.311 1339.87 459.11 1337.27 459.422C1336.9 459.474 1336.74 458.953 1337.09 458.788C1340.01 457.408 1341.45 456.193 1342.1 455.49C1342.43 455.134 1342.57 454.648 1342.48 454.18C1342.28 453.095 1341.88 450.89 1341.69 449.111C1341.63 448.494 1342.46 448.243 1342.76 448.79Z" fill="#DE623C"/>
<path d="M1324.3 461.549C1324.46 460.681 1324.92 459.96 1325.71 460.351C1327.72 461.349 1331.08 462.92 1334.4 464.092C1337.72 465.263 1341.32 466.157 1343.51 466.652C1344.38 466.843 1344.3 467.702 1343.85 468.466C1341.98 471.608 1336.84 474.065 1331.74 472.268C1326.65 470.463 1323.74 464.795 1324.3 461.549Z" fill="white"/>
<path d="M1293.71 438.244C1307.15 440.231 1318.47 431.404 1328.09 425.059C1338.63 424.365 1351.31 415.763 1353.28 412.118C1353.01 398.187 1344.74 385.307 1316.77 390.575C1303.21 393.118 1278.55 416.267 1293.71 438.244Z" fill="#201D40"/>
<path d="M1320.72 422.1C1320.72 422.1 1348.01 427.941 1359.63 439.988C1373.39 429.477 1364.19 416.119 1352.71 408.403C1342.77 409.167 1320.72 422.1 1320.72 422.1Z" fill="#201D40"/>
<path d="M1301.72 439.502C1304.94 443.92 1304.62 449.64 1301 452.279C1297.38 454.917 1291.84 453.468 1288.62 449.041C1285.4 444.623 1285.72 438.903 1289.34 436.273C1292.96 433.635 1298.5 435.084 1301.72 439.502Z" fill="#F37A50"/>
<path d="M1296.2 449.831C1296.37 449.796 1296.55 449.727 1296.69 449.605C1298.9 447.948 1299.73 445.604 1298.93 443.356C1298.11 441.047 1295.81 439.433 1293.46 439.528C1292.8 439.554 1292.29 440.11 1292.31 440.77C1292.34 441.429 1292.89 441.941 1293.55 441.915C1294.84 441.863 1296.21 442.853 1296.68 444.155C1297.13 445.413 1296.62 446.672 1295.26 447.696C1294.73 448.095 1294.63 448.842 1295.02 449.371C1295.3 449.744 1295.76 449.909 1296.2 449.831Z" fill="#DE623C"/>
<path d="M1491.92 733.36L1501.33 746.536C1501.33 746.536 1509.74 757.256 1519.78 752.221C1529.8 747.187 1525.36 731.086 1525.36 731.086L1513.84 715.914L1491.92 733.36Z" fill="#F37A50"/>
<path d="M1524.97 729.342C1524.97 729.342 1535.09 729.246 1546.09 725.497C1552.25 723.396 1568.33 717.303 1571.94 728.309C1572.49 729.95 1572.23 732.25 1569.22 735.748C1564.76 740.921 1557.95 746.606 1541.98 751.553C1522.83 757.481 1521.29 760.875 1513.97 762.681C1506.39 764.555 1503.88 753.983 1500.95 745.391C1502.29 747.205 1506.27 751.666 1520.51 749.062C1524.77 748.29 1512.63 734.923 1524.97 729.342Z" fill="#2C2858"/>
<path d="M1412.15 778.651V787.591C1412.15 787.591 1412.76 801.201 1423.84 802.945C1434.93 804.681 1440.68 788.988 1440.68 788.988L1440.27 774.919L1412.15 778.651Z" fill="#F37A50"/>
<path d="M1332.04 650.062L1439.63 645.462C1439.63 645.462 1444.93 618.615 1440.94 607.965C1436.95 597.324 1338.11 599.52 1338.11 599.52L1332.04 650.062Z" fill="#0C5937"/>
<path d="M1300.41 581.12C1297.49 587.855 1286.13 607.905 1287.23 624.162C1288.36 640.94 1300.2 655.548 1320.23 655.226C1320.23 655.226 1357.99 633.762 1349.81 589.799C1349.81 589.799 1330.05 582.074 1300.41 581.12Z" fill="#0E6A41"/>
<path d="M1317.25 659.054L1412.01 667.994C1412.01 667.994 1444.52 654.28 1444.33 642.624C1444.14 630.975 1348.67 599.104 1348.67 599.104C1292.67 582.769 1274 652.275 1317.25 659.054Z" fill="#0E6A41"/>
<path d="M1444.33 642.624L1442.43 776.29C1442.43 776.29 1418.77 786.263 1410.48 776.368C1406.57 731 1387.94 690.813 1408.74 663.16C1436.59 626.115 1444.33 642.624 1444.33 642.624Z" fill="#0E6A41"/>
<path d="M1440.71 607.653L1519.57 715.949C1519.57 715.949 1501.97 739.48 1489.68 736.72C1468.48 709.891 1425.58 678.427 1425.3 644.663C1424.93 599.442 1440.71 607.653 1440.71 607.653Z" fill="#0C5937"/>
<path d="M1300.25 483.048C1300.25 483.048 1322.61 498.029 1325.2 487.431C1331.26 491.632 1352.41 505.172 1354.86 518.391C1357.23 531.229 1349.91 590.372 1349.91 590.372C1327.63 598.678 1308.25 600.067 1291.94 594.113C1295.82 560.236 1262.97 526.22 1278.65 500.364C1282.55 493.915 1298.03 490.486 1300.25 483.048Z" fill="#E62552"/>
<path d="M1441.37 787.348C1441.37 787.348 1449.67 793.155 1460.8 796.505C1467.02 798.38 1483.65 802.772 1480.19 813.83C1479.68 815.479 1478.13 817.206 1473.64 818.291C1467.01 819.905 1458.16 820.565 1442.3 815.305C1423.28 808.995 1420.04 810.853 1413.04 808.075C1405.78 805.185 1409.89 795.125 1412.51 786.428C1412.54 788.685 1413.18 794.639 1426.29 800.802C1430.19 802.642 1428.09 784.709 1441.37 787.348Z" fill="#2C2858"/>
<path d="M1251.12 593.731C1256.09 590.494 1270.76 603.765 1270.85 605.839C1259.67 630.342 1228.79 657.935 1228.79 657.935L1221.21 650.201C1221.21 650.201 1238.65 624.084 1251.12 593.731Z" fill="#F37A50"/>
<path d="M1300.52 527.41C1298.09 545.646 1276.26 601.595 1270.85 605.839L1251.12 593.731C1251.12 593.731 1270.32 524.728 1273.26 514.877C1278.31 497.804 1304.55 497.639 1300.52 527.41Z" fill="#F37A50"/>
<path d="M1210.03 653.829C1214.04 652.961 1218.97 653.568 1221.21 650.201L1229.49 657.249C1224.3 669.313 1208.7 675.511 1207.06 675.91C1202.8 676.951 1200.87 677.698 1200.44 677.168C1200.03 676.648 1198.39 672.968 1204.52 671.266C1212.23 669.122 1206.07 663.646 1191.04 672.039C1187.29 674.148 1179.48 673.349 1181.76 670.016C1184.26 666.354 1191.75 657.761 1210.03 653.829Z" fill="#F37A50"/>
<path d="M1304.39 441.976C1304.39 450.751 1299.56 457.86 1293.59 457.86C1287.61 457.86 1282.78 450.751 1282.78 441.976C1282.78 433.201 1287.61 426.092 1293.59 426.092C1299.56 426.092 1304.39 433.201 1304.39 441.976Z" fill="black"/>
<path d="M1299.7 441.976C1299.7 450.751 1294.87 457.86 1288.9 457.86C1282.93 457.86 1278.09 450.751 1278.09 441.976C1278.09 433.201 1282.93 426.092 1288.9 426.092C1294.87 426.092 1299.7 433.201 1299.7 441.976Z" fill="#3F964F"/>
<path d="M1294.15 429.139C1294.15 429.139 1299.64 390.011 1352.71 408.403C1350.94 401.129 1305.09 378.623 1287.17 426.813C1289.26 430.067 1294.15 429.139 1294.15 429.139Z" fill="#3F964F"/>
<path d="M1474.89 1541.91L1446.5 1570.92L1477.76 1556.88L1474.89 1541.91Z" fill="#0E6A41"/>
<path d="M1512.63 1679.32C1501.06 1677.45 1482.58 1682.54 1472.26 1676.99C1452.19 1687.12 1426.86 1700.79 1426.86 1700.79C1439.41 1714.33 1479.35 1737.57 1479.35 1737.57C1500.53 1727.55 1521.5 1716.9 1544.74 1713.91C1542.51 1702.3 1538.26 1691.03 1532.68 1680.61C1525.98 1680.83 1519.26 1680.39 1512.63 1679.32Z" fill="#201D40"/>
<path d="M1497.74 1527.43C1487.62 1532.35 1483.88 1535.32 1474.89 1541.91C1475.94 1558.37 1473.01 1578.34 1477.87 1594.1C1485.8 1619.81 1479.76 1658.73 1463.94 1680.51C1476.08 1718.34 1534.7 1716.54 1560.23 1712.39C1572.97 1684.52 1572.71 1650.27 1582.3 1600.55L1578.95 1537.22C1564.16 1526.9 1541.42 1523.74 1541.42 1523.74C1541.42 1523.74 1510.25 1521.34 1497.74 1527.43Z" fill="#3F964F"/>
<path d="M1407.68 1718.2C1426.3 1732.84 1447.94 1746.64 1469.09 1757.32C1478.32 1749.76 1479.37 1747.12 1481.85 1735.45C1465.88 1721.04 1449.46 1708.42 1432.95 1694.63C1423.15 1703.29 1407.68 1718.2 1407.68 1718.2Z" fill="#F37A50"/>
<path d="M1401.99 1756.46C1403.99 1765.13 1406.52 1773.42 1409.17 1781.91C1429.28 1779.08 1449.61 1774.42 1468.44 1766.77C1467 1754.54 1465.89 1742.28 1464.46 1730.05C1445.64 1742.85 1424.27 1751.87 1401.99 1756.46Z" fill="#F37A50"/>
<path d="M1552.31 1683.37L1463.39 1734.01L1474.62 1758.95C1486.61 1764.98 1527.73 1770.84 1547.72 1759.43C1570.73 1746.31 1567.84 1689.91 1552.31 1683.37Z" fill="#201D40"/>
<path d="M1509.8 1779.85L1525.31 1749.57C1525.31 1749.57 1515.92 1749.71 1510.66 1759.96C1507.13 1766.86 1507.82 1775.45 1509.8 1779.85Z" fill="white"/>
<path d="M1481.79 1747.95C1479.29 1752.8 1480.89 1761.64 1481.61 1762.08C1484.55 1763.87 1489.95 1768.01 1492.28 1769.67C1494.33 1771.13 1505.72 1781.64 1505.72 1781.64L1511.68 1782.78L1522.31 1763.27L1525.29 1747.25C1525.29 1747.25 1517.78 1746.61 1513.13 1745.41C1506.88 1743.79 1500.1 1740.35 1493.96 1738.18C1492.99 1737.84 1485.17 1741.39 1481.79 1747.95Z" fill="#E62552"/>
<path d="M1515.03 1762.08C1511.05 1769.84 1509.91 1782.7 1505.72 1781.64C1505.72 1781.64 1509.65 1789.58 1517.26 1789.85C1520.51 1787.04 1525.49 1779.32 1530.14 1771.42C1534.8 1763.52 1537.51 1753.15 1537.51 1753.15C1537.51 1753.15 1530.05 1747.63 1525.29 1747.25C1526.14 1748.9 1518.37 1755.56 1515.03 1762.08Z" fill="white"/>
<path d="M1552.31 1683.37C1533.49 1671.47 1500.73 1712.77 1426 1745.95C1430.91 1755.08 1436.08 1768.57 1440.4 1778.44C1440.4 1778.44 1503.67 1765.94 1540.34 1740.1C1561.13 1744.02 1563.7 1729.03 1563.85 1728.07C1566.26 1708.57 1560.73 1688.7 1552.31 1683.37Z" fill="#2C2858"/>
<path d="M1372.5 1701.86C1382.72 1715.69 1439.65 1743.13 1439.65 1743.13L1460.2 1713.18C1450.77 1706.11 1401.99 1668.71 1386.24 1668.71C1377.29 1670.75 1359.24 1683.94 1372.5 1701.86Z" fill="#2C2858"/>
<path d="M1374.72 1760.91L1386.25 1796.64C1386.25 1796.64 1393.45 1789.2 1389.56 1777.1C1386.94 1768.96 1379.7 1762.8 1374.72 1760.91Z" fill="white"/>
<path d="M1421.45 1763.94C1419.61 1758.21 1411.47 1752.57 1410.56 1752.79C1406.88 1753.69 1399.44 1754.67 1396.33 1755.19C1393.58 1755.65 1376.5 1756.34 1376.5 1756.34L1370.96 1760.09L1377.89 1783.61L1388.07 1798.42C1388.07 1798.42 1394.43 1793.07 1398.98 1790.38C1405.12 1786.76 1413.1 1784.16 1419.59 1781.06C1420.6 1780.57 1423.94 1771.7 1421.45 1763.94Z" fill="#E62552"/>
<path d="M1384.5 1778.85C1381.55 1769.69 1372.41 1758.78 1376.5 1756.34C1376.5 1756.34 1367.25 1753.21 1361.1 1758.93C1360.76 1763.66 1362.89 1773.56 1365.43 1783.36C1367.96 1793.15 1373.93 1803.35 1373.93 1803.35C1373.93 1803.35 1384.05 1801.83 1388.07 1798.42C1386.12 1797.8 1386.98 1786.54 1384.5 1778.85Z" fill="white"/>
<path d="M1528.16 1475.38C1526.48 1475.44 1524.81 1475.75 1523.21 1476.28C1522.77 1476.43 1522.53 1476.89 1522.68 1477.34C1522.8 1477.69 1523.12 1477.91 1523.47 1477.91C1523.56 1477.91 1523.65 1477.9 1523.74 1477.87C1525.18 1477.39 1526.69 1477.11 1528.22 1477.06C1528.68 1477.04 1529.05 1476.65 1529.03 1476.19C1529.01 1475.72 1528.61 1475.36 1528.16 1475.38Z" fill="white"/>
<path d="M1510.52 1656.29C1510.37 1656.29 1510.23 1656.29 1510.08 1656.29C1504.96 1656.05 1499.33 1651.38 1494.63 1643.48L1496.12 1642.6C1500.52 1649.98 1505.63 1654.34 1510.16 1654.55C1513.21 1654.7 1516.06 1652.97 1518.65 1649.42C1526.42 1638.77 1518.13 1597.52 1509.61 1585.13C1501.07 1572.67 1510.23 1558.88 1510.32 1558.75L1511.77 1559.72C1511.68 1559.85 1503.18 1572.68 1511.05 1584.15C1519.12 1595.9 1528.82 1638.42 1520.05 1650.43C1517.22 1654.32 1514.01 1656.29 1510.52 1656.29Z" fill="white"/>
<path d="M1525.62 1497.56H1525.6L1511.69 1497.61L1508.54 1530.47C1508.54 1530.47 1513.35 1539.47 1524.78 1539.05C1536.2 1538.62 1542.1 1530.57 1542.1 1530.57L1539.94 1497.32L1525.62 1497.56Z" fill="#F37A50"/>
<path d="M1550.8 1477.49C1548.66 1500.44 1532.32 1517.69 1514.3 1516.01C1496.27 1514.34 1483.39 1494.38 1485.53 1471.43C1487.65 1448.48 1504 1431.23 1522.02 1432.91C1540.04 1434.58 1552.92 1454.54 1550.8 1477.49Z" fill="#F37A50"/>
<path d="M1494.53 1476.09C1493.98 1477.74 1492.2 1478.63 1490.54 1478.08C1488.89 1477.54 1488 1475.76 1488.55 1474.1C1489.09 1472.45 1490.87 1471.56 1492.52 1472.1C1494.17 1472.65 1495.07 1474.43 1494.53 1476.09Z" fill="black"/>
<path d="M1519.86 1478.61C1519.27 1480.4 1517.35 1481.37 1515.56 1480.77C1513.77 1480.18 1512.81 1478.26 1513.4 1476.47C1513.99 1474.68 1515.91 1473.72 1517.7 1474.31C1519.49 1474.9 1520.46 1476.82 1519.86 1478.61Z" fill="black"/>
<path d="M1500.53 1479.54C1497.41 1483.97 1493.45 1489.36 1493.45 1489.36C1493.45 1489.36 1494.86 1494.3 1501.25 1494.72C1498.6 1493.45 1496.03 1491.48 1497.34 1487.94C1498.64 1484.4 1500.53 1479.54 1500.53 1479.54Z" fill="#DE623C"/>
<path d="M1525.24 1474.89C1525.35 1474.85 1525.46 1474.8 1525.58 1474.74C1526.32 1474.31 1526.58 1473.34 1526.15 1472.6C1524.97 1470.54 1521.52 1467.02 1516.92 1468.35C1516.08 1468.6 1515.61 1469.46 1515.85 1470.3C1516.09 1471.13 1516.96 1471.61 1517.8 1471.37C1521.2 1470.38 1523.41 1474.13 1523.43 1474.16C1523.8 1474.8 1524.55 1475.09 1525.24 1474.89Z" fill="#201D40"/>
<path d="M1495.8 1468.76C1496.01 1468.7 1496.21 1468.58 1496.38 1468.41C1496.87 1467.88 1496.85 1467.04 1496.32 1466.55C1496.24 1466.47 1494.26 1464.66 1491.63 1464.93C1489.83 1465.12 1488.24 1466.2 1486.89 1468.14C1486.47 1468.74 1486.62 1469.55 1487.22 1469.96C1487.81 1470.38 1488.63 1470.23 1489.04 1469.64C1489.94 1468.35 1490.9 1467.64 1491.91 1467.54C1493.33 1467.39 1494.52 1468.45 1494.53 1468.47C1494.88 1468.79 1495.36 1468.89 1495.8 1468.76Z" fill="#201D40"/>
<path d="M1557.47 1458.84C1558.56 1437.02 1538.27 1430.66 1538.27 1430.66C1538.27 1430.66 1542.69 1428.91 1541.35 1422.38C1538.26 1424.44 1534.43 1425.49 1530.72 1425.28C1505.76 1423.79 1490.27 1428.5 1493.12 1438.15C1494.14 1441.59 1478.13 1443.71 1486.22 1466.44C1486.75 1464.79 1488.58 1453.69 1493.33 1451.25C1498.1 1448.81 1495.53 1456.88 1506.46 1455.21C1517.49 1453.53 1524.53 1448.64 1532.78 1452.7C1539.39 1456.42 1550.5 1485.83 1549.04 1486.95C1553.58 1483.44 1556.99 1468.44 1557.47 1458.84Z" fill="#201D40"/>
<path d="M1485.84 1483.9C1485.84 1483.9 1488.44 1496.21 1491.28 1499.43C1491.66 1494.06 1497.05 1498.03 1500.84 1497.43C1509.99 1495.99 1525 1488.35 1530.49 1501.09C1542.26 1501.31 1547.77 1476.36 1547.77 1476.36C1556.01 1501.9 1542.03 1518.24 1513.6 1521.39C1493.26 1523.65 1483.18 1502.87 1485.84 1483.9Z" fill="#201D40"/>
<path d="M1511.7 1503.06C1513.32 1502.13 1514.92 1500.88 1516.5 1499.32C1516.92 1498.92 1516.92 1498.25 1516.51 1497.85C1516.11 1497.43 1515.45 1497.43 1515.04 1497.84C1511.53 1501.29 1507.98 1503.04 1504.49 1503.01C1500.17 1502.98 1497.38 1500.17 1497.35 1500.15C1496.95 1499.74 1496.28 1499.73 1495.87 1500.13C1495.46 1500.53 1495.45 1501.19 1495.85 1501.61C1495.99 1501.74 1499.23 1505.04 1504.43 1505.1C1506.87 1505.13 1509.3 1504.44 1511.7 1503.06Z" fill="#DE623C"/>
<path d="M1543.22 1473.63C1539.45 1477.52 1538.96 1483.18 1542.14 1486.27C1545.32 1489.36 1550.96 1488.71 1554.74 1484.83C1558.51 1480.94 1559 1475.28 1555.82 1472.19C1552.64 1469.1 1547 1469.74 1543.22 1473.63Z" fill="#F37A50"/>
<path d="M1545.39 1483.29C1543.96 1481.28 1544.38 1478.52 1546.35 1477.13C1548.31 1475.74 1551.05 1476.25 1552.48 1478.27C1553.91 1480.28 1553.48 1483.04 1551.52 1484.43C1549.57 1485.82 1546.81 1485.3 1545.39 1483.29Z" fill="white"/>
<path d="M1543.23 1491.03L1543.04 1490.93C1542.17 1490.45 1541.85 1489.36 1542.33 1488.49L1546.09 1481.62C1546.57 1480.76 1547.66 1480.44 1548.53 1480.91L1548.72 1481.02C1549.59 1481.49 1549.91 1482.59 1549.44 1483.46L1545.67 1490.32C1545.19 1491.19 1544.1 1491.51 1543.23 1491.03Z" fill="white"/>
<path d="M1441.05 1642.68C1440.88 1642.73 1440.71 1642.76 1440.54 1642.78H1439.99C1438.97 1642.67 1438.06 1641.97 1437.74 1640.93L1411.66 1556.88C1411.61 1556.7 1411.58 1556.54 1411.56 1556.36C1411.55 1556.25 1411.56 1556.15 1411.56 1556.04C1411.56 1555.97 1411.55 1555.9 1411.56 1555.84C1411.56 1555.77 1411.58 1555.72 1411.59 1555.66C1411.75 1554.71 1412.42 1553.87 1413.41 1553.56C1413.56 1553.52 1413.73 1553.47 1413.9 1553.46C1414.09 1553.44 1414.28 1553.44 1414.47 1553.46H1480.09L1506.39 1642.78H1441.01L1441.05 1642.68Z" fill="#E62552"/>
<path d="M1479.5 1553.56C1480.9 1553.13 1482.38 1553.91 1482.81 1555.31L1508.72 1639.15L1508.78 1639.35C1509.21 1640.74 1508.43 1642.22 1507.04 1642.65V1642.66C1505.65 1643.09 1504.16 1642.31 1503.73 1640.91L1477.76 1556.88C1477.32 1555.48 1478.11 1554 1479.5 1553.56Z" fill="#8A284C"/>
<path d="M1429.14 1562.32C1430 1565.02 1428.88 1567.79 1426.64 1568.51C1424.39 1569.23 1421.86 1567.63 1420.99 1564.93C1420.13 1562.24 1421.25 1559.46 1423.5 1558.74C1425.75 1558.02 1428.28 1559.62 1429.14 1562.32Z" fill="#95A6DB"/>
<path d="M1437.46 1562.74C1438.04 1564.57 1437.29 1566.45 1435.76 1566.94C1434.23 1567.43 1432.52 1566.35 1431.93 1564.51C1431.34 1562.68 1432.1 1560.8 1433.63 1560.31C1435.16 1559.82 1436.87 1560.91 1437.46 1562.74Z" fill="#95A6DB"/>
<path d="M1429.92 1606.89C1429.67 1606.72 1429.4 1606.62 1429.13 1606.55C1429.16 1606.51 1429.19 1606.46 1429.21 1606.43C1430.85 1603.96 1430.74 1601.01 1428.97 1599.85C1428.68 1599.66 1428.36 1599.53 1428.03 1599.45C1428.49 1597.63 1428.08 1595.88 1426.82 1595.05C1426.31 1594.72 1425.73 1594.57 1425.13 1594.58C1425.7 1592.78 1425.24 1590.91 1423.82 1589.97C1422.06 1588.8 1419.5 1589.56 1418.1 1591.66C1416.71 1593.76 1417.01 1596.41 1418.78 1597.58C1419.23 1597.88 1419.73 1598.05 1420.25 1598.11C1419.07 1600.41 1419.31 1602.91 1420.9 1603.97C1421.19 1604.16 1421.51 1604.29 1421.84 1604.36C1421.38 1606.19 1421.8 1607.93 1423.06 1608.76C1423.53 1609.08 1424.06 1609.22 1424.62 1609.24C1424.04 1610.8 1424.41 1612.5 1425.65 1613.32C1427.15 1614.31 1429.31 1613.67 1430.49 1611.9C1431.66 1610.12 1431.41 1607.88 1429.92 1606.89Z" fill="#F37A50"/>
<path d="M1510.6 1601.58L1504.62 1598.11C1504.62 1598.11 1502.96 1589.63 1493.36 1589.42C1494.46 1592.98 1496.04 1598.11 1496.04 1598.11C1496.04 1598.11 1491.32 1601.79 1480.09 1595.5C1469.13 1593.04 1473.82 1601.03 1470.18 1601.6C1464.82 1602.45 1474.09 1612.98 1485.04 1614.6C1499.21 1616.69 1500.88 1613.78 1500.88 1613.78L1508.9 1616.58L1510.6 1601.58Z" fill="#F37A50"/>
<path d="M1571.79 1611.45C1551.79 1610.05 1511.85 1599.37 1511.85 1599.37C1506.39 1607.74 1507.9 1618.87 1507.9 1618.87C1538.96 1646.09 1585.7 1654.89 1600.04 1648.33C1613.13 1642.35 1611.82 1555.48 1578.95 1537.22L1571.79 1611.45Z" fill="#0E6A41"/>
<path d="M1511.05 1560.21L1510.65 1560.01C1501.31 1555.34 1491.28 1528.78 1496.26 1516.53L1497.86 1517.68C1493.02 1529.61 1503.23 1553.73 1511.05 1558.25C1526.54 1549.93 1530.86 1529.47 1534.35 1513C1536.5 1502.8 1538.37 1493.99 1542.46 1490.29L1543.62 1491.57C1539.95 1494.9 1538.14 1503.45 1536.04 1513.36C1532.46 1530.33 1527.99 1551.45 1511.44 1560L1511.05 1560.21Z" fill="white"/>
<path d="M1530.89 1533.42L1530.03 1533.22C1529.33 1533.05 1528.91 1532.35 1529.07 1531.65L1530.92 1524.05C1531.09 1523.36 1531.78 1522.93 1532.48 1523.1L1533.34 1523.3C1534.04 1523.47 1534.46 1524.17 1534.29 1524.87L1532.45 1532.48C1532.28 1533.16 1531.58 1533.6 1530.89 1533.42Z" fill="white"/>
<path d="M1512.98 1558.8C1512.98 1559.8 1512.17 1560.62 1511.15 1560.62C1510.14 1560.62 1509.32 1559.8 1509.32 1558.8C1509.32 1557.78 1510.14 1556.96 1511.15 1556.96C1512.17 1556.96 1512.98 1557.78 1512.98 1558.8Z" fill="white"/>
<path d="M2000.23 1231.96C1991.3 1231.96 1984.04 1239.22 1984.04 1248.15C1984.04 1257.07 1991.3 1264.34 2000.23 1264.34C2009.15 1264.34 2016.42 1257.07 2016.42 1248.15C2016.42 1239.22 2009.15 1231.96 2000.23 1231.96ZM2000.23 1270.49C1987.91 1270.49 1977.89 1260.47 1977.89 1248.15C1977.89 1235.83 1987.91 1225.81 2000.23 1225.81C2012.55 1225.81 2022.57 1235.83 2022.57 1248.15C2022.57 1260.47 2012.55 1270.49 2000.23 1270.49Z" fill="white"/>
<path d="M236.939 951.654C224.489 951.654 214.361 961.783 214.361 974.23C214.361 986.676 224.489 996.805 236.939 996.805C249.387 996.805 259.515 986.676 259.515 974.23C259.515 961.783 249.387 951.654 236.939 951.654ZM236.939 1005.39C219.757 1005.39 205.779 991.415 205.779 974.23C205.779 957.053 219.757 943.07 236.939 943.07C254.119 943.07 268.097 957.053 268.097 974.23C268.097 991.415 254.119 1005.39 236.939 1005.39Z" fill="#E3EAFF"/>
<path d="M1202.08 1578.94C1193.16 1578.94 1185.9 1586.21 1185.9 1595.13C1185.9 1604.06 1193.16 1611.32 1202.08 1611.32C1211.01 1611.32 1218.27 1604.06 1218.27 1595.13C1218.27 1586.21 1211.01 1578.94 1202.08 1578.94ZM1202.08 1617.47C1189.77 1617.47 1179.74 1607.45 1179.74 1595.13C1179.74 1582.81 1189.77 1572.79 1202.08 1572.79C1214.4 1572.79 1224.43 1582.81 1224.43 1595.13C1224.43 1607.45 1214.4 1617.47 1202.08 1617.47Z" fill="white"/>
<path d="M1948.04 1195.76C1948.04 1202.8 1942.33 1208.51 1935.29 1208.51C1928.24 1208.51 1922.53 1202.8 1922.53 1195.76C1922.53 1188.71 1928.24 1183 1935.29 1183C1942.33 1183 1948.04 1188.71 1948.04 1195.76Z" fill="white"/>
<path d="M135.767 1318.49C150.067 1318.49 161.658 1330.09 161.658 1344.38C161.658 1358.69 150.067 1370.27 135.767 1370.27C121.468 1370.27 109.876 1358.69 109.876 1344.38C109.876 1330.09 121.468 1318.49 135.767 1318.49Z" fill="white"/>
<path d="M2017.85 940.674C2033.53 940.674 2046.25 953.381 2046.25 969.065C2046.25 984.74 2033.53 997.456 2017.85 997.456C2002.17 997.456 1989.46 984.74 1989.46 969.065C1989.46 953.381 2002.17 940.674 2017.85 940.674Z" fill="#E3EAFF"/>
<path d="M158.199 1279.38C166.47 1279.38 173.175 1286.08 173.175 1294.36C173.175 1302.63 166.47 1309.33 158.199 1309.33C149.927 1309.33 143.221 1302.63 143.221 1294.36C143.221 1286.08 149.927 1279.38 158.199 1279.38Z" fill="white"/>
<path d="M279.602 893.596C291.138 893.596 300.489 902.952 300.489 914.488C300.489 926.023 291.138 935.379 279.602 935.379C268.066 935.379 258.714 926.023 258.714 914.488C258.714 902.952 268.066 893.596 279.602 893.596Z" fill="#E3EAFF"/>
<path d="M1226 1525.76C1234.27 1525.76 1240.98 1532.47 1240.98 1540.74C1240.98 1549 1234.27 1555.71 1226 1555.71C1217.73 1555.71 1211.02 1549 1211.02 1540.74C1211.02 1532.47 1217.73 1525.76 1226 1525.76Z" fill="white"/>
<path d="M1205.87 892.146C1214.14 892.146 1220.85 898.856 1220.85 907.127C1220.85 915.399 1214.14 922.1 1205.87 922.1C1197.6 922.1 1190.9 915.399 1190.9 907.127C1190.9 898.856 1197.6 892.146 1205.87 892.146Z" fill="white"/>
<path d="M2017.2 1595.3C2025.47 1595.3 2032.18 1602.01 2032.18 1610.28C2032.18 1618.55 2025.47 1625.26 2017.2 1625.26C2008.93 1625.26 2002.23 1618.55 2002.23 1610.28C2002.23 1602.01 2008.93 1595.3 2017.2 1595.3Z" fill="white"/>
</svg>
