<svg width="2220" height="2200" viewBox="0 0 2220 2200" fill="none" xmlns="http://www.w3.org/2000/svg">
<path d="M2220 2200H0V0H2220V2200Z" fill="white"/>
<path d="M149.783 1629.3C149.783 1629.3 135.516 1673.04 194.619 1683.99C275.461 1698.97 732.536 1739.16 617.257 1769.06C552.181 1785.95 667.929 1808.04 984.896 1816.48C1301.86 1824.92 1845.74 1791.85 1662.84 1742.91C1479.95 1693.97 2225.13 1731.09 2179.74 1629.3H149.783Z" fill="#CFDDF9"/>
<path d="M507.14 1628.8C507.14 1628.8 277.367 1041.28 449.651 916.275C564.806 832.725 677.232 1043.08 822.917 945.64C952.615 858.893 868.771 655.017 995.866 558.503C1178.63 419.715 1410.62 1035.01 1592.88 942.443C1879.58 796.841 2054.86 1026.54 1855.77 1629.87L507.14 1628.8Z" fill="#D4E8FF"/>
<path d="M1113.58 424.747C1102.13 419.151 1090.2 415.331 1078.13 413.385L1079.85 404.61C1092.95 406.725 1105.87 410.871 1118.25 416.902L1113.58 424.747ZM1006.18 424.759L1000.89 417.253C1012.53 410.497 1025.36 406.109 1039.02 404.199L1040.51 413.011C1028.22 414.727 1016.67 418.679 1006.18 424.759ZM1170.94 470.603C1162.35 460.849 1153.49 452.207 1144.59 444.919L1151.19 438.308C1160.47 445.922 1169.7 454.915 1178.63 465.043L1170.94 470.603ZM958.581 477.408L949.764 473.468C956.217 461.623 963.377 451.144 971.043 442.333L978.758 447.844C971.519 456.172 964.733 466.119 958.581 477.408ZM1213.1 530.275C1206.63 519.24 1200.03 508.881 1193.47 499.49L1201.77 494.728C1208.46 504.313 1215.2 514.864 1221.79 526.093L1213.1 530.275ZM932.82 544.138L923.282 541.974C926.715 529.549 930.489 517.825 934.517 507.165L943.817 510.042C939.885 520.472 936.182 531.943 932.82 544.138ZM1246.38 594.974C1241.1 583.468 1235.78 572.445 1230.55 562.244L1239.47 558.497C1244.75 568.807 1250.13 579.938 1255.46 591.554L1246.38 594.974ZM918.049 614.264L908.322 612.983C910.303 600.522 912.491 588.532 914.814 577.34L924.471 578.996C922.18 590.055 920.016 601.912 918.049 614.264ZM1274.67 661.801C1269.92 649.787 1265.44 638.8 1260.98 628.224L1270.16 625.046C1274.66 635.682 1279.15 646.717 1283.92 658.791L1274.67 661.801ZM909.106 685.442L899.314 684.657C900.534 672.159 901.867 660.085 903.27 648.784L913.038 649.775C911.651 661.015 910.319 673.017 909.106 685.442ZM1789.69 700.465C1777.51 695.813 1765.2 692.936 1753.07 691.909L1753.97 683.037C1767.11 684.149 1780.41 687.255 1793.51 692.259L1789.69 700.465ZM1682.43 711.376L1676.8 704.079C1688.89 696.416 1701.1 690.736 1713.09 687.207L1716.14 695.682C1705.07 698.938 1693.73 704.219 1682.43 711.376ZM1300.43 729.678C1295.54 716.426 1291.51 705.622 1287.76 695.674L1297.05 692.791C1300.82 702.756 1304.85 713.581 1309.75 726.853L1300.43 729.678ZM1852.04 740.772C1842.57 731.988 1832.77 724.233 1822.91 717.726L1828.7 710.526C1839.01 717.327 1849.22 725.41 1859.07 734.551L1852.04 740.772ZM509.694 755.17C497.429 749.639 485.363 746.109 473.836 744.677L475.169 735.853C487.76 737.417 500.848 741.233 514.074 747.196L509.694 755.17ZM903.381 757.035L893.574 756.505C894.422 743.558 895.27 731.802 896.159 720.563L905.958 721.198C905.078 732.402 904.23 744.124 903.381 757.035ZM1627 760.536L1619.36 754.928C1628.57 744.623 1637.31 735.754 1646.07 727.817L1653.02 734.111C1644.51 741.829 1635.99 750.473 1627 760.536ZM403.666 763.261L397.704 756.179C409.442 748.066 421.659 742.214 434.016 738.789L436.892 747.305C425.654 750.421 414.475 755.79 403.666 763.261ZM1899.27 796.838C1892.23 786.424 1884.85 776.574 1877.32 767.563L1885.16 762.191C1892.87 771.432 1900.45 781.525 1907.65 792.184L1899.27 796.838ZM571.554 797.219C561.507 788.356 551.628 780.526 542.193 773.948L548.187 766.889C557.924 773.677 568.092 781.735 578.411 790.837L571.554 797.219ZM1325.63 797.843C1321.12 785.873 1316.7 773.896 1312.96 763.76L1322.29 760.941C1326.03 771.065 1330.44 783.021 1334.93 794.965L1325.63 797.843ZM353.199 815.963L344.914 811.169C352.638 800.208 360.603 790.308 368.586 781.745L376.095 787.492C368.392 795.754 360.69 805.333 353.199 815.963ZM1581.03 818.476L1572.83 813.565C1581.03 802.305 1588.39 792.565 1595.28 783.788L1603.28 788.955C1596.46 797.647 1589.18 807.303 1581.03 818.476ZM899.164 828.801L889.339 828.353C890.006 816.454 890.664 804.548 891.361 792.434L901.177 792.9C900.48 805.009 899.821 816.908 899.164 828.801ZM623.962 850.306C615.042 840.274 606.741 831.346 598.581 823.009L605.934 817.1C614.198 825.541 622.599 834.576 631.616 844.718L623.962 850.306ZM1934.97 860.027C1929.69 848.872 1924.1 838.038 1918.36 827.822L1927.12 823.782C1932.95 834.169 1938.63 845.181 1944.01 856.512L1934.97 860.027ZM1352.82 865.581C1348.37 855.463 1343.77 844.422 1338.75 831.83L1348 828.808C1352.97 841.306 1357.54 852.256 1361.95 862.284L1352.82 865.581ZM1537.91 878.754L1529.7 873.859C1536.68 864.237 1543.9 854.042 1551.21 843.743L1559.47 848.557C1552.15 858.884 1544.94 869.087 1537.91 878.754ZM316.724 878.755L307.732 875.159C313.128 864.086 318.878 853.213 324.989 842.579L333.704 846.697C327.692 857.159 322.035 867.858 316.724 878.755ZM894.794 900.681L884.979 900.105C885.725 889.67 886.485 877.943 887.302 864.25L897.118 864.73C896.301 878.454 895.54 890.213 894.794 900.681ZM671.819 907.3C662.825 896.163 655.331 887.021 648.232 878.528L656.068 873.151C663.2 881.684 670.725 890.864 679.752 902.041L671.819 907.3ZM1961.99 926.888C1958.03 915.347 1953.81 903.988 1949.43 893.122L1958.67 890.071C1963.1 901.069 1967.37 912.567 1971.37 924.244L1961.99 926.888ZM1387.91 930.831C1381.55 921.939 1375.25 911.467 1368.65 898.819L1377.53 895.008C1383.95 907.296 1390.05 917.43 1396.16 925.987L1387.91 930.831ZM1490.23 936.956L1483 930.914C1490.46 923.6 1498.45 914.579 1507.44 903.332L1515.4 908.555C1506.18 920.09 1497.95 929.38 1490.23 936.956ZM289.436 945.446L280.036 942.843C283.942 931.269 288.227 919.76 292.773 908.633L301.99 911.725C297.511 922.691 293.288 934.038 289.436 945.446ZM1438.18 964.638C1430.53 964.638 1423.02 962.565 1415.87 958.478L1421.11 950.942C1431.86 957.093 1442.44 957.106 1453.86 952.202L1458.08 960.24C1451.33 963.158 1444.65 964.638 1438.18 964.638ZM718.533 965.37C710.543 955.592 702.254 945.257 695.115 936.338L703.071 931.108C710.199 940.011 718.468 950.325 726.433 960.07L718.533 965.37ZM887.651 972.609L877.906 971.472C879.413 960.84 880.769 949.199 882.038 935.88L891.837 936.65C890.545 950.091 889.181 961.854 887.651 972.609ZM1982.19 995.822C1979.27 984.059 1976.13 972.397 1972.86 961.16L1982.36 958.882C1985.67 970.228 1988.83 982.001 1991.78 993.875L1982.19 995.822ZM270.524 1014.56L260.874 1012.86C263.421 1000.98 266.302 989.121 269.438 977.632L278.981 979.77C275.884 991.114 273.039 1002.82 270.524 1014.56ZM768.191 1021.87C760.36 1013.96 751.993 1004.87 742.608 994.065L750.334 988.557C759.584 999.209 767.818 1008.16 775.505 1015.91L768.191 1021.87ZM868.369 1043.53L859.615 1039.48C864.111 1031.5 868.091 1020.42 871.438 1006.55L881.038 1008.45C877.463 1023.27 873.317 1034.75 868.369 1043.53ZM834.265 1064.72C820.606 1062.77 810.725 1057.14 797.04 1047.41L803.254 1040.51C815.241 1049.01 823.901 1054.11 835.311 1055.87L834.265 1064.72ZM1996.81 1065.98C1994.75 1054.09 1992.52 1042.25 1990.13 1030.79L1999.79 1029.14C2002.2 1040.7 2004.46 1052.63 2006.51 1064.61L1996.81 1065.98ZM259.172 1085.09L249.392 1084.2C250.728 1072.16 252.355 1060.12 254.231 1048.42L263.959 1049.7C262.103 1061.27 260.493 1073.18 259.172 1085.09ZM2006.72 1136.86C2005.41 1124.9 2003.93 1112.95 2002.31 1101.35L2012.06 1100.24C2013.69 1111.91 2015.18 1123.94 2016.51 1135.98L2006.72 1136.86ZM254.502 1156.3L244.673 1156.11C244.948 1144.02 245.476 1131.91 246.243 1120.12L256.056 1120.64C255.296 1132.32 254.772 1144.32 254.502 1156.3ZM2012.6 1208.15C2011.93 1196.18 2011.1 1184.18 2010.14 1172.47L2019.94 1171.81C2020.9 1183.59 2021.74 1195.66 2022.41 1207.69L2012.6 1208.15ZM245.865 1228.11C245.214 1216.06 244.781 1203.95 244.58 1192.13L254.409 1192C254.608 1203.71 255.037 1215.72 255.682 1227.67L245.865 1228.11ZM2014.92 1279.63C2014.81 1267.65 2014.56 1255.62 2014.19 1243.88L2024.01 1243.61C2024.38 1255.42 2024.64 1267.51 2024.76 1279.55L2014.92 1279.63ZM252.233 1299.88C250.769 1287.89 249.493 1275.83 248.442 1264.04L258.241 1263.32C259.283 1275.02 260.55 1286.99 262.004 1298.89L252.233 1299.88ZM2023.93 1351.43L2014.1 1351.17C2014.49 1339.2 2014.74 1327.16 2014.89 1315.4L2024.72 1315.5C2024.58 1327.31 2024.31 1339.41 2023.93 1351.43ZM263.182 1371.16C260.996 1359.29 258.972 1347.32 257.167 1335.58L266.903 1334.36C268.696 1346.01 270.706 1357.9 272.877 1369.69L263.182 1371.16ZM2020.25 1423.22L2010.44 1422.66C2011.27 1410.74 2012 1398.72 2012.6 1386.92L2022.43 1387.34C2021.82 1399.18 2021.09 1411.25 2020.25 1423.22ZM278.256 1441.81C275.416 1430.08 272.715 1418.22 270.226 1406.57L279.876 1404.88C282.349 1416.46 285.035 1428.25 287.856 1439.9L278.256 1441.81ZM2013.99 1494.84L2004.2 1494C2005.45 1482.08 2006.61 1470.09 2007.64 1458.35L2017.42 1459.06C2016.4 1470.83 2015.25 1482.88 2013.99 1494.84ZM297.155 1511.69C293.713 1500.18 290.377 1488.46 287.237 1476.85L296.785 1474.73C299.905 1486.27 303.222 1497.92 306.642 1509.36L297.155 1511.69ZM2005.38 1566.26L1995.62 1565.17C1997.24 1553.29 1998.79 1541.33 2000.19 1529.61L2009.97 1530.58C2008.54 1542.34 2007.01 1554.34 2005.38 1566.26ZM319.824 1580.67C315.806 1569.51 311.829 1557.95 308.007 1546.3L317.428 1543.76C321.227 1555.33 325.176 1566.82 329.169 1577.9L319.824 1580.67Z" fill="#DCE6FF"/>
<path d="M2073.6 1316.89C1992.03 1303.21 1999.42 1508.73 1883.14 1508.73C1776.83 1508.73 1719.94 1049.56 1603.28 1142.95C1134.29 1518.4 1499.19 879.502 1183.85 867.015C1041.25 861.368 946.235 1033.34 911.191 1337.83C860.4 1613.1 742.608 1127.88 621.386 1172.99C544.343 1201.66 553.167 1508.73 446.858 1508.73C330.586 1508.73 338.246 1335.91 256.675 1349.59C168.851 1364.31 148.27 1632.26 148.27 1632.26H2181.73C2181.73 1632.26 2161.43 1331.61 2073.6 1316.89Z" fill="#EEF7FF"/>
<path d="M1995.43 1549.5C1920.4 1544.65 1932.64 1588.46 1825.67 1588.46C1727.87 1588.46 1730.55 1490.28 1665.11 1469.41C1544.59 1430.99 1445.22 1625.47 1398.49 1527.87C1309.75 1268.88 1050.91 1139 931.502 1527.87C884.771 1625.47 775.503 1451.31 664.888 1469.41C596.799 1480.56 602.128 1588.46 504.327 1588.46C397.359 1588.46 409.604 1544.65 334.562 1549.5C253.765 1554.72 229.633 1632.26 229.633 1632.26H2100.36C2100.36 1632.26 2076.23 1554.72 1995.43 1549.5Z" fill="#DCE6FF"/>
<path d="M672.258 862.922C548.662 872.074 531.945 688.477 655.143 675.132C778.735 665.987 795.452 849.585 672.258 862.922ZM830.465 766.239L828.22 741.61L806.454 743.59C803.401 726.34 797.348 710.248 788.893 695.808L806.729 683.214L792.471 663.009L774.617 675.611C763.598 662.545 750.344 651.5 735.505 643.027L744.667 623.189L722.217 612.815L713.063 632.637C697.334 626.926 680.414 623.884 662.895 624.003L660.91 602.233L636.283 604.477L638.267 626.248C621.016 629.298 604.925 635.352 590.487 643.809L577.901 625.976L557.695 640.232L570.294 658.089C557.231 669.11 546.192 682.367 537.718 697.214L517.88 688.046L507.511 710.503L527.329 719.655C521.623 735.388 518.581 752.311 518.698 769.833L496.932 771.822L499.177 796.452L520.943 794.463C523.997 811.722 530.048 827.814 538.505 842.253L520.668 854.84L534.927 875.053L552.78 862.45C563.8 875.516 577.054 886.553 591.893 895.035L582.73 914.873L605.181 925.247L614.334 905.425C630.064 911.127 646.983 914.178 664.503 914.058L666.487 935.829L691.114 933.584L689.13 911.814C706.382 908.755 722.472 902.701 736.911 894.244L749.497 912.085L769.702 897.822L757.103 879.972C770.165 868.951 781.205 855.694 789.68 840.848L809.517 850.016L819.886 827.558L800.068 818.406C805.774 802.673 808.816 785.75 808.701 768.228L830.465 766.239Z" fill="#7689D6"/>
<path d="M1638.31 813.302C1563.93 803.132 1578.88 690.301 1653.15 699.578C1727.53 709.747 1712.59 822.578 1638.31 813.302ZM1796.59 818.262L1808.75 756.687L1773.41 749.703C1772.8 738.167 1770.62 726.922 1767.06 716.214L1797.31 695.951L1762.38 643.803L1733.28 663.302C1723.72 654.295 1712.73 646.686 1700.55 640.908L1707.75 604.557L1646.18 592.375L1638.98 628.737C1626.5 629.404 1614.34 631.901 1602.84 636.011L1584.5 608.624L1532.36 643.555L1550.72 670.942C1542.53 680.014 1535.59 690.301 1530.22 701.611L1494.88 694.617L1482.71 756.192L1518.05 763.187C1518.77 776.638 1521.6 789.702 1526.3 801.959L1497.19 821.469L1532.11 873.616L1562.37 853.349C1570.9 860.722 1580.48 867.015 1590.91 871.968L1583.71 908.329L1645.28 920.504L1652.48 884.143C1664.97 883.482 1677.13 880.981 1688.62 876.866L1710 908.792L1762.13 873.861L1740.76 841.934C1748.93 832.871 1755.87 822.578 1761.24 811.279L1796.59 818.262Z" fill="#F49F9F"/>
<path d="M1403.72 1615.05H1086V1418.04H1403.72V1615.05Z" fill="#255084"/>
<path d="M1403.72 1526.17H1086V1302.41H1403.72V1526.17Z" fill="#1D3F70"/>
<path d="M1578.09 1653.64H911.63C898.254 1653.64 887.408 1642.79 887.408 1629.41C887.408 1616.04 898.254 1605.19 911.63 1605.19H1578.09C1591.46 1605.19 1602.31 1616.04 1602.31 1629.41C1602.31 1642.79 1591.46 1653.64 1578.09 1653.64Z" fill="#1D3F70"/>
<path d="M631.385 1448.04V830.001C631.385 804.622 651.956 784.052 677.331 784.052H1812.38C1837.75 784.052 1858.33 804.622 1858.33 830.001V1448.04C1858.33 1473.42 1837.75 1494 1812.38 1494H677.331C651.956 1494 631.385 1473.42 631.385 1448.04Z" fill="#255084"/>
<path d="M1810.29 825.744V1402.72H679.431V825.744H1810.29Z" fill="#91A9D8"/>
<path d="M1270.57 1447.76C1270.57 1461.96 1259.06 1473.47 1244.86 1473.47C1230.66 1473.47 1219.14 1461.96 1219.14 1447.76C1219.14 1433.55 1230.66 1422.04 1244.86 1422.04C1259.06 1422.04 1270.57 1433.55 1270.57 1447.76Z" fill="#1D3F70"/>
<path d="M1732.66 991.766C1728.72 944.965 1694.2 909.238 1652.92 909.238H836.803C789.532 909.238 752.538 955.612 757.055 1009.21C761 1056.01 795.523 1091.73 836.803 1091.73H1652.92C1700.19 1091.73 1737.18 1045.36 1732.66 991.766Z" fill="#B0C7F5"/>
<path d="M1602.31 1164.59H1146.14C1142.35 1164.59 1139.27 1161.52 1139.27 1157.73C1139.27 1153.93 1142.35 1150.86 1146.14 1150.86H1602.31C1606.1 1150.86 1609.18 1153.93 1609.18 1157.73C1609.18 1161.52 1606.1 1164.59 1602.31 1164.59Z" fill="#B0C7F5"/>
<path d="M1081.64 1164.59H887.405C883.615 1164.59 880.547 1161.52 880.547 1157.73C880.547 1153.93 883.615 1150.86 887.405 1150.86H1081.64C1085.43 1150.86 1088.51 1153.93 1088.51 1157.73C1088.51 1161.52 1085.43 1164.59 1081.64 1164.59Z" fill="#B0C7F5"/>
<path d="M1602.31 1227.1H1346.96C1343.15 1227.1 1340.08 1224.03 1340.08 1220.24C1340.08 1216.44 1343.15 1213.37 1346.96 1213.37H1602.31C1606.1 1213.37 1609.18 1216.44 1609.18 1220.24C1609.18 1224.03 1606.1 1227.1 1602.31 1227.1Z" fill="#B0C7F5"/>
<path d="M1314.67 1227.1H887.405C883.615 1227.1 880.547 1224.03 880.547 1220.24C880.547 1216.45 883.615 1213.37 887.405 1213.37H1314.67C1318.46 1213.37 1321.53 1216.45 1321.53 1220.24C1321.53 1224.03 1318.46 1227.1 1314.67 1227.1Z" fill="#B0C7F5"/>
<path d="M1602.31 1289.61H1360.46C1356.67 1289.61 1353.59 1286.54 1353.59 1282.75C1353.59 1278.96 1356.67 1275.88 1360.46 1275.88H1602.31C1606.1 1275.88 1609.18 1278.96 1609.18 1282.75C1609.18 1286.54 1606.1 1289.61 1602.31 1289.61Z" fill="#B0C7F5"/>
<path d="M1325.99 1289.62H1123.7C1119.91 1289.62 1116.84 1286.54 1116.84 1282.75C1116.84 1278.96 1119.91 1275.88 1123.7 1275.88H1325.99C1329.78 1275.88 1332.86 1278.96 1332.86 1282.75C1332.86 1286.54 1329.78 1289.62 1325.99 1289.62Z" fill="#B0C7F5"/>
<path d="M1074.63 1289.62H887.405C883.615 1289.62 880.547 1286.54 880.547 1282.75C880.547 1278.96 883.615 1275.88 887.405 1275.88H1074.63C1078.42 1275.88 1081.49 1278.96 1081.49 1282.75C1081.49 1286.54 1078.42 1289.62 1074.63 1289.62Z" fill="#B0C7F5"/>
<path d="M1602.31 1352.12H1473.55C1469.76 1352.12 1466.69 1349.05 1466.69 1345.26C1466.69 1341.46 1469.76 1338.39 1473.55 1338.39H1602.31C1606.1 1338.39 1609.18 1341.46 1609.18 1345.26C1609.18 1349.05 1606.1 1352.12 1602.31 1352.12Z" fill="#B0C7F5"/>
<path d="M1449.02 1352.12H1244.85C1241.06 1352.12 1238 1349.05 1238 1345.26C1238 1341.46 1241.06 1338.39 1244.85 1338.39H1449.02C1452.81 1338.39 1455.89 1341.46 1455.89 1345.26C1455.89 1349.05 1452.81 1352.12 1449.02 1352.12Z" fill="#B0C7F5"/>
<path d="M1213.21 1352.12H887.405C883.615 1352.12 880.547 1349.05 880.547 1345.26C880.547 1341.46 883.615 1338.39 887.405 1338.39H1213.21C1217 1338.39 1220.08 1341.46 1220.08 1345.26C1220.08 1349.05 1217 1352.12 1213.21 1352.12Z" fill="#B0C7F5"/>
<path d="M916.368 1057.12L877.772 1036.87L839.214 1057.2L846.539 1014.22L815.302 983.827L858.426 977.514L877.676 938.412L896.998 977.483L940.13 983.708L908.955 1014.16L916.368 1057.12Z" fill="white"/>
<path d="M1099.94 1057.12L1061.34 1036.87L1022.79 1057.2L1030.11 1014.22L998.873 983.827L1042 977.514L1061.25 938.412L1080.57 977.483L1123.71 983.708L1092.52 1014.16L1099.94 1057.12Z" fill="white"/>
<path d="M1283.51 1057.12L1244.91 1036.87L1206.36 1057.2L1213.68 1014.22L1182.44 983.827L1225.57 977.514L1244.82 938.412L1264.14 977.483L1307.28 983.708L1276.1 1014.16L1283.51 1057.12Z" fill="white"/>
<path d="M1467.08 1057.12L1428.48 1036.87L1389.92 1057.19L1397.25 1014.22L1366.01 983.826L1409.14 977.518L1428.38 938.408L1447.71 977.482L1490.85 983.703L1459.66 1014.16L1467.08 1057.12Z" fill="white"/>
<path d="M1650.64 1057.12L1612.05 1036.87L1573.49 1057.2L1580.82 1014.23L1549.58 983.831L1592.7 977.521L1611.95 938.414L1631.28 977.483L1674.41 983.709L1643.23 1014.16L1650.64 1057.12Z" fill="#91A9D8"/>
<path d="M489.257 1170.04C489.257 1170.04 470.812 1175.93 471.819 1195.55L486.534 1198.59L489.257 1170.04Z" fill="#F99370"/>
<path d="M540.233 1307.62C561.049 1303.53 582.232 1299.24 602.027 1291.64C608.257 1289.42 613.829 1286.76 617.099 1280.35C624.029 1268.01 626.08 1251.88 627.189 1237.51C628.083 1232.21 625.45 1222.48 633.419 1222.34C638.247 1222.45 639.001 1227.66 640.038 1231.28C641.394 1236.31 642.437 1241.35 643.249 1246.52C651.455 1303.98 627.066 1319.96 576.526 1336.05C566.501 1339.06 556.332 1341.62 545.978 1343.22C522.69 1346.39 517.137 1311.93 540.233 1307.62Z" fill="#F99370"/>
<path d="M620.093 1203.48C620.093 1203.48 639.668 1203.13 638.533 1226.21L626.969 1231.33L620.093 1203.48Z" fill="#F99370"/>
<path d="M603.284 1726.92L557.05 1730.49C553.003 1730.64 552.714 1726.53 553.212 1723.28C554.869 1711.59 548.33 1685.54 546.583 1673.79C546.193 1671.64 547.748 1669.63 549.926 1669.46L570.331 1667.88C572.542 1667.72 574.403 1669.52 574.297 1671.73L572.87 1701.58C572.372 1715.22 586.885 1715.5 596.22 1716.58C599.949 1717.22 603.883 1718.34 605.876 1720.94C607.727 1723.24 606.24 1726.69 603.284 1726.92Z" fill="#F99370"/>
<path d="M551.658 1726.09C551.958 1728.34 553.281 1730.84 555.903 1730.58C555.903 1730.58 603.86 1726.88 603.86 1726.88C606.339 1726.69 607.904 1724.07 606.845 1721.82C604.579 1716.73 597.364 1709.45 574.604 1709.93C571.375 1710.49 564.042 1712.18 553.188 1711.55C553.188 1711.55 549.951 1717.62 551.658 1726.09Z" fill="#1D3F70"/>
<path d="M591.926 1721.28C591.798 1721.28 591.667 1721.27 591.537 1721.23C590.999 1721.05 590.703 1720.48 590.873 1719.94C592.645 1714.39 596.601 1712.41 596.769 1712.33C597.279 1712.09 597.887 1712.29 598.134 1712.8C598.381 1713.31 598.171 1713.92 597.666 1714.16C597.53 1714.23 594.314 1715.88 592.822 1720.56C592.691 1720.98 592.329 1721.25 591.926 1721.28Z" fill="#E8C0A6"/>
<path d="M583.934 1720.93C583.834 1720.94 583.732 1720.93 583.629 1720.9C583.079 1720.79 582.734 1720.24 582.858 1719.68C584.269 1713.47 589.229 1710.33 589.439 1710.21C589.921 1709.91 590.547 1710.06 590.844 1710.53C591.144 1711.01 590.998 1711.63 590.52 1711.94C590.474 1711.97 586.068 1714.78 584.852 1720.13C584.75 1720.59 584.369 1720.9 583.934 1720.93Z" fill="#E8C0A6"/>
<path d="M574.837 1720.52C574.726 1720.53 574.612 1720.52 574.497 1720.49C573.951 1720.35 573.627 1719.79 573.77 1719.24C575.431 1712.94 579.984 1709.34 580.177 1709.19C580.621 1708.85 581.262 1708.93 581.61 1709.37C581.957 1709.82 581.878 1710.46 581.435 1710.8C581.393 1710.84 577.226 1714.16 575.746 1719.76C575.633 1720.19 575.258 1720.49 574.837 1720.52Z" fill="#E8C0A6"/>
<path d="M606.845 1721.82L551.658 1726.09C551.991 1727.76 552.583 1729.36 553.542 1730.76L603.86 1726.88C606.305 1726.69 607.87 1724.14 606.881 1721.9C606.869 1721.87 606.857 1721.85 606.845 1721.82Z" fill="#10325B"/>
<path d="M584.166 1689.31C582.288 1695.43 581.084 1698.97 581.084 1698.97C581.084 1698.97 561.068 1707.16 542.543 1699.87C542.543 1699.87 542.63 1698.53 542.793 1696.1C542.805 1695.81 542.83 1695.51 542.849 1695.2C542.911 1694.24 542.98 1693.15 543.054 1691.94C544.677 1665.99 548.015 1589.62 546.524 1570.4C544.608 1545.72 534.993 1524.8 524.567 1510.11C520.948 1505.02 517.236 1500.67 513.71 1497.18C493.008 1476.64 471.214 1477.41 478.875 1441.4C480.005 1436.1 526.794 1438.42 526.794 1438.42L579.593 1446.94C579.593 1446.94 602.866 1503.76 607.184 1557.4C610.634 1600.32 591.367 1665.89 584.166 1689.31Z" fill="#1D3F70"/>
<path d="M550.629 1696.1H542.793C542.805 1695.81 542.83 1695.51 542.849 1695.2C542.911 1694.24 542.98 1693.15 543.054 1691.94C544.676 1665.99 548.015 1589.62 546.524 1570.4C544.608 1545.72 534.993 1524.8 524.567 1510.11L525.753 1495.92C525.753 1495.92 545.981 1524.6 551.16 1550.73C556.339 1576.87 550.629 1696.1 550.629 1696.1Z" fill="#103663"/>
<path d="M584.168 1689.31C582.289 1695.42 581.085 1698.97 581.085 1698.97C581.085 1698.97 561.066 1707.16 542.54 1699.87C542.54 1699.87 542.738 1696.94 543.052 1691.94L543.059 1691.93C543.059 1691.93 564.526 1698.19 584.168 1689.31Z" fill="#103663"/>
<path d="M353.775 1671.41L334.275 1629.32C333.384 1627.4 334.293 1625.14 336.253 1624.35C346.645 1622.03 361.066 1613.41 370.233 1607.92C370.233 1607.92 384.593 1626.98 382.482 1627.66L359.968 1639.34C356.202 1644.14 356.935 1642.37 358.173 1648.8C359.406 1657.03 363.694 1664.6 360.286 1671.74C358.767 1674.28 355.023 1674.09 353.775 1671.41Z" fill="#F99370"/>
<path d="M336.516 1622.73C334.508 1623.8 332.632 1625.91 333.791 1628.28L354.018 1671.93C355.061 1674.19 358.06 1674.74 359.793 1672.96C363.766 1669.06 368.068 1659.76 359.674 1638.59C358.013 1635.76 353.874 1629.48 350.668 1619.09C350.668 1619.09 343.848 1618.18 336.516 1622.73Z" fill="#1D3F70"/>
<path d="M355.096 1658.79C355.042 1658.67 355.008 1658.54 355.001 1658.41C354.974 1657.84 355.408 1657.37 355.972 1657.34C361.797 1657.05 365.03 1660.07 365.165 1660.2C365.572 1660.6 365.588 1661.24 365.2 1661.64C364.813 1662.06 364.169 1662.07 363.761 1661.68C363.649 1661.58 360.982 1659.15 356.072 1659.38C355.644 1659.4 355.265 1659.15 355.096 1658.79Z" fill="#E8C0A6"/>
<path d="M352.624 1651.18C352.582 1651.09 352.553 1650.99 352.539 1650.88C352.463 1650.33 352.856 1649.81 353.414 1649.73C359.724 1648.89 364.4 1652.44 364.595 1652.59C365.044 1652.94 365.124 1653.58 364.78 1654.02C364.438 1654.47 363.797 1654.55 363.349 1654.2C363.308 1654.17 359.129 1651.03 353.688 1651.76C353.233 1651.82 352.807 1651.57 352.624 1651.18Z" fill="#E8C0A6"/>
<path d="M349.829 1642.51C349.783 1642.41 349.753 1642.29 349.741 1642.18C349.684 1641.62 350.094 1641.12 350.655 1641.06C357.136 1640.42 362.097 1643.43 362.306 1643.55C362.785 1643.85 362.935 1644.48 362.641 1644.96C362.345 1645.44 361.717 1645.59 361.236 1645.3C361.191 1645.27 356.631 1642.52 350.857 1643.1C350.414 1643.14 350.008 1642.9 349.829 1642.51Z" fill="#E8C0A6"/>
<path d="M572.937 1696.34L570.474 1695.86C570.67 1694.86 590.022 1595.23 587.751 1552.06C585.483 1508.97 558.8 1449.3 558.531 1448.7L560.818 1447.67C561.089 1448.27 587.965 1508.36 590.257 1551.92C592.544 1595.4 573.134 1695.34 572.937 1696.34Z" fill="#103663"/>
<path d="M359.793 1672.96L336.516 1622.73C335.07 1623.63 333.78 1624.74 332.795 1626.13L354.018 1671.93C355.05 1674.15 357.977 1674.73 359.731 1673.02C359.752 1673 359.773 1672.98 359.793 1672.96Z" fill="#10325B"/>
<path d="M543.818 1450.17C528.899 1506.7 517.055 1550.71 474.042 1594.21C445.714 1622.86 401.553 1636.2 382.694 1639.08C376.337 1640.05 372.505 1640.3 372.505 1640.3C372.505 1640.3 353.409 1624.18 360.242 1600.13C360.242 1600.13 363.452 1599.23 368.499 1597.58C384.255 1592.41 416.845 1579.15 427.978 1564.62C462.823 1519.17 446.679 1480.69 464.27 1440.94L543.818 1450.17Z" fill="#1D3F70"/>
<path d="M382.694 1639.08C376.337 1640.05 372.505 1640.3 372.505 1640.3C372.505 1640.3 353.409 1624.18 360.242 1600.13C360.242 1600.13 363.452 1599.23 368.499 1597.58C368.499 1597.58 365.939 1623.78 382.694 1639.08Z" fill="#103663"/>
<path d="M533.217 1306.38C534.381 1296.26 532.789 1281.63 531.381 1275.65C528.834 1263.8 510.027 1268.39 513.153 1280.04C513.759 1279.66 515.7 1301.12 514.36 1307.08C496.71 1312.37 549.793 1329.76 533.217 1306.38Z" fill="#F99370"/>
<path d="M512.972 1279.06C512.994 1279.2 513.011 1279.34 513.037 1279.47C513.07 1279.66 513.108 1279.85 513.152 1280.04C513.589 1279.74 514.813 1291.59 514.825 1300.19C522.912 1303.86 531.928 1302.25 533.578 1301.91C533.939 1292.82 532.524 1281.55 531.786 1277.34C531.567 1276.35 531.409 1275.77 531.381 1275.65C531.316 1275.38 531.239 1275.12 531.152 1274.87C530.25 1272.17 528.206 1270.12 525.704 1269.13C525.699 1269.13 525.699 1269.13 525.699 1269.13C523.961 1268.45 522.01 1268.28 520.059 1268.75C518.13 1269.22 516.486 1270.25 515.261 1271.63C515.207 1271.69 515.158 1271.75 515.108 1271.8C513.459 1273.76 512.617 1276.38 512.972 1279.06Z" fill="#E57D61"/>
<path d="M544.844 1257.15C544.844 1257.15 543.049 1247.18 538.81 1240.8L533.551 1244.53L544.844 1257.15Z" fill="#8E4A35"/>
<path d="M549.758 1286.36C544.089 1294.37 533.923 1298.03 525.249 1297.58C522.548 1297.49 519.911 1296.97 517.47 1295.95L517.467 1295.96C516.642 1295.61 515.85 1295.22 515.081 1294.77H515.071C477.962 1267.84 512.74 1208.24 539.957 1250.89C548.737 1262.72 561.492 1267.76 549.758 1286.36Z" fill="#F99370"/>
<path d="M529.837 1483.65C529.798 1483.65 529.769 1483.65 529.751 1483.65C529.404 1483.64 529.079 1483.48 528.853 1483.22C528.627 1482.96 528.52 1482.61 528.558 1482.27L530.481 1464.96C530.558 1464.27 531.183 1463.78 531.867 1463.85C532.555 1463.93 533.052 1464.55 532.975 1465.24L531.255 1480.72C531.752 1480.47 532.344 1480.06 532.969 1479.4C535.573 1476.67 538.507 1469.98 537.695 1453.67C537.661 1452.98 538.194 1452.39 538.886 1452.35C539.571 1452.32 540.167 1452.85 540.202 1453.54C541.069 1470.97 537.649 1478.25 534.626 1481.3C532.42 1483.52 530.33 1483.65 529.837 1483.65Z" fill="#103663"/>
<path d="M531.79 1262.56C532.009 1261.88 531.633 1261.15 530.952 1260.93C530.27 1260.71 529.541 1261.09 529.322 1261.77C529.104 1262.45 529.48 1263.18 530.161 1263.4C530.843 1263.61 531.572 1263.24 531.79 1262.56Z" fill="#C16256"/>
<path d="M371.006 1629.73L370.454 1627.27C371.049 1627.14 430.245 1613.56 462.387 1585.27C495.636 1556.01 506.451 1493.57 514.347 1447.97L516.82 1448.4C508.859 1494.36 497.957 1557.31 464.045 1587.15C431.418 1615.86 371.606 1629.59 371.006 1629.73Z" fill="#103663"/>
<path d="M542.254 1259.01C542.473 1258.33 542.097 1257.6 541.416 1257.39C540.734 1257.17 540.005 1257.54 539.786 1258.22C539.568 1258.9 539.943 1259.63 540.625 1259.85C541.307 1260.07 542.036 1259.7 542.254 1259.01Z" fill="#C16256"/>
<path d="M540.715 1270.62C539.98 1270.83 539.209 1270.92 538.529 1270.81C538.261 1270.77 538.077 1270.52 538.117 1270.26C538.156 1269.99 538.411 1269.81 538.675 1269.85C540.381 1270.1 542.548 1268.92 542.745 1268.13C542.814 1267.86 542.425 1267.66 542.086 1267.54C539.101 1266.5 536.421 1261.61 536.309 1261.4C536.179 1261.15 536.267 1260.86 536.506 1260.73C536.753 1260.6 537.042 1260.69 537.171 1260.93C537.197 1260.97 539.783 1265.7 542.41 1266.61C543.842 1267.11 543.786 1268.01 543.697 1268.36C543.463 1269.31 542.157 1270.21 540.715 1270.62Z" fill="#C16256"/>
<path d="M537.961 1247.97C530.43 1245.44 518.393 1250.81 512.209 1251.77C512.209 1251.77 515.238 1262.11 505.8 1271.37C506.477 1281.23 505.568 1285.73 517.47 1295.95L517.467 1295.96C516.642 1295.61 515.85 1295.22 515.082 1294.77H515.071C479.384 1269.14 510.89 1210.37 537.961 1247.97Z" fill="#E57D61"/>
<path d="M539.785 1226.06C534.528 1218.86 522.026 1216.52 513.408 1227.88C506.773 1236.63 498.286 1237.94 499.738 1245.79C485.153 1255.5 495.787 1271.57 495.787 1271.57L503.528 1269.35C511.359 1260.59 509.342 1249.91 509.342 1249.91H509.34C511.366 1249.69 513.47 1249.25 515.266 1248.47C520.834 1246.04 529.314 1243.92 536.257 1245.27C543.2 1246.62 545.661 1234.12 539.785 1226.06Z" fill="#8E4A35"/>
<path d="M495.698 1278.12C497.21 1282.03 500.991 1284.22 504.144 1283C507.297 1281.79 508.628 1277.63 507.116 1273.71C505.604 1269.8 501.822 1267.61 498.669 1268.83C495.515 1270.04 494.185 1274.21 495.698 1278.12Z" fill="#F99370"/>
<path d="M502.574 1271.49C502.439 1271.46 499.259 1270.8 497.83 1272.62C497.466 1273.09 497.267 1273.68 497.212 1274.36C497.207 1274.42 497.195 1274.48 497.192 1274.55C497.148 1275.81 497.599 1277.41 498.547 1279.35C498.654 1279.56 498.899 1279.66 499.123 1279.6C499.151 1279.59 499.177 1279.58 499.205 1279.57C499.447 1279.45 499.548 1279.16 499.429 1278.91C498.659 1277.34 498.25 1276.03 498.187 1275.01C501.057 1275.06 502.964 1277.95 502.983 1277.98C503.102 1278.17 503.329 1278.25 503.534 1278.19C503.576 1278.18 503.619 1278.16 503.66 1278.13C503.89 1277.99 503.957 1277.69 503.813 1277.46C503.721 1277.32 501.632 1274.06 498.259 1273.99C498.329 1273.7 498.436 1273.44 498.601 1273.23C499.651 1271.88 502.341 1272.45 502.366 1272.45C502.634 1272.5 502.891 1272.34 502.949 1272.07C503.006 1271.81 502.838 1271.55 502.574 1271.49Z" fill="#C16256"/>
<path d="M508.342 1278.81L503.906 1276.03C503.884 1275.84 503.845 1275.64 503.767 1275.45C503.31 1274.33 502.024 1273.78 500.896 1274.24C499.767 1274.7 499.224 1275.98 499.682 1277.11C500.127 1278.2 501.354 1278.74 502.46 1278.35L506.894 1281.11C507.235 1281.33 507.635 1281.38 507.993 1281.27C508.307 1281.19 508.589 1280.98 508.774 1280.69C509.174 1280.04 508.98 1279.2 508.342 1278.81Z" fill="#FDFFDE"/>
<path d="M580.447 1438.79C580.261 1441.78 579.977 1444.52 579.593 1446.93C579.593 1446.93 518.531 1466.15 464.267 1440.94C461.604 1428.44 464.015 1419.33 470.456 1394.24C474.493 1380.13 472.438 1360.03 473.54 1353.07C479.724 1319.14 503.505 1309.92 514.439 1306.38C520.045 1320.67 536.501 1316.81 533.227 1306.39C580.371 1318.45 580.859 1393.09 580.447 1438.79Z" fill="#EB5648"/>
<path d="M525.753 1261.5C525.664 1261.5 525.573 1261.47 525.487 1261.43C525.175 1261.29 525.042 1260.92 525.19 1260.6C525.267 1260.44 527.126 1256.59 531.296 1255.83C531.639 1255.77 531.961 1255.99 532.022 1256.33C532.085 1256.67 531.861 1257 531.521 1257.06C527.974 1257.71 526.334 1261.1 526.317 1261.14C526.211 1261.36 525.986 1261.5 525.753 1261.5Z" fill="#C16256"/>
<path d="M542.316 1255.71C542.23 1255.71 542.144 1255.7 542.061 1255.66C539.218 1254.38 537.017 1255.59 536.925 1255.64C536.624 1255.8 536.244 1255.7 536.076 1255.4C535.907 1255.1 536.01 1254.72 536.308 1254.55C536.42 1254.49 539.131 1252.98 542.572 1254.53C542.886 1254.67 543.026 1255.03 542.885 1255.35C542.781 1255.58 542.554 1255.71 542.316 1255.71Z" fill="#C16256"/>
<path d="M486.287 1344.05C462.824 1324.92 437.96 1299.35 437.517 1267.04C439.799 1240.57 453.088 1216.02 470.406 1196.36C470.99 1195.93 472.494 1193.96 473.077 1193.52C476.957 1187.98 485.739 1192.12 483.316 1198.58C474.325 1219.17 466.796 1241.42 467.753 1264.11C469.779 1283.88 493.551 1302.62 508.09 1315.33C526.626 1330 505.395 1357.98 486.287 1344.05Z" fill="#F99370"/>
<path d="M480.86 1462.17C480.766 1462.17 480.671 1462.16 480.575 1462.14C465.035 1458.52 465.403 1448.54 465.426 1448.12C465.448 1447.72 465.656 1447.36 465.985 1447.14C466.315 1446.92 466.728 1446.87 467.102 1447C481.858 1452.29 496.989 1455.04 497.141 1455.07C497.823 1455.19 498.276 1455.84 498.153 1456.53C498.03 1457.21 497.375 1457.66 496.697 1457.54C496.55 1457.51 482.502 1454.96 468.182 1450.04C468.879 1452.66 471.483 1457.45 481.143 1459.69C481.818 1459.85 482.238 1460.52 482.081 1461.2C481.946 1461.78 481.43 1462.17 480.86 1462.17Z" fill="#103663"/>
<path d="M667.936 1115.43C653.085 1151.71 631.506 1204.43 616.63 1240.8C580.2 1225.87 527.6 1204.4 491.269 1189.52C470.414 1181.89 445.263 1171.27 435.58 1150.36C404.511 1096.29 463.096 1030.26 520.63 1055.14C521.435 1055.54 542.451 1064.02 542.568 1064.12C550.839 1040.31 563.399 1014.13 588.024 1005.38C622.647 989.322 669.124 1010.81 679.023 1048.23C687.132 1069.77 677.123 1095.23 667.936 1115.43Z" fill="#FCB4B4"/>
<path d="M482.32 1201C492.045 1198.59 493.636 1189.08 493.491 1183.35C493.455 1181.63 493.459 1178.96 491.095 1179.1C490.076 1179.17 489.282 1179.98 489.182 1180.96C489.025 1185.75 486.93 1190.72 482.997 1193.52C479.422 1196.26 478.829 1203.84 482.32 1201Z" fill="#F99370"/>
<path d="M512.892 1347.61C493.259 1363.31 465.598 1344.53 451.293 1321.05C420.138 1279.43 435.601 1223.33 468.909 1197.75C468.909 1197.75 473.522 1203.73 481.21 1203.9C477.444 1217.39 469.715 1246.14 471.781 1265.76C474.462 1287.12 503.031 1295.44 511.809 1307.16C520.586 1318.9 521.342 1340.43 512.892 1347.61Z" fill="#EB5648"/>
<path d="M646.672 1281.33C648.304 1314.59 606.3 1340.79 567.998 1346.58L533.227 1306.39C544.508 1300.84 602.858 1295 612.847 1281.32C617.977 1275.55 625.369 1251.46 626.683 1235.75C626.683 1235.75 633.604 1237.06 640.265 1231.34C644 1243.89 647.397 1258.82 646.672 1281.33Z" fill="#EB5648"/>
<path d="M539.092 1275.61C535.524 1275.61 533.42 1273.76 533.3 1273.64C533.094 1273.46 533.079 1273.14 533.264 1272.94C533.451 1272.73 533.766 1272.72 533.972 1272.9C534.125 1273.04 537.698 1276.14 543.536 1273.61C543.786 1273.5 544.085 1273.62 544.196 1273.87C544.306 1274.13 544.19 1274.43 543.935 1274.53C542.116 1275.33 540.491 1275.61 539.092 1275.61Z" fill="#C16256"/>
<path d="M667.936 1115.43C653.085 1151.71 631.505 1204.43 616.63 1240.8L542.568 1064.12C550.839 1040.31 563.399 1014.13 588.024 1005.38C622.647 989.322 669.124 1010.81 679.023 1048.23C687.132 1069.77 677.122 1095.23 667.936 1115.43Z" fill="#F49F9F"/>
<path d="M627.509 1232.27C621.381 1229.19 618.55 1222.96 617.854 1217.27C617.639 1215.56 617.243 1212.92 619.602 1212.71C620.622 1212.64 621.524 1213.31 621.768 1214.27C622.624 1218.99 625.424 1223.6 629.725 1225.79C633.661 1227.97 631.379 1234.56 627.509 1232.27Z" fill="#F99370"/>
<path d="M479.043 1338.31C479.043 1338.31 475.954 1342.05 474.964 1346.35C468.42 1342.05 459.283 1333.1 451.291 1321.05C451.291 1321.05 464.663 1333.4 479.043 1338.31Z" fill="#CE3932"/>
<path d="M600.689 1336.85C592.271 1340.34 582.484 1343.38 571.168 1345.89C571.168 1345.89 570.555 1341.79 568.184 1338.46C568.184 1338.46 583.425 1340.91 600.689 1336.85Z" fill="#CE3932"/>
<path d="M527.619 1319.39C514.34 1319.6 511.809 1307.16 511.809 1307.16C513.462 1306.6 514.439 1306.38 514.439 1306.38C518.531 1316.01 526.102 1316.8 530.132 1314.88C534.961 1312.59 533.376 1306.98 533.227 1306.39C534.503 1306.78 535.766 1307.22 537.01 1307.7C537.567 1311.75 537.288 1319.23 527.619 1319.39Z" fill="#CE3932"/>
<path d="M481.21 1203.9C481.21 1203.9 480.733 1205.5 479.99 1208.22C470.711 1209.4 464.607 1201.62 464.607 1201.62C467.232 1199.09 468.91 1197.75 468.91 1197.75C468.91 1197.75 473.522 1203.73 481.21 1203.9Z" fill="#CE3932"/>
<path d="M642.029 1237.46C634.427 1243.21 626.082 1240.8 626.082 1240.8C626.33 1239.07 626.534 1237.38 626.683 1235.75C626.683 1235.75 633.604 1237.06 640.265 1231.34C640.265 1231.34 641.026 1233.56 642.029 1237.46Z" fill="#CE3932"/>
<path d="M580.447 1438.79C580.261 1441.78 579.977 1444.52 579.593 1446.93C579.593 1446.93 518.531 1466.15 464.266 1440.94C464.266 1440.94 463.226 1439.17 463.214 1433.43C463.214 1433.43 490.019 1444.16 521.992 1446.28C540.798 1447.52 564.29 1442.85 580.447 1438.79Z" fill="#CE3932"/>
<path d="M1829.91 1136.32C1819.1 1088.22 1801.54 1036.32 1761.37 1004.92C1755.93 1000.74 1748.75 1008.46 1753.3 1013.56C1756.88 1017.81 1760.04 1022.4 1762.83 1027.18C1771.06 1041.59 1775.98 1057.55 1779.32 1073.82C1783.55 1095.36 1785.42 1117.63 1784.5 1139.56C1780.29 1178.16 1838.66 1174.41 1829.91 1136.32Z" fill="#F99370"/>
<path d="M1745.85 990.321C1745.85 990.321 1758.23 992.626 1764.91 1007.9L1755.47 1015.79C1750.76 1013.93 1744.56 1009.76 1742.85 1006.68C1737.86 997.717 1745.85 990.321 1745.85 990.321Z" fill="#F99370"/>
<path d="M1679.35 1012.39C1679.35 1012.39 1668.03 1020.21 1673.29 1037.24L1686.06 1038.95C1688.64 1034.59 1689.6 1028.37 1689.06 1024.89C1687.49 1014.75 1679.35 1012.39 1679.35 1012.39Z" fill="#F99370"/>
<path d="M1823.58 1580.48H1724.14L1742.74 1525.03H1842.18L1823.58 1580.48ZM1812.84 1612.52L1803.86 1639.26L1799.58 1652.02H1700.14L1718.74 1596.56H1818.19L1812.84 1612.52ZM1871.5 1457.84C1871.49 1457.83 1871.48 1457.83 1871.47 1457.84C1867.9 1457.54 1864.23 1459.13 1862.91 1463.24L1847.58 1508.95H1748.14L1754.14 1491.05L1761.86 1468.08C1763.9 1462.31 1759.16 1458.27 1754.19 1457.84H1754.17C1750.57 1457.51 1746.85 1459.08 1745.53 1463.24C1718.7 1543.23 1690.3 1627.88 1661.97 1712.33C1660.12 1717.84 1664.22 1723.55 1670.04 1723.55C1673.69 1723.55 1676.93 1721.21 1678.09 1717.74L1694.74 1668.1H1794.19L1779.35 1712.33C1777.49 1717.84 1781.6 1723.55 1787.41 1723.55C1791.05 1723.55 1794.3 1721.21 1795.46 1717.75C1801.26 1700.48 1807.05 1683.22 1812.84 1665.98C1815.83 1657.05 1818.82 1648.15 1821.8 1639.25C1826.59 1624.97 1831.37 1610.74 1836.13 1596.56C1837.93 1591.19 1839.73 1585.82 1841.52 1580.48C1847.77 1561.85 1853.98 1543.36 1860.12 1525.03C1861.93 1519.66 1863.72 1514.3 1865.52 1508.95C1867.52 1502.96 1869.53 1497 1871.52 1491.05C1874.11 1483.35 1876.68 1475.69 1879.23 1468.08C1881.28 1462.26 1876.5 1458.24 1871.5 1457.84Z" fill="#143256"/>
<path d="M1814.73 1509.39L1863.27 1508.95C1862.59 1492.14 1859.94 1467.27 1857.35 1450.02L1832.64 1451L1841.99 1485.77C1842.55 1489.99 1840.78 1493.77 1836.75 1495.14C1827.79 1498.74 1816.78 1496.88 1811.71 1504.84C1810.7 1506.96 1812.38 1509.4 1814.73 1509.39Z" fill="#F99370"/>
<path d="M1864.69 1504.3C1864.5 1505.93 1864.24 1507.95 1863.44 1509.39H1814.72C1812.36 1509.4 1810.62 1507.1 1811.39 1504.86C1813.19 1499.64 1819.52 1492.03 1841.89 1490.66C1841.89 1490.66 1849.52 1492.85 1862.02 1490.47C1862.02 1490.47 1865.44 1497.71 1864.69 1504.3Z" fill="#EB5648"/>
<path d="M1825.66 1503.02C1825.28 1503.02 1824.91 1502.79 1824.75 1502.41C1822.93 1498.04 1819.72 1496.72 1819.58 1496.67C1817.01 1492.75 1824.35 1495.49 1826.56 1501.66C1826.85 1502.29 1826.35 1503.04 1825.66 1503.02Z" fill="#E8C0A6"/>
<path d="M1833.3 1502.03C1832.89 1502.03 1832.49 1501.76 1832.36 1501.35C1830.75 1496.27 1826.29 1493.96 1826.26 1493.94C1824.12 1489.39 1832.36 1494.18 1834.24 1500.74C1834.45 1501.36 1833.96 1502.04 1833.3 1502.03Z" fill="#E8C0A6"/>
<path d="M1841.99 1500.88C1841.6 1500.88 1841.22 1500.63 1841.07 1500.23C1839.19 1494.96 1834.92 1492.12 1834.87 1492.1C1833.28 1487.34 1840.72 1493.03 1842.92 1499.56C1843.16 1500.19 1842.65 1500.89 1841.99 1500.88Z" fill="#E8C0A6"/>
<path d="M1811.42 1504.78L1864.69 1504.3C1864.51 1505.93 1864.07 1507.52 1863.27 1508.95L1814.72 1509.39C1812.32 1509.41 1810.59 1507.02 1811.42 1504.78Z" fill="#CE3932"/>
<path d="M1756.1 1171.95C1684.32 1156.5 1643.52 1110.74 1673.29 1037.24C1677.79 1028.51 1687.35 1030.79 1685.93 1040.13C1676.63 1101.41 1704.79 1122.52 1760.33 1124.94C1760.35 1124.93 1760.48 1124.93 1760.3 1124.91C1791.06 1127.8 1786.85 1174.57 1756.1 1171.95Z" fill="#F99370"/>
<path d="M1759.92 1509.33L1807.74 1509.39C1809.52 1497.56 1799.09 1458.95 1796.17 1448.07L1770.22 1453.49L1783.32 1484.81C1783.32 1484.81 1789.37 1493.06 1781.37 1495.3C1772.51 1498.32 1763.02 1497.26 1756.99 1503.5C1755.2 1505.9 1756.91 1509.32 1759.92 1509.33Z" fill="#F99370"/>
<path d="M1809.22 1504.75C1809.02 1506.38 1808.57 1507.96 1807.75 1509.39L1759.19 1509.32C1756.83 1509.31 1755.13 1506.99 1755.92 1504.76C1757.77 1499.56 1764.18 1492.01 1786.56 1490.87C1786.56 1490.87 1794.17 1493.15 1806.69 1490.9C1806.69 1490.9 1810.03 1498.17 1809.22 1504.75Z" fill="#EB5648"/>
<path d="M1770.23 1503.07C1769.84 1503.07 1769.47 1502.84 1769.31 1502.45C1767.54 1498.06 1764.33 1496.71 1764.19 1496.66C1761.66 1492.71 1768.98 1495.53 1771.13 1501.72C1771.41 1502.34 1770.9 1503.08 1770.23 1503.07Z" fill="#E8C0A6"/>
<path d="M1777.86 1502.16C1777.44 1502.16 1777.06 1501.89 1776.92 1501.47C1775.37 1496.41 1770.93 1494.02 1770.88 1493.99C1768.82 1489.42 1776.99 1494.3 1778.8 1500.88C1779 1501.5 1778.52 1502.16 1777.86 1502.16Z" fill="#E8C0A6"/>
<path d="M1786.56 1501.1C1786.15 1501.1 1785.77 1500.84 1785.63 1500.44C1783.8 1495.15 1779.56 1492.28 1779.52 1492.24C1778.46 1491.55 1779.56 1489.89 1780.61 1490.6C1780.81 1490.74 1785.43 1493.86 1787.49 1499.79C1787.71 1500.42 1787.23 1501.11 1786.56 1501.1Z" fill="#E8C0A6"/>
<path d="M1755.94 1504.69L1809.21 1504.76C1809.01 1506.38 1808.56 1507.96 1807.74 1509.39L1759.19 1509.32C1756.8 1509.32 1755.07 1506.92 1755.94 1504.69Z" fill="#CE3932"/>
<path d="M1755.4 1261.15L1857.49 1245.6C1835.42 1089.25 1761.57 1083.49 1749.58 1171.86C1746.03 1194.29 1752.06 1248.09 1755.4 1261.15Z" fill="#FCB4B4"/>
<path d="M1750.31 1226.04C1749.02 1199.21 1760.98 1173.31 1760.98 1173.31L1749.59 1171.85C1747.74 1190.08 1748.7 1209.78 1750.31 1226.04Z" fill="#F49F9F"/>
<path d="M1757.4 1019.07C1757.4 1019.07 1758.59 1020.97 1760.21 1023.91C1763.79 1030.3 1769.47 1041.55 1769.47 1048.33C1769.47 1058.22 1793.35 1035.75 1793.35 1035.75C1793.35 1035.75 1785.78 1024.83 1773.13 1014.33C1771.56 1013.03 1769.9 1011.72 1768.18 1010.44C1768.18 1010.44 1764.82 1017.52 1757.4 1019.07Z" fill="#FCB4B4"/>
<path d="M1661.93 1101.92C1667.31 1132.03 1693.03 1157.44 1718.74 1164.23C1744.46 1171.01 1760.98 1173.32 1760.98 1173.32C1760.98 1173.32 1778.67 1123.8 1758.6 1122.39C1738.53 1120.97 1711.73 1114.19 1697.86 1097.8C1687.61 1085.68 1685.69 1062.26 1685.38 1050.85C1685.27 1046.82 1685.36 1044.3 1685.36 1044.3C1677.98 1046.78 1671.27 1042.49 1671.27 1042.49C1671.27 1042.49 1670.32 1044.39 1669.01 1047.7C1665.1 1057.43 1657.93 1079.44 1661.93 1101.92Z" fill="#FCB4B4"/>
<path d="M1868.01 1473.18C1868.01 1473.18 1849.75 1482.74 1832.42 1477.25C1809.67 1422.2 1798.86 1347.06 1804.77 1292.54C1803.22 1290.16 1772.88 1369.98 1805.76 1477.69C1805.76 1477.69 1793.9 1487.37 1777.54 1484.15C1757.55 1445.75 1711.58 1353.25 1750.81 1230.89C1763.76 1225.85 1838.1 1218.68 1853.69 1226.25C1853.69 1226.25 1870.52 1257.2 1862.76 1299C1852.44 1354.65 1862.85 1437.76 1866.7 1464.53H1866.72C1867.5 1470.05 1868.01 1473.18 1868.01 1473.18Z" fill="#EB5648"/>
<path d="M1772.99 1475.85C1775.78 1481.25 1777.53 1484.15 1777.53 1484.15C1793.9 1487.37 1805.77 1477.7 1805.77 1477.7C1805.01 1475 1804.28 1472.34 1803.58 1469.7C1803.58 1469.7 1791.53 1479.58 1772.99 1475.85Z" fill="#CE3932"/>
<path d="M1853.5 1221.71C1853.5 1221.71 1810.92 1208.27 1750.52 1228.08C1750.52 1228.08 1748 1232.44 1749.14 1235.98C1749.14 1235.98 1813.8 1222.67 1856.23 1231.82C1856.23 1231.82 1856.64 1226.57 1853.5 1221.71Z" fill="#CE3932"/>
<path d="M1868.01 1473.18C1868.01 1473.18 1849.76 1482.74 1832.43 1477.25C1832.44 1477.25 1831.48 1474.64 1830 1470.28C1830 1470.29 1847.87 1474.25 1866.72 1464.54C1867.5 1470.06 1868.01 1473.18 1868.01 1473.18Z" fill="#CE3932"/>
<path d="M1838.7 1473.54H1831.13C1809.17 1420.74 1799.03 1344.39 1804.78 1292.65C1804.78 1292.65 1814.09 1287.36 1815.6 1273.3C1811.23 1327.22 1804.86 1387.2 1838.7 1473.54Z" fill="#CE3932"/>
<path d="M1826.09 1652.02L1821.8 1639.25L1812.83 1612.52L1807.48 1596.56H1906.91L1925.52 1652.02H1826.09ZM1783.49 1525.03H1882.92L1901.51 1580.48H1802.08L1783.49 1525.03ZM1880.12 1463.24C1878.81 1459.08 1875.09 1457.51 1871.49 1457.84C1871.48 1457.83 1871.47 1457.83 1871.46 1457.84C1866.51 1458.27 1861.78 1462.31 1863.8 1468.08L1871.52 1491.05L1877.53 1508.95H1778.08L1762.76 1463.24C1761.43 1459.13 1757.76 1457.54 1754.19 1457.84H1754.16C1749.16 1458.24 1744.39 1462.26 1746.43 1468.08C1748.98 1475.69 1751.56 1483.35 1754.14 1491.05C1756.13 1497 1758.14 1502.96 1760.14 1508.95C1761.94 1514.3 1763.73 1519.66 1765.55 1525.03C1771.69 1543.36 1777.89 1561.85 1784.15 1580.48C1785.94 1585.83 1787.73 1591.19 1789.54 1596.56C1794.3 1610.74 1799.06 1624.98 1803.85 1639.26C1806.85 1648.15 1809.83 1657.06 1812.83 1665.98C1818.61 1683.22 1824.4 1700.48 1830.2 1717.75C1831.36 1721.21 1834.61 1723.55 1838.26 1723.55C1844.07 1723.55 1848.17 1717.84 1846.32 1712.33L1831.48 1668.1H1930.91L1947.57 1717.74C1948.74 1721.21 1951.98 1723.55 1955.63 1723.55C1961.44 1723.55 1965.54 1717.84 1963.69 1712.33C1935.36 1627.88 1906.97 1543.23 1880.12 1463.24Z" fill="#1D3F70"/>
<path d="M1669 1047.7C1676.49 1052.59 1685.36 1050.85 1685.36 1050.85L1685.37 1050.86C1685.26 1046.83 1685.35 1044.3 1685.35 1044.3C1677.97 1046.78 1671.27 1042.5 1671.27 1042.5C1671.27 1042.5 1670.32 1044.39 1669 1047.7Z" fill="#F49F9F"/>
<path d="M1757.4 1019.07C1757.4 1019.07 1758.6 1020.97 1760.22 1023.91C1768.77 1023.95 1773.14 1014.33 1773.14 1014.33C1771.57 1013.02 1769.9 1011.71 1768.18 1010.44C1768.18 1010.44 1764.83 1017.52 1757.4 1019.07Z" fill="#F49F9F"/>
<path d="M1773.14 1036L1729.55 1036.03L1704.88 1071.96L1691.37 1030.52L1649.59 1018.15L1684.83 992.497L1683.68 948.922L1718.96 974.514L1760.03 959.956L1746.6 1001.42L1773.14 1036Z" fill="white"/>
<path d="M1681.58 1030.95C1678.28 1025.69 1680.66 1019.52 1680.68 1016.4C1680.68 1015.16 1679.28 1014.44 1678.24 1015.12C1673.87 1017.97 1674.42 1028.73 1675.66 1033.12C1676.79 1037.49 1683.54 1035.02 1681.58 1030.95Z" fill="#F99370"/>
<path d="M1758.4 1003.82C1755.4 1001.01 1744.03 995.605 1740.49 999.102C1739.53 1000.05 1740.03 1001.78 1741.37 1001.89C1741.38 1001.89 1741.39 1001.89 1741.4 1001.89C1746.26 1002.19 1750.94 1004.71 1754.06 1008.41C1757.02 1011.72 1761.88 1006.58 1758.4 1003.82Z" fill="#F99370"/>
<path d="M1775.55 1031.99C1788.73 1029.32 1808.14 1035.57 1814.44 1060.37C1819.54 1080.45 1839.33 1077.25 1854.09 1101.35C1869.53 1126.55 1857.13 1149.22 1834.86 1162.24C1793.84 1186.86 1727.29 1142.16 1748.29 1093.43C1757.19 1072.35 1752.93 1036.58 1775.55 1031.99Z" fill="#8E4A35"/>
<path d="M1085.26 515.389C1085.26 515.389 1077.3 500.015 1053.05 504.554C1028.8 509.093 1023.08 539.877 1014.84 553.883C997.404 583.565 992.177 615.098 1001.24 630.249C1011.3 647.071 1033.51 640.499 1065.96 637.476C1100.58 634.255 1115.08 604.202 1093.56 562.875L1085.26 515.389Z" fill="#163260"/>
<path d="M1075.2 586.838C1084.69 600.745 1090.74 668.567 1090.94 673.835C1102.1 673.011 1128.91 671.031 1140.34 670.183C1143.56 645.359 1110.66 594.442 1080.63 588.414C1080.63 588.406 1080.63 588.406 1080.63 588.406C1077.26 587.258 1075.2 586.838 1075.2 586.838Z" fill="#3A72AA"/>
<path d="M1215.85 960.727L1167.62 960.195C1167.74 952.487 1169.8 936.921 1168.27 928.118L1189.09 930.807C1188.51 935.033 1187.22 944.201 1194.24 946.389C1203.33 949.236 1213.21 948.364 1218.89 955.35C1220.36 957.697 1218.62 960.75 1215.85 960.727Z" fill="#F99370"/>
<path d="M1166.21 955.532C1166.39 957.166 1166.82 958.76 1167.62 960.195L1216.31 960.726C1218.68 960.758 1220.42 958.443 1219.66 956.198C1217.87 950.957 1211.53 943.312 1189.1 941.893C1189.1 941.893 1181.44 944.081 1168.91 941.671C1168.91 941.671 1165.48 948.911 1166.21 955.532Z" fill="#1D3F70"/>
<path d="M1205.35 954.319C1205.73 954.319 1206.1 954.097 1206.26 953.716C1208.09 949.331 1211.33 948.023 1211.46 947.967C1214.05 944.042 1206.67 946.778 1204.44 952.955C1204.16 953.59 1204.66 954.335 1205.35 954.319Z" fill="#E8C0A6"/>
<path d="M1197.69 953.312C1198.11 953.312 1198.5 953.042 1198.63 952.63C1200.27 947.547 1204.73 945.239 1204.78 945.215C1207.13 940.64 1198.55 945.469 1196.75 952.027C1196.54 952.646 1197.04 953.32 1197.69 953.312Z" fill="#E8C0A6"/>
<path d="M1188.98 952.146C1189.38 952.146 1189.76 951.892 1189.9 951.496C1191.81 946.215 1196.1 943.384 1196.14 943.352C1197.97 938.546 1190.17 944.311 1188.05 950.822C1187.81 951.448 1188.31 952.154 1188.98 952.146Z" fill="#E8C0A6"/>
<path d="M1219.64 956.119L1166.21 955.532C1166.39 957.166 1166.82 958.76 1167.62 960.195L1216.31 960.726C1218.72 960.758 1220.46 958.371 1219.64 956.119Z" fill="#395B96"/>
<path d="M1063.07 776.576C1086.81 775.577 1128.16 762.5 1145.99 792.706C1165.52 825.695 1160.73 895.669 1158.76 929.49C1184.82 937.88 1198.82 929.49 1198.82 929.49C1209.93 860.261 1246.49 702.581 1124.24 724.46C1124.24 724.452 1042.25 724.452 1042.25 724.452C1028.54 752.414 1040.8 776.108 1063.07 776.576Z" fill="#EB5648"/>
<path d="M1158.01 960.719L1109.79 960.187C1109.92 952.479 1111.97 936.913 1110.44 928.118L1131.26 930.807C1130.68 935.033 1129.23 944.201 1136.41 946.389C1145.51 949.165 1155.39 948.356 1161.06 955.35C1162.53 957.697 1160.79 960.75 1158.01 960.719Z" fill="#F99370"/>
<path d="M1108.37 955.532C1108.56 957.166 1108.99 958.752 1109.79 960.187L1158.48 960.727C1160.85 960.75 1162.59 958.443 1161.84 956.199C1160.04 950.957 1153.7 943.304 1131.27 941.885C1131.27 941.885 1123.61 944.082 1111.09 941.663C1111.09 941.663 1107.64 948.911 1108.37 955.532Z" fill="#1D3F70"/>
<path d="M1147.52 954.319C1147.91 954.319 1148.27 954.089 1148.43 953.716C1150.26 949.331 1153.5 948.015 1153.63 947.967C1156.22 944.034 1148.84 946.77 1146.61 952.955C1146.33 953.582 1146.84 954.335 1147.52 954.319Z" fill="#E8C0A6"/>
<path d="M1139.86 953.312C1140.28 953.312 1140.67 953.042 1140.8 952.622C1142.44 947.547 1146.9 945.239 1146.95 945.215C1149.3 940.64 1140.72 945.469 1138.92 952.019C1138.71 952.646 1139.21 953.32 1139.86 953.312Z" fill="#E8C0A6"/>
<path d="M1131.15 952.138C1131.56 952.138 1131.93 951.893 1132.08 951.488C1133.98 946.215 1138.26 943.376 1138.3 943.352C1140.14 938.546 1132.33 944.311 1130.23 950.822C1129.98 951.448 1130.48 952.154 1131.15 952.138Z" fill="#E8C0A6"/>
<path d="M1161.8 956.119L1108.37 955.532C1108.56 957.166 1108.99 958.752 1109.79 960.187L1158.48 960.726C1160.89 960.758 1162.64 958.371 1161.8 956.119Z" fill="#395B96"/>
<path d="M1117.56 724.452L1124.57 775.577C1155.23 787.654 1157.29 820.77 1160.09 857.082C1174.28 800.977 1173.2 743.405 1117.56 724.452Z" fill="#CE3932"/>
<path d="M1024.76 781.414C1050.84 794.49 1081.83 777.552 1099.3 812.824C1113.39 843.712 1105.49 902.727 1101.62 929.49C1127.67 937.88 1141.68 929.49 1141.68 929.49C1157.13 869.77 1192.47 730.995 1092.62 724.452C1065.27 723.588 1029.35 723.826 1005.18 722.367C1005.18 722.367 992.522 765.236 1024.76 781.414Z" fill="#EB5648"/>
<path d="M1117.03 653.019C1117.51 653.019 1117.89 652.606 1117.85 652.131C1116.22 638.578 1101.86 621.013 1099.98 621.949C1098.69 623.606 1115.24 638.158 1116.22 652.265C1116.25 652.694 1116.61 653.019 1117.03 653.019Z" fill="#23659B"/>
<path d="M1004.7 708.235C1002.59 723.362 1003.64 729.754 1003.64 729.754C1043.91 734.764 1069.3 734.998 1118.33 728.146C1087.36 635.379 1157.06 695.031 1075.2 586.838C1075 586.854 1055.12 588.656 1054.94 588.664C1031.92 605.981 1017.1 628.939 1004.7 708.235Z" fill="#3A72AA"/>
<path d="M1202.84 729.757H1094.33L1115.94 650.204H1223.79L1202.84 729.757Z" fill="#163260"/>
<path d="M1094.33 729.361V734.769H1202.84V729.361H1094.33Z" fill="#234270"/>
<path d="M1117.56 650.204H1113.69L1092.52 729.361H1041.03V734.769H1096.14V729.932L1117.56 650.204Z" fill="#0B274F"/>
<path d="M1019.26 604.072C994.247 622.822 980.883 656.57 987.493 687.258C990.019 704.491 1000.9 720.885 1017.9 725.768C1026.31 729.126 1065.48 734.534 1063.66 720.618C1063.03 717.285 1060.08 716.058 1057.21 715.162C1052.49 713.499 1047.62 711.659 1043.11 709.608C1035.05 705.419 1024.68 701.505 1022.93 692.44C1019.18 671.301 1027.85 650.621 1043.64 636.819C1043.62 636.835 1043.73 636.754 1043.49 636.923C1064.9 620.974 1040.8 588.324 1019.26 604.072Z" fill="#F99370"/>
<path d="M1004.26 721.995C1017 727.677 1029.06 729.423 1038.33 729.763C1038.33 729.763 1036.19 715.925 1046.19 710.218C989.87 667.403 1070.31 649.386 1054.86 586.476C994.468 587.551 932.111 679.115 1004.26 721.995Z" fill="#3A72AA"/>
<path d="M1087.55 729.361C1087.55 729.361 1082.72 712.462 1053.87 714.413L1047.83 729.361H1087.55Z" fill="#F99370"/>
<path d="M1031.64 729.289C1035.76 729.749 1038.33 729.757 1038.33 729.757C1038.33 729.757 1036.19 715.919 1046.19 710.218C1046.19 710.218 1043.73 708.624 1040.51 705.785C1040.51 705.785 1029.56 713.834 1031.64 729.289Z" fill="#23659B"/>
<path d="M1041.03 708.148C1041.76 708.164 1042.15 707.181 1041.57 706.705C1016.55 684.414 1028.8 660.822 1043.69 645.533C1044.41 644.788 1043.19 643.614 1042.48 644.415C1026.65 660.235 1014.66 686.372 1041.03 708.148Z" fill="#23659B"/>
<path d="M1032.18 729.377C1036.86 726.657 1019.04 728.013 1005.49 721.605C1005.07 721.439 1004.6 721.637 1004.42 722.057C1004.26 722.478 1004.45 722.953 1004.87 723.128C1018.87 728.869 1032 729.377 1032.18 729.377Z" fill="#23659B"/>
<path d="M1049.28 611.796C1049.86 616.116 1053.99 617.467 1055.03 617.24C1069.55 611.027 1059.22 630.636 1065.19 632.634C1070.22 634.309 1070.81 627.756 1075.2 627.4C1081.56 626.875 1082.85 630.345 1085.09 628.234C1088.2 625.305 1080.67 620.185 1081.63 614.935C1082.32 611.254 1089.63 614.951 1089.54 607.371C1089.42 599.921 1080.9 588.765 1080.63 588.417C1080.63 588.409 1080.63 588.409 1080.63 588.409C1075.26 585.416 1063.58 586.775 1058.28 586.84C1058.2 586.306 1054.86 586.476 1054.86 586.476C1054.86 586.476 1052.53 585.966 1050.27 586.816C1049.16 592.875 1048.13 605.3 1049.28 611.796Z" fill="#F4D4BE"/>
<path d="M1074.71 579.641L1075.2 586.849C1075.2 586.849 1075.88 593.781 1075.88 606.661C1075.88 624.783 1071.4 622.67 1065.19 610.017C1061.79 603.061 1054.86 587.052 1054.86 587.052C1054.86 587.052 1054.9 582.315 1054.51 579.405L1074.71 579.641Z" fill="#F99370"/>
<path d="M1050.58 559.002C1050.66 559.344 1050.75 559.694 1050.87 560.027C1051.3 559.669 1053.77 571.667 1054.67 580.806C1063.34 585.883 1073.36 585.208 1075.09 584.683C1074.63 571.15 1073.49 550.906 1063.07 547.137C1056.09 544.919 1048.69 551.806 1050.58 559.002Z" fill="#E57D61"/>
<path d="M1076.84 514.443C1103 511.299 1107.15 552.619 1089.37 567.819L1076.84 514.443Z" fill="#163260"/>
<path d="M1045.98 543.562C1044.72 552.587 1044.63 563.167 1049.67 570.947H1049.69C1063.45 593.471 1109 578.95 1096.53 552.244C1094.69 548.835 1093.65 544.687 1093.52 541.175C1093.1 504.293 1049.62 512.03 1045.98 543.562Z" fill="#F99370"/>
<path d="M1080.41 548.362C1081.66 547.112 1079.67 545.177 1078.45 546.461C1077.21 547.72 1079.21 549.646 1080.41 548.362Z" fill="#C16256"/>
<path d="M1091.92 549.884C1093.16 548.635 1091.17 546.703 1089.96 547.994C1088.72 549.243 1090.71 551.174 1091.92 549.884Z" fill="#C16256"/>
<path d="M1085.07 560.118C1087.36 560.483 1090.7 559.885 1088.52 557.124C1086.48 555.037 1086.24 549.383 1086.24 549.333C1086.22 548.668 1085.17 548.701 1085.21 549.366C1085.22 549.616 1085.46 555.478 1087.79 557.848C1088.05 558.114 1088.33 558.488 1088.13 558.712C1087.59 559.361 1084.99 559.469 1083.5 558.438C1083.27 558.272 1082.95 558.33 1082.79 558.563C1082.4 559.644 1084.26 559.868 1085.07 560.118Z" fill="#C16256"/>
<path d="M1045.99 543.552C1044.72 552.579 1044.64 563.16 1049.68 570.935H1049.69C1047.37 565.108 1048.24 553.935 1048.24 553.935L1051.44 549.833C1084.25 549.396 1089.08 524.63 1089.08 524.63C1074.66 505.263 1047.69 522.76 1045.99 543.552Z" fill="#E57D61"/>
<path d="M1086.56 521.529C1086.56 521.529 1081.68 545.902 1051.99 547.379L1044.04 539.131C1040.33 517.91 1065.55 496.189 1086.56 521.529Z" fill="#163260"/>
<path d="M1039.19 546.212C1038.14 556.536 1051.17 557.719 1051.99 547.378C1053.04 537.055 1040.01 535.871 1039.19 546.212Z" fill="#F99370"/>
<path d="M1042.26 543.545C1043.58 539.452 1051.46 543.822 1048.1 543.972C1048.1 543.796 1044.6 541.704 1043.53 543.52C1046.96 545.136 1048.1 551.548 1046.11 549.472C1046.1 549.439 1045.69 545.789 1042.99 544.408C1041.65 553.733 1040.43 547.262 1042.26 543.545Z" fill="#C16256"/>
<path d="M1043.18 552.387C1042.72 553.815 1044.97 554.504 1045.39 553.068C1045.85 551.64 1043.6 550.943 1043.18 552.387Z" fill="#F4D4BE"/>
<path d="M1075.87 637.373C1075.84 640.363 1080.53 640.363 1080.48 637.373C1080.53 634.383 1075.83 634.383 1075.87 637.373Z" fill="#23659B"/>
<path d="M1080.4 653.598C1080.35 656.587 1085.05 656.587 1085.01 653.598C1085.05 650.608 1080.35 650.608 1080.4 653.598Z" fill="#23659B"/>
<path d="M1080.4 668.197C1080.35 671.186 1085.05 671.186 1085.01 668.197C1085.05 665.207 1080.35 665.207 1080.4 668.197Z" fill="#23659B"/>
<path d="M1159.57 917.873C1159.15 925.113 1158.76 929.49 1158.76 929.49C1184.82 937.88 1198.82 929.49 1198.82 929.49C1198.82 929.49 1199.55 925.851 1200.68 919.586C1200.37 919.744 1183.98 927.793 1159.57 917.873Z" fill="#CE3932"/>
<path d="M1101.62 929.49C1127.67 937.88 1141.68 929.49 1141.68 929.49C1141.68 929.49 1142.63 926.128 1144.11 920.339C1144.11 920.339 1129.67 927.809 1102.98 920.339C1102.19 926.065 1101.62 929.49 1101.62 929.49Z" fill="#CE3932"/>
<path d="M1085.98 729.194C1091.11 729.353 1072.44 716.546 1066.88 719.678C1066.83 720.13 1067.16 720.535 1067.61 720.574C1078.11 721.677 1085.1 729.163 1085.98 729.194Z" fill="#E57D61"/>
<path d="M1078.07 729.488C1081.96 727.822 1069.88 724.976 1063.89 723.358C1063.46 723.263 1063.01 723.548 1062.93 723.992C1062.83 724.436 1063.12 724.873 1063.56 724.96C1069.94 726.276 1077.43 729.416 1078.07 729.488Z" fill="#E57D61"/>
<path d="M1076.14 544.188C1076.26 544.188 1076.39 544.146 1076.49 544.062C1079.77 541.493 1082.74 542.33 1082.87 542.364C1083.18 542.456 1083.51 542.28 1083.6 541.97C1083.69 541.669 1083.51 541.343 1083.2 541.251C1083.06 541.201 1079.54 540.188 1075.78 543.142C1075.52 543.342 1075.47 543.711 1075.68 543.962C1075.79 544.104 1075.96 544.188 1076.14 544.188Z" fill="#C16256"/>
<path d="M1093.27 545.584C1093.39 545.584 1093.5 545.551 1093.6 545.484C1093.86 545.3 1093.94 544.941 1093.76 544.673C1093.69 544.565 1091.86 541.907 1088.83 542.024C1088.51 542.041 1088.26 542.309 1088.27 542.634C1088.28 542.952 1088.56 543.211 1088.88 543.194C1091.26 543.111 1092.78 545.309 1092.79 545.325C1092.91 545.492 1093.09 545.584 1093.27 545.584Z" fill="#C16256"/>
<path d="M1077.49 560.924C1077.07 561.468 1077.44 562.739 1078.65 563.671C1079.86 564.612 1081.18 564.645 1081.6 564.092C1082.03 563.548 1081.67 562.277 1080.45 561.344C1079.75 560.8 1079.02 560.561 1078.43 560.561C1078.02 560.561 1077.67 560.684 1077.49 560.924ZM1077.94 564.596C1076.26 563.308 1075.67 561.378 1076.58 560.206C1077.48 559.034 1079.49 559.125 1081.16 560.42C1082.84 561.708 1083.43 563.638 1082.53 564.81C1082.1 565.355 1081.44 565.627 1080.68 565.627C1079.81 565.627 1078.82 565.28 1077.94 564.596Z" fill="#C16256"/>
<path d="M1404.5 458.299V539.388C1404.5 552.862 1393.59 563.775 1380.12 563.775H1185.65C1172.18 563.775 1161.26 552.862 1161.26 539.388V458.299C1161.26 444.834 1172.18 433.912 1185.65 433.912H1380.12C1393.59 433.912 1404.5 444.834 1404.5 458.299Z" fill="#7689D6"/>
<path d="M1161.26 539.395C1161.26 552.868 1172.18 563.786 1185.64 563.786H1195.59V598.589L1242.58 563.786H1380.11C1393.58 563.786 1404.5 552.868 1404.5 539.395V458.303C1312.69 550.136 1161.26 539.395 1161.26 539.395Z" fill="#677CC1"/>
<path d="M1315.43 473.557H1185.9C1182.17 473.557 1179.14 470.536 1179.14 466.798C1179.14 463.069 1182.17 460.048 1185.9 460.048H1315.43C1324.22 460.083 1324.29 473.513 1315.43 473.557Z" fill="white"/>
<path d="M1238.16 505.595H1185.9C1177.08 505.561 1177.06 492.126 1185.9 492.091H1238.16C1246.96 492.126 1247 505.561 1238.16 505.595Z" fill="white"/>
<path d="M1379.87 505.595H1269.56C1265.83 505.595 1262.8 502.572 1262.8 498.847C1262.8 495.114 1265.83 492.091 1269.56 492.091H1379.87C1388.67 492.126 1388.72 505.561 1379.87 505.595Z" fill="white"/>
<path d="M1292.72 537.645H1185.91C1177.11 537.611 1177.04 524.177 1185.91 524.134H1292.72C1301.52 524.168 1301.58 537.603 1292.72 537.645Z" fill="white"/>
<path d="M1368.75 433.912C1204.8 433.912 1166.71 461.257 1161.26 466.073C1159.24 449.893 1167.97 434.038 1185.65 433.912H1368.75Z" fill="#8A9EDD"/>
<path d="M2133.94 939.854V1020.95C2133.94 1034.42 2123.02 1045.33 2109.55 1045.33H1915.09C1901.62 1045.33 1890.7 1034.42 1890.7 1020.95V939.854C1890.7 926.389 1901.62 915.468 1915.09 915.468H2109.55C2123.02 915.468 2133.94 926.389 2133.94 939.854Z" fill="#7689D6"/>
<path d="M1890.7 1020.95C1890.7 1034.42 1901.62 1045.33 1915.09 1045.33H1925.04V1080.14L1972.02 1045.33H2109.55C2123.02 1045.33 2133.94 1034.42 2133.94 1020.95V939.854C2042.13 1031.69 1890.7 1020.95 1890.7 1020.95Z" fill="#677CC1"/>
<path d="M2044.87 955.109H1915.34C1911.62 955.109 1908.59 952.085 1908.59 948.355C1908.59 944.625 1911.62 941.601 1915.34 941.601H2044.87C2053.66 941.633 2053.73 955.069 2044.87 955.109Z" fill="white"/>
<path d="M1967.59 987.155H1915.34C1906.52 987.118 1906.5 973.686 1915.34 973.647H1967.59C1976.4 973.683 1976.44 987.116 1967.59 987.155Z" fill="white"/>
<path d="M2109.31 987.149H1999.01C1995.28 987.149 1992.25 984.126 1992.25 980.396C1992.25 976.667 1995.28 973.642 1999.01 973.642H2109.31C2118.11 973.675 2118.17 987.111 2109.31 987.149Z" fill="white"/>
<path d="M2022.17 1019.2H1915.35C1906.55 1019.16 1906.49 1005.73 1915.35 1005.69H2022.17C2030.97 1005.72 2031.03 1019.16 2022.17 1019.2Z" fill="white"/>
<path d="M2098.19 915.463C1934.25 915.463 1896.15 942.806 1890.71 947.629C1888.68 931.445 1897.42 915.588 1915.09 915.463H2098.19Z" fill="#8A9EDD"/>
<path d="M196.056 946.984V1028.08C196.056 1041.54 206.975 1052.46 220.438 1052.46H414.91C428.372 1052.46 439.292 1041.54 439.292 1028.08V946.984C439.292 933.519 428.372 922.591 414.91 922.591H220.438C206.975 922.591 196.056 933.519 196.056 946.984Z" fill="#7689D6"/>
<path d="M439.292 1028.08C439.292 1041.54 428.372 1052.46 414.91 1052.46H404.957V1087.27L357.97 1052.46H220.438C206.975 1052.46 196.056 1041.54 196.056 1028.08V946.984C287.864 1038.81 439.292 1028.08 439.292 1028.08Z" fill="#677CC1"/>
<path d="M285.126 962.233H414.656C418.385 962.233 421.409 959.212 421.409 955.485C421.409 951.75 418.385 948.728 414.656 948.728H285.126C276.337 948.76 276.263 962.194 285.126 962.233Z" fill="white"/>
<path d="M362.403 994.278H414.656C423.471 994.247 423.499 980.813 414.655 980.774C414.656 980.774 362.403 980.774 362.403 980.774C353.588 980.813 353.56 994.247 362.403 994.278Z" fill="white"/>
<path d="M220.691 994.278H330.997C334.727 994.278 337.75 991.257 337.75 987.53C337.75 983.795 334.727 980.774 330.997 980.774H220.691C211.895 980.805 211.833 994.239 220.691 994.278Z" fill="white"/>
<path d="M307.836 1026.32H414.656C423.453 1026.29 423.513 1012.86 414.655 1012.82C414.656 1012.82 307.836 1012.82 307.836 1012.82C299.038 1012.85 298.979 1026.28 307.836 1026.32Z" fill="white"/>
<path d="M231.811 922.591C395.758 922.591 433.849 949.942 439.291 954.763C441.316 938.578 432.585 922.718 414.909 922.591C414.91 922.591 231.811 922.591 231.811 922.591Z" fill="#8A9EDD"/>
<path d="M841.433 1732.44L798.273 1710.56C799.602 1708.44 804.915 1703.85 807.702 1694.38C822.755 1643.17 846.613 1593.91 850.323 1586L890.315 1594.28L827.41 1698.58C825.003 1702.14 825.473 1706.91 828.514 1709.95C834.949 1716.95 844.246 1720.04 846.747 1728.53C847.262 1731.51 844.137 1733.81 841.433 1732.44Z" fill="#F99370"/>
<path d="M799.071 1705.71C798.504 1707.26 798.187 1708.9 798.272 1710.56L842.095 1732.78C844.225 1733.85 846.83 1732.54 847.143 1730.17C847.857 1724.63 845.537 1714.89 825.873 1703.59C825.873 1703.59 817.964 1702.15 807.702 1694.38C807.702 1694.38 801.359 1699.39 799.071 1705.71Z" fill="#EB5648"/>
<path d="M835.03 1722.09C835.378 1722.26 835.81 1722.21 836.12 1721.94C839.734 1718.79 843.244 1719.05 843.392 1719.06C844.667 1719.19 844.857 1717.18 843.574 1717.08C843.393 1717.07 839.1 1716.71 834.813 1720.44C834.276 1720.89 834.401 1721.79 835.03 1722.09Z" fill="#E8C0A6"/>
<path d="M828.552 1717.76C828.929 1717.94 829.396 1717.87 829.704 1717.56C833.427 1713.71 838.521 1713.59 838.572 1713.59C842.735 1710.5 832.829 1711.05 828.274 1716.17C827.803 1716.64 827.953 1717.48 828.552 1717.76Z" fill="#E8C0A6"/>
<path d="M821.19 1712.81C821.556 1712.99 822.009 1712.93 822.318 1712.63C826.391 1708.71 831.534 1708.06 831.585 1708.05C835.382 1704.52 825.752 1706.25 820.937 1711.2C820.439 1711.66 820.579 1712.52 821.19 1712.81Z" fill="#E8C0A6"/>
<path d="M847.153 1730.09L799.071 1705.71C798.504 1707.26 798.187 1708.9 798.272 1710.56L842.095 1732.78C844.253 1733.87 846.898 1732.5 847.153 1730.09Z" fill="#CE3932"/>
<path d="M978.663 1731.43L929.561 1731.29C928.737 1728.71 931.496 1716.88 930.719 1712.59C914.203 1621.44 916.55 1589.09 916.273 1585.48L963.139 1581.86L950.207 1707.49C949.66 1711.75 952.221 1715.8 956.304 1717.15C965.398 1720.75 976.514 1718.79 981.691 1726.81C982.73 1728.95 981.041 1731.44 978.663 1731.43Z" fill="#F99370"/>
<path d="M928.094 1726.61C928.293 1728.25 928.737 1729.85 929.561 1731.29L978.687 1731.43C981.073 1731.44 982.809 1729.09 982.024 1726.84C980.177 1721.56 973.723 1713.9 951.087 1712.66C951.087 1712.66 943.373 1714.92 930.719 1712.59C930.719 1712.59 927.301 1719.93 928.094 1726.61Z" fill="#EB5648"/>
<path d="M968.205 1724.82C969.854 1720.82 973.549 1718.38 973.684 1718.6C974.881 1718.14 974.151 1716.26 972.954 1716.75C972.788 1716.81 968.792 1718.42 966.643 1723.69C966.223 1724.62 967.468 1725.5 968.205 1724.82Z" fill="#E8C0A6"/>
<path d="M960.475 1723.87C961.973 1719.2 966.794 1715.64 966.92 1715.88C968.078 1715.31 967.142 1713.5 966.009 1714.11C965.795 1714.22 960.736 1716.89 958.881 1722.82C958.556 1723.74 959.769 1724.51 960.475 1723.87Z" fill="#E8C0A6"/>
<path d="M951.674 1722.76C953.957 1716.15 959.396 1714.3 958.477 1712.69C957.121 1711.12 952.681 1715.39 950.096 1721.67C949.731 1722.6 950.952 1723.42 951.674 1722.76Z" fill="#E8C0A6"/>
<path d="M981.993 1726.76L928.094 1726.61C928.292 1728.25 928.736 1729.85 929.561 1731.29L978.686 1731.43C981.105 1731.44 982.849 1729.02 981.993 1726.76Z" fill="#CE3932"/>
<path d="M942.976 1374.01C1004.02 1360.53 1039.94 1299.81 1040.39 1240C1040.66 1233.04 1030.5 1230.67 1027.63 1236.91C1005.08 1287.2 989.192 1320.05 933.605 1337.67C909.874 1343.9 919.198 1380.03 942.976 1374.01Z" fill="#F99370"/>
<path d="M903.175 1337.58C832.802 1340.17 759.447 1413.12 853.399 1451.84C862.961 1455.43 866.806 1444.18 859.116 1438.87C806.012 1396.23 869.486 1381 907.448 1374.85C931.607 1371.37 927.444 1335.47 903.175 1337.58Z" fill="#F99370"/>
<path d="M807.851 1395.48C808.375 1397.82 809.213 1399.04 809.213 1399.04C808.86 1398.45 831.187 1397.19 838.213 1406.62C841.716 1406.54 849.118 1403.2 852.67 1398.57C858.886 1391.72 871.873 1386.73 877.811 1384.51L908.011 1326.98C893.288 1321.3 802.889 1352.48 807.851 1395.48Z" fill="#9358E0"/>
<path d="M966.342 1581.86C965.818 1588.16 965.422 1591.86 965.422 1591.86C903.532 1614.42 843.898 1592.16 843.898 1592.16C843.969 1589.58 843.918 1586.95 843.776 1584.25C842.389 1556.85 831.539 1523.07 836.351 1488.98C841.639 1451.56 854.707 1430.98 854.707 1430.98L957.517 1436.48C973.628 1473.36 968.689 1553.7 966.342 1581.86Z" fill="#CE4ABF"/>
<path d="M1023.82 1219.29C1026.5 1218.76 1026.71 1225.23 1028.49 1226.97C1030.43 1223.03 1031.24 1218.51 1031.28 1218.5C1031.25 1213.07 1030.94 1207.64 1030.37 1202.23C1033.8 1194.72 1035.53 1215.43 1036.08 1217.43C1036.11 1217.44 1036.13 1217.44 1036.16 1217.44C1037.33 1211.87 1038.19 1206.22 1038.57 1200.55C1043.79 1193.61 1040.66 1216.57 1040.58 1218.72C1040.59 1218.73 1040.6 1218.74 1040.62 1218.74C1042.6 1213.69 1043.96 1208.39 1044.75 1203.02C1050.63 1196.49 1045.64 1219.57 1044.86 1221.61C1044.87 1221.62 1044.89 1221.63 1044.91 1221.65C1047.04 1217.9 1048.7 1213.89 1050.14 1209.83C1056.49 1204.54 1049.33 1223.88 1048.41 1225.68C1048.4 1227.23 1045.34 1234.59 1039.73 1242.5C1037.89 1245.1 1029.57 1241.93 1028.24 1239.11C1026.98 1236.46 1026.3 1232.53 1026.01 1231.11C1025.01 1228.44 1021.2 1221.28 1023.82 1219.29Z" fill="#F99370"/>
<path d="M856.745 1588.49C856.769 1588.24 859.139 1563.14 855.032 1517.71C850.989 1473.01 867.964 1432.18 868.138 1431.78L864.372 1430.18C864.19 1430.6 846.817 1472.33 850.957 1518.07C855.024 1563.07 852.694 1587.85 852.67 1588.09L856.745 1588.49Z" fill="#A523A2"/>
<path d="M953.815 1590.68C963.559 1518.66 947.519 1435.43 947.361 1434.6L943.341 1435.39C943.507 1436.22 959.412 1518.79 949.755 1590.13L953.815 1590.68Z" fill="#A523A2"/>
<path d="M936.768 1594.4C940.185 1539.98 932.701 1437.58 932.629 1436.56L928.546 1436.86C928.617 1437.88 936.078 1540 932.677 1594.14L936.768 1594.4Z" fill="#A523A2"/>
<path d="M918.374 1594.28C918.374 1593.87 918.461 1553.3 915.377 1518.41C912.324 1483.78 915.353 1437.3 915.385 1436.84L911.302 1436.57C911.27 1437.04 908.225 1483.82 911.302 1518.78C914.362 1553.48 914.283 1593.87 914.283 1594.27L918.374 1594.28Z" fill="#A523A2"/>
<path d="M892.36 1594.34C892.376 1593.96 893.653 1555.48 892.36 1518.52C891.084 1481.84 898.426 1436.61 898.497 1436.16L894.453 1435.5C894.382 1435.96 886.977 1481.58 888.269 1518.67C889.553 1555.48 888.285 1593.82 888.269 1594.21L892.36 1594.34Z" fill="#A523A2"/>
<path d="M874.307 1590.65C875.877 1573.88 875.465 1557.03 874.886 1533.71C874.711 1526.56 874.513 1518.48 874.355 1509.6C873.673 1472.52 883.789 1434.98 883.893 1434.61L879.944 1433.53C879.841 1433.91 869.574 1471.99 870.255 1509.67C870.422 1518.56 870.62 1526.66 870.795 1533.8C871.389 1557.86 871.778 1573.74 870.232 1590.27L874.307 1590.65Z" fill="#A523A2"/>
<path d="M925.43 1330L907.884 1328.38L909.977 1305.8L927.515 1307.43L925.43 1330Z" fill="#F99370"/>
<path d="M895.246 1289.2C893.494 1323.77 949.2 1323.83 946.948 1288.74C946.83 1281.82 944.8 1277.02 944.657 1265.99C944.34 1240.43 908.495 1235.75 902.81 1261.92C900.574 1272.24 896.055 1279.58 895.246 1289.2Z" fill="#F99370"/>
<path d="M835.253 1403.97C836.301 1404.74 837.3 1405.62 838.213 1406.62C838.213 1406.62 846.087 1406.21 852.67 1398.57C857.99 1392.41 871.159 1387.01 875.988 1385.17L870.858 1369.03C870.858 1369.03 857.411 1381.22 850.49 1393.23C843.733 1404.94 835.635 1404.02 835.253 1403.97Z" fill="#7640CC"/>
<path d="M854.707 1430.98C854.707 1430.98 896.871 1446.57 957.517 1436.48C958.905 1421.86 958.913 1393.8 955.123 1375.51C947.075 1315.29 877.312 1296.67 865.514 1393.81C862.787 1410.1 861.145 1417.56 854.707 1430.98Z" fill="#9358E0"/>
<path d="M925.517 1329.01L955.123 1375.51C993.061 1364.4 1038.12 1330.1 1033.46 1300.36H1033.45C1032.43 1296.38 1030.59 1294.21 1030.59 1294.21C1014.09 1294.33 1005.15 1281.75 1005.15 1281.75C979.186 1287.64 981.985 1325.27 925.517 1329.01Z" fill="#9358E0"/>
<path d="M942.072 1252.7C942.072 1252.7 955.337 1257.1 941.232 1278.34C932.503 1291.47 954.758 1311.34 936.911 1329.17C895.508 1383.63 777.234 1355.97 841.707 1297.44C861.034 1287.05 860.202 1276.41 866.687 1263.04C875.33 1245.24 914.52 1211.77 942.072 1252.7Z" fill="#662948"/>
<path d="M807.851 1395.48C808.375 1397.82 809.213 1399.04 809.213 1399.04C808.86 1398.45 831.186 1397.19 838.213 1406.62C838.213 1406.62 840.628 1406.49 843.902 1405.08C843.902 1405.08 830.053 1386.57 807.851 1395.48Z" fill="#7640CC"/>
<path d="M997.422 1284.2C1016.89 1305.9 1033.45 1300.36 1033.45 1300.36C1032.43 1296.38 1030.59 1294.21 1030.59 1294.21C1014.09 1294.33 1005.15 1281.75 1005.15 1281.75C1002.23 1281.96 999.713 1282.83 997.422 1284.2Z" fill="#7640CC"/>
<path d="M945.355 1367.48C945.735 1368.5 958.001 1401.52 958.088 1423.6C958.508 1410.42 957.961 1390.32 955.123 1375.51C954.861 1375.46 951.507 1374.06 945.355 1367.48Z" fill="#7640CC"/>
<path d="M966.342 1581.86C965.818 1588.16 965.422 1591.86 965.422 1591.86C903.532 1614.42 843.898 1592.16 843.898 1592.16C843.969 1589.58 843.918 1586.95 843.776 1584.25L843.787 1584.25C843.787 1584.25 909.66 1603.59 966.342 1581.86Z" fill="#A523A2"/>
</svg>
